<svg width="201" height="41" viewBox="0 0 201 41" fill="none" xmlns="http://www.w3.org/2000/svg">
<path d="M15.9854 0C7.15808 0 0 6.22669 0 13.9069C0 14.1299 0.00910343 14.3568 0.0221087 14.5798C0.0221087 14.615 0.026661 14.6463 0.026661 14.675C0.697731 26.1594 15.9854 41 15.9854 41C15.9854 41 31.273 26.1594 31.9441 14.675C31.9461 14.6463 31.9487 14.6157 31.9487 14.5798C31.9617 14.3568 31.9708 14.1299 31.9708 13.9069C31.9708 6.22603 24.8153 0 15.9854 0ZM27.0242 17.7371C26.3089 18.6553 24.9844 18.8248 24.0649 18.1036L23.3431 17.5435L22.421 24.82C22.3768 25.1995 22.2188 25.5634 21.9984 25.8307C21.7786 26.0974 21.5009 26.25 21.2395 26.25H18.8719C17.9102 26.25 17.9063 25.3495 17.9082 25.2308V25.2132L18.0513 21.7735C18.0669 21.2903 17.7632 20.8932 17.3737 20.8932H14.6432C14.2537 20.8932 13.9566 21.2903 13.9787 21.7735L14.1946 25.2132C14.1946 25.2132 14.2628 26.25 13.2328 26.25H10.8828C10.6188 26.25 10.3392 26.0974 10.1129 25.8307C9.88853 25.564 9.72792 25.1995 9.67525 24.82L8.63678 17.5363L7.90849 18.103V18.1075C7.52353 18.4055 7.0677 18.5536 6.61446 18.5536C5.98306 18.5536 5.36466 18.2758 4.94849 17.7371C4.23125 16.8171 4.39642 15.4868 5.31589 14.7676L14.6914 7.45324C15.4548 6.85333 16.5134 6.85333 17.2814 7.45324L26.6568 14.7676C27.5744 15.4868 27.7395 16.8171 27.0242 17.7371Z" fill="white"/>
<path d="M39.8695 13.8866H45.322V17.7724C46.4339 15.1119 48.226 13.3852 51.4546 13.5273V19.2467H51.1691C47.5433 19.2467 45.322 21.4403 45.322 26.0446V33.1672H39.8695V13.8866Z" fill="white"/>
<path d="M53.2792 26.3693V13.8866H58.7317V24.6433C58.7317 27.2327 59.9509 28.5649 62.035 28.5649C64.1191 28.5649 65.4417 27.2327 65.4417 24.6433V13.8866H70.8915V33.1672H65.4417V30.4311C64.186 32.0522 62.5715 33.5265 59.8072 33.5265C55.6839 33.5265 53.2792 30.793 53.2792 26.3693Z" fill="white"/>
<path d="M74.3282 13.8866H79.7826V16.6201C81.0363 15.0036 82.6847 13.5267 85.4496 13.5267C87.959 13.5267 89.8584 14.6417 90.8631 16.5836C92.5505 14.6052 94.5598 13.5267 97.1784 13.5267C101.229 13.5267 103.667 15.9739 103.667 20.6128V33.1666H98.2175V22.4125C98.2175 19.8205 97.0692 18.4929 95.0254 18.4929C92.9816 18.4929 91.724 19.8212 91.724 22.4125V33.1666H86.2696V22.4125C86.2696 19.8205 85.1258 18.4929 83.0801 18.4929C81.0343 18.4929 79.7826 19.8212 79.7826 22.4125V33.1666H74.3282V13.886V13.8866Z" fill="white"/>
<path d="M105.809 27.6285V27.5555C105.809 23.347 109.005 21.4057 113.556 21.4057C115.492 21.4057 116.896 21.7285 118.257 22.198V21.8733C118.257 19.6067 116.857 18.3475 114.131 18.3475C112.053 18.3475 110.58 18.7459 108.825 19.3915L107.459 15.2195C109.576 14.2831 111.658 13.6721 114.923 13.6721C117.898 13.6721 120.049 14.4644 121.414 15.8311C122.848 17.269 123.492 19.3915 123.492 21.9809V33.1679H118.222V31.0819C116.896 32.5563 115.063 33.5272 112.411 33.5272C108.788 33.5272 105.809 31.4412 105.809 27.6292M118.327 26.3693V25.3984C117.394 24.968 116.178 24.6792 114.852 24.6792C112.519 24.6792 111.082 25.611 111.082 27.3396V27.4107C111.082 28.8851 112.302 29.7484 114.06 29.7484C116.608 29.7484 118.327 28.3471 118.327 26.3687" fill="white"/>
<path d="M126.754 6.90874H132.206V16.6214C133.46 15.003 135.074 13.528 137.835 13.528C141.963 13.528 144.367 16.2595 144.367 20.6852V33.1659H138.914V22.4138C138.914 19.8225 137.693 18.4922 135.611 18.4922C133.529 18.4922 132.206 19.8225 132.206 22.4138V33.1659H126.754V6.90874Z" fill="white"/>
<path d="M151.601 13.4204L147.224 14.4989L146.078 9.96765L153.291 7.80862H157.054V33.1659H151.601V13.4204Z" fill="white"/>
<path d="M160.673 28.7781L169.03 21.9091C172.151 19.3178 173.37 17.953 173.37 15.865C173.37 13.7771 171.971 12.591 169.996 12.591C168.021 12.591 166.736 13.6714 164.87 15.9746L160.996 12.8427C163.471 9.46294 165.877 7.6293 170.359 7.6293C175.56 7.6293 179.001 10.6836 179.001 15.3982V15.4712C179.001 19.6771 176.852 21.765 172.407 25.2178L168.315 28.3843H179.254V33.1673H160.673V28.7781Z" fill="white"/>
<path d="M181.182 29.245L184.983 25.6116C186.704 27.5555 188.499 28.636 191.043 28.636C193.125 28.636 194.598 27.4479 194.598 25.5771V25.504C194.598 23.4572 192.767 22.3049 189.685 22.3049H187.388L186.532 18.7792L192.514 12.737H182.655V7.98858H199.621V12.1606L193.27 18.2392C196.678 18.8163 200.014 20.6134 200.014 25.2908V25.3619C200.014 30.1103 196.573 33.5996 190.975 33.5996C186.456 33.5996 183.335 31.7998 181.182 29.245" fill="white"/>
</svg>
