<?xml version="1.0" encoding="UTF-8"?>
<svg xmlns="http://www.w3.org/2000/svg" width="220" height="48" viewBox="0 0 220 48" role="img" aria-label="Rumah IO">
  <g fill="none" fill-rule="evenodd">
    <!-- Icon -->
    <rect x="0" y="0" width="48" height="48" rx="12" fill="#2563EB"/>
    <path fill="#FFFFFF" d="M24 10 10.5 21.4V36c0 1 .8 1.8 1.8 1.8H20v-9c0-.8.6-1.4 1.4-1.4h5.2c.8 0 1.4.6 1.4 1.4v9h7.7c1 0 1.8-.8 1.8-1.8V21.4L24 10Zm-8.2 11.7L24 14.8l8.2 6.9V34h-3.7v-5.2c0-2.1-1.7-3.8-3.8-3.8h-5.2c-2.1 0-3.8 1.7-3.8 3.8V34h-3.7V21.7Z"/>
    <!-- Wordmark -->
    <text x="62" y="31" font-family="ui-sans-serif, system-ui, -apple-system, Segoe UI, Roboto, Helvetica, Arial, \"Apple Color Emoji\", \"Segoe UI Emoji\""
          font-size="22" font-weight="800" fill="#F9FAFB" letter-spacing="0.2">
      Rumah IO
    </text>
  </g>
</svg>
