<?xml version="1.0" encoding="UTF-8"?>
<svg version="1.1" xmlns="http://www.w3.org/2000/svg" width="2000" height="700">
<path d="M0 0 C4.36083072 2.4009068 7.90797948 5.35977203 11.625 8.625 C12.8767397 9.71193384 14.12935241 10.79786307 15.3828125 11.8828125 C15.99801758 12.41551758 16.61322266 12.94822266 17.24707031 13.49707031 C19.63062573 15.54068691 22.06044276 17.52374146 24.5 19.5 C28.7279248 22.93208013 32.8752789 26.44551171 37 30 C42.01591689 34.32172863 47.09175299 38.55479196 52.23046875 42.73046875 C58.10799411 47.54688939 63.87611914 52.494943 69.66601562 57.41601562 C75.22068034 62.1351961 80.78059925 66.84075049 86.4375 71.4375 C102.55654762 84.55654762 102.55654762 84.55654762 107 89 C107.09558036 90.44213999 107.12188394 91.88894079 107.12025452 93.33424377 C107.12231651 94.73726242 107.12231651 94.73726242 107.12442017 96.16862488 C107.12082489 97.20296158 107.11722961 98.23729828 107.11352539 99.30297852 C107.11367142 100.38577087 107.11381744 101.46856323 107.1139679 102.58416748 C107.11326823 106.18243374 107.10547333 109.78064897 107.09765625 113.37890625 C107.09579226 115.86612418 107.09436827 118.35334248 107.09336853 120.84056091 C107.0899335 126.73021191 107.08204277 132.6198439 107.07201904 138.50948709 C107.05976246 145.87025374 107.05437791 153.23102264 107.04882812 160.59179688 C107.03808815 173.72787398 107.02120089 186.86393583 107 200 C104.09659166 198.28010706 101.37586993 196.6245301 98.8359375 194.3984375 C97.99760376 193.6703186 97.99760376 193.6703186 97.14233398 192.92749023 C96.55911377 192.41516846 95.97589355 191.90284668 95.375 191.375 C94.12455125 190.2893809 92.8732405 189.20475394 91.62109375 188.12109375 C91.0060498 187.5885498 90.39100586 187.05600586 89.75732422 186.50732422 C87.35042357 184.44283344 84.89903941 182.43637121 82.4375 180.4375 C77.85027968 176.71248849 73.33561845 172.91023414 68.83349609 169.08349609 C65.44026525 166.20442157 62.0172328 163.36788508 58.5625 160.5625 C53.69950576 156.60556582 48.94299797 152.53564058 44.19384766 148.44384766 C39.78106717 144.64955707 35.29977416 140.94922844 30.78125 137.28125 C27.63616247 134.70157146 24.53518912 132.07369666 21.4375 129.4375 C16.04336042 124.84943654 10.56305219 120.38263028 5 116 C-1.07899182 120.34213701 -6.67419523 125.13262791 -12.29272461 130.04321289 C-16.87753599 134.04476122 -21.53804453 137.9332077 -26.265625 141.765625 C-29.33020579 144.2698253 -32.3566222 146.81547298 -35.375 149.375 C-35.91769531 149.83519531 -36.46039063 150.29539062 -37.01953125 150.76953125 C-38.68027174 152.17900132 -40.34027662 153.58933242 -42 155 C-49.0081393 160.95650761 -56.03929512 166.87282829 -63.17578125 172.67578125 C-66.3775577 175.31071484 -69.53246611 177.99700262 -72.6875 180.6875 C-85.98344921 192 -85.98344921 192 -88 192 C-88 179.79 -88 167.58 -88 155 C-105.16 155 -122.32 155 -140 155 C-139.83757812 160.78015625 -139.67515625 166.5603125 -139.5078125 172.515625 C-139.43619618 176.19813927 -139.3688051 179.87978414 -139.31640625 183.5625 C-139.23299468 189.39701621 -139.1348188 195.22843074 -138.94384766 201.06054688 C-138.79067713 205.76822271 -138.70781779 210.47257184 -138.6717186 215.18254852 C-138.64602988 216.97062305 -138.5958561 218.75853358 -138.51977921 220.54517365 C-137.96504104 234.12462209 -137.96504104 234.12462209 -141.35231781 238.91081238 C-144.61253378 242.40449983 -148.30195822 245.17528726 -152.26604843 247.81999969 C-154.81153371 249.55227034 -157.14342898 251.5219722 -159.5 253.5 C-160.3765625 254.2115625 -161.253125 254.923125 -162.15625 255.65625 C-165.47686594 258.39302138 -168.74043709 261.19106385 -172 264 C-177.01314773 268.31934272 -182.08537515 272.55097277 -187.22265625 276.72265625 C-190.34396267 279.28203972 -193.42453424 281.88589916 -196.5 284.5 C-200.44650481 287.85447127 -204.41642072 291.17221829 -208.4375 294.4375 C-213.26920083 298.36765898 -218.00209689 302.40292361 -222.70288086 306.48803711 C-223.24565674 306.95733643 -223.78843262 307.42663574 -224.34765625 307.91015625 C-224.87792419 308.38583038 -225.40819214 308.86150452 -225.95452881 309.35159302 C-228 311 -228 311 -230.50215149 312.42442322 C-235.0636602 315.26904287 -237.60470874 317.39421341 -238.91841125 322.73085022 C-239.38367076 327.43072533 -239.28396503 332.12792334 -239.1953125 336.84375 C-239.20049153 338.38446184 -239.2101603 339.92516526 -239.22436523 341.46582031 C-239.24551856 347.14393741 -239.1801318 352.82211116 -239.125 358.5 C-239.08375 371.205 -239.0425 383.91 -239 397 C-269.36 397 -299.72 397 -331 397 C-331.60245503 366.53362621 -331.60245503 366.53362621 -331.75380802 351.42126751 C-331.83675272 343.26591245 -331.94182548 335.11287284 -332.1315918 326.95922852 C-332.28183728 320.50054739 -332.37803903 314.04361705 -332.41132742 307.58323687 C-332.43077064 304.16621219 -332.47589915 300.75419215 -332.58595085 297.33878517 C-333.22894221 274.90330885 -333.22894221 274.90330885 -327.74539185 268.50375366 C-324.69528322 265.5960619 -321.41881188 263.26154133 -317.80655098 261.1045742 C-315.26147526 259.54844597 -313.02734768 257.66954139 -310.75 255.75 C-309.96238281 255.12867188 -309.17476562 254.50734375 -308.36328125 253.8671875 C-298.85366946 246.35380827 -289.57457824 238.53763217 -280.22167969 230.83056641 C-276.6483795 227.88632412 -273.07415572 224.9432036 -269.5 222 C-268.08332863 220.83333904 -266.66666197 219.66667237 -265.25 218.5 C-251.08333333 206.83333333 -236.91666667 195.16666667 -222.75 183.5 C-222.0482666 182.92209717 -221.3465332 182.34419434 -220.62353516 181.7487793 C-219.21177011 180.5861588 -217.79998636 179.42356102 -216.38818359 178.26098633 C-212.77136578 175.28260241 -209.15490818 172.30378282 -205.5390625 169.32421875 C-198.67318949 163.6671262 -191.80261815 158.01618794 -184.9140625 152.38671875 C-179.00588333 147.5477141 -173.11539756 142.68716472 -167.22167969 137.83056641 C-163.6483795 134.88632412 -160.07415572 131.9432036 -156.5 129 C-155.08332863 127.83333904 -153.66666197 126.66667237 -152.25 125.5 C-138.08333333 113.83333333 -123.91666667 102.16666667 -109.75 90.5 C-109.0482666 89.92209717 -108.3465332 89.34419434 -107.62353516 88.7487793 C-106.21177011 87.5861588 -104.79998636 86.42356102 -103.38818359 85.26098633 C-99.77136578 82.28260241 -96.15490818 79.30378282 -92.5390625 76.32421875 C-85.67318949 70.6671262 -78.80261815 65.01618794 -71.9140625 59.38671875 C-66.00588333 54.5477141 -60.11539756 49.68716472 -54.22167969 44.83056641 C-50.6483795 41.88632412 -47.07415572 38.9432036 -43.5 36 C-42.08332863 34.83333904 -40.66666197 33.66667237 -39.25 32.5 C-30.75 25.5 -30.75 25.5 -28.62109375 23.74682617 C-27.21739143 22.59080752 -25.81374476 21.43472129 -24.41015625 20.27856445 C-20.67061017 17.19840062 -16.92984879 14.11972697 -13.1875 11.04296875 C-12.40310547 10.39779297 -11.61871094 9.75261719 -10.81054688 9.08789062 C-9.29657543 7.84267151 -7.78226486 6.59786457 -6.26757812 5.35351562 C-5.59146484 4.79728516 -4.91535156 4.24105469 -4.21875 3.66796875 C-3.3205957 2.92969849 -3.3205957 2.92969849 -2.40429688 2.17651367 C-1.03522923 1.06453541 -1.03522923 1.06453541 0 0 Z " fill="#0049AD" transform="translate(426,180)"/>
<path d="M0 0 C0.62519531 0.49242187 1.25039062 0.98484375 1.89453125 1.4921875 C2.71179687 2.10707031 3.5290625 2.72195313 4.37109375 3.35546875 C6.98519134 5.56895387 8.97826119 7.85681603 11.08203125 10.5546875 C11.75621094 11.41191406 12.43039062 12.26914062 13.125 13.15234375 C14.43921351 14.89012276 15.68596783 16.67934237 16.89453125 18.4921875 C19.32186125 19.11249527 19.32186125 19.11249527 21.89453125 18.4921875 C23.89789141 16.61567542 23.89789141 16.61567542 25.58203125 14.0546875 C37.85463719 -2.12595497 55.45332656 -10.24134708 75.33984375 -13.1953125 C99.77645994 -15.34358645 124.63916279 -12.62738917 144.51953125 2.6796875 C160.94500353 16.55875276 165.99430467 37.88981633 167.89453125 58.4921875 C168.14673468 63.95844774 168.14954477 69.41260329 168.12158203 74.88256836 C168.12101616 76.46111545 168.1213379 78.03966306 168.12246704 79.61820984 C168.12303469 83.85277129 168.111377 88.0872166 168.09731913 92.32175136 C168.08471241 96.76597279 168.08363351 101.21019765 168.08126831 105.6544342 C168.07508248 114.04754425 168.0587114 122.44060143 168.03856933 130.83368832 C168.01611949 140.39853839 168.00519418 149.96339115 167.99517846 159.52826107 C167.97434219 179.18293916 167.93770272 198.8375449 167.89453125 218.4921875 C147.10453125 218.4921875 126.31453125 218.4921875 104.89453125 218.4921875 C104.84554688 208.55996094 104.7965625 198.62773437 104.74609375 188.39453125 C104.71068661 182.08267384 104.67479318 175.77082533 104.63671875 169.45898438 C104.57644461 159.45208815 104.51809213 149.4452085 104.47265625 139.43823242 C104.43954703 132.14814618 104.39961386 124.85813342 104.35174119 117.56812865 C104.32666275 113.71394538 104.30482829 109.85980967 104.29118729 106.00556755 C104.27819518 102.3652944 104.25596358 98.72518597 104.22714806 95.08500481 C104.21399426 93.13772669 104.21018427 91.19039217 104.20683289 89.24307251 C104.068217 74.36015313 103.54070444 56.11874032 92.46875 44.8515625 C84.76808164 38.20185385 75.16494399 37.03807484 65.20703125 37.6171875 C54.61140692 38.95704116 45.46868622 43.82426715 38.70703125 52.1171875 C27.21678862 68.63441128 26.79117077 89.78539828 26.68920898 109.16723633 C26.67930939 110.35907028 26.66940979 111.55090424 26.65921021 112.77885437 C26.6279403 116.6689565 26.6029761 120.55907079 26.578125 124.44921875 C26.55802623 127.16591591 26.5365724 129.88260192 26.51515198 132.59928894 C26.46554713 138.98787368 26.42049101 145.37648179 26.37712961 151.76511163 C26.32259504 159.7633607 26.26188083 167.76156144 26.20117188 175.75976562 C26.09308144 190.00386887 25.99422983 204.24801757 25.89453125 218.4921875 C5.10453125 218.4921875 -15.68546875 218.4921875 -37.10546875 218.4921875 C-37.11481445 214.12291016 -37.12416016 209.75363281 -37.13378906 205.25195312 C-37.16763819 190.77519123 -37.22303282 176.29857002 -37.28937149 161.8219223 C-37.32905028 153.04941024 -37.36149912 144.27698644 -37.37646484 135.50439453 C-37.38953958 127.85131061 -37.41665117 120.1984218 -37.46008182 112.54544783 C-37.48256682 108.49946442 -37.49838731 104.45372048 -37.4973526 100.40766907 C-37.49659822 96.58586581 -37.51485497 92.76458927 -37.54663658 88.94292259 C-37.55898719 86.89922617 -37.55213269 84.85544064 -37.54432678 82.8117218 C-37.68632468 69.96330208 -39.67906117 55.7285633 -48.10546875 45.4921875 C-54.54433873 39.37308082 -62.41591389 37.60898259 -71.10546875 37.4921875 C-82.33540008 38.18761903 -92.60352006 40.69884495 -100.4453125 49.2265625 C-116.13980526 70.64492908 -114.40933059 98.9472507 -114.51953125 124.15625 C-114.53723377 126.88822828 -114.55776235 129.62018345 -114.57821655 132.35214233 C-114.62458885 138.75825936 -114.66153078 145.16439284 -114.69488943 151.57058942 C-114.73720332 159.59659712 -114.79245337 167.62250988 -114.84765625 175.6484375 C-114.94582742 189.92963467 -115.02478327 204.21085711 -115.10546875 218.4921875 C-135.89546875 218.4921875 -156.68546875 218.4921875 -178.10546875 218.4921875 C-178.10546875 143.2521875 -178.10546875 68.0121875 -178.10546875 -9.5078125 C-162.26546875 -9.5078125 -146.42546875 -9.5078125 -130.10546875 -9.5078125 C-127.92729969 -3.69936168 -126.04767541 1.86192031 -124.41796875 7.8046875 C-124.19302734 8.60197266 -123.96808594 9.39925781 -123.73632812 10.22070312 C-123.52427734 10.98705078 -123.31222656 11.75339844 -123.09375 12.54296875 C-122.90337158 13.23044189 -122.71299316 13.91791504 -122.5168457 14.6262207 C-122.10546875 16.4921875 -122.10546875 16.4921875 -122.10546875 19.4921875 C-120.78546875 19.4921875 -119.46546875 19.4921875 -118.10546875 19.4921875 C-117.84378906 18.92886719 -117.58210938 18.36554688 -117.3125 17.78515625 C-109.54908321 3.03717679 -94.462679 -5.2902564 -79.08740234 -10.14501953 C-54.18029387 -17.47610273 -21.62709508 -15.59265103 0 0 Z " fill="#0049AD" transform="translate(1225.10546875,279.5078125)"/>
<path d="M0 0 C2.53289883 1.37925058 4.59729311 3.00142124 6.8046875 4.86328125 C7.77148438 5.67410156 8.73828125 6.48492187 9.734375 7.3203125 C10.80056268 8.22919925 11.86562334 9.13940934 12.9296875 10.05078125 C13.77128418 10.77080322 13.77128418 10.77080322 14.62988281 11.50537109 C17.00028606 13.53553459 19.36887568 15.56776509 21.73364258 17.60449219 C26.14796467 21.40147299 30.63217624 25.10287563 35.15234375 28.7734375 C38.83727893 31.79498069 42.46537071 34.88114076 46.09619141 37.96728516 C49.48942225 40.84635968 52.9124547 43.68289617 56.3671875 46.48828125 C61.23097775 50.44586313 65.98849981 54.51620571 70.73803711 58.60913086 C74.26267669 61.64023414 77.82008632 64.62063441 81.4296875 67.55078125 C97.38206845 80.5031622 97.38206845 80.5031622 101.9296875 85.05078125 C101.9296875 128.28078125 101.9296875 171.51078125 101.9296875 216.05078125 C4.5796875 216.05078125 -92.7703125 216.05078125 -193.0703125 216.05078125 C-193.0703125 197.57078125 -193.0703125 179.09078125 -193.0703125 160.05078125 C-189.4403125 157.08078125 -185.8103125 154.11078125 -182.0703125 151.05078125 C-179.93937465 149.26618093 -177.8132731 147.47576385 -175.6953125 145.67578125 C-175.15986816 145.22154785 -174.62442383 144.76731445 -174.07275391 144.29931641 C-172.40449828 142.88404793 -170.7372606 141.46758943 -169.0703125 140.05078125 C-162.96143215 134.85859103 -156.85520609 129.66954544 -150.6328125 124.61328125 C-146.38638868 121.15803974 -142.21734956 117.62380291 -138.0703125 114.05078125 C-133.05711762 109.73149169 -127.9849393 105.49981006 -122.84765625 101.328125 C-119.72634983 98.76874153 -116.64577826 96.16488209 -113.5703125 93.55078125 C-109.62380769 90.19630998 -105.65389178 86.87856296 -101.6328125 83.61328125 C-96.76902225 79.65569937 -92.01150019 75.58535679 -87.26196289 71.49243164 C-82.872309 67.71743734 -78.40916479 64.04349664 -73.9140625 60.39453125 C-70.59344656 57.65775987 -67.32987541 54.8597174 -64.0703125 52.05078125 C-59.05716477 47.73143853 -53.98493735 43.49980848 -48.84765625 39.328125 C-45.72634983 36.76874153 -42.64577826 34.16488209 -39.5703125 31.55078125 C-35.62380769 28.19630998 -31.65389178 24.87856296 -27.6328125 21.61328125 C-22.68890737 17.59001534 -17.84322318 13.46067768 -13.01586914 9.29907227 C-11.90876589 8.34478361 -10.79857254 7.3940661 -9.68505859 6.44726562 C-8.59105617 5.50113713 -7.51606419 4.532654 -6.45947266 3.54492188 C-2.63228063 0.06456537 -2.63228063 0.06456537 0 0 Z M-29.0703125 93.05078125 C-29.0703125 101.30078125 -29.0703125 109.55078125 -29.0703125 118.05078125 C-20.8203125 118.05078125 -12.5703125 118.05078125 -4.0703125 118.05078125 C-4.0703125 109.80078125 -4.0703125 101.55078125 -4.0703125 93.05078125 C-12.3203125 93.05078125 -20.5703125 93.05078125 -29.0703125 93.05078125 Z M4.9296875 93.05078125 C4.9296875 101.30078125 4.9296875 109.55078125 4.9296875 118.05078125 C13.1796875 118.05078125 21.4296875 118.05078125 29.9296875 118.05078125 C29.9296875 109.80078125 29.9296875 101.55078125 29.9296875 93.05078125 C21.6796875 93.05078125 13.4296875 93.05078125 4.9296875 93.05078125 Z M-29.0703125 127.05078125 C-29.0703125 135.30078125 -29.0703125 143.55078125 -29.0703125 152.05078125 C-20.8203125 152.05078125 -12.5703125 152.05078125 -4.0703125 152.05078125 C-4.0703125 143.80078125 -4.0703125 135.55078125 -4.0703125 127.05078125 C-12.3203125 127.05078125 -20.5703125 127.05078125 -29.0703125 127.05078125 Z M4.9296875 127.05078125 C4.9296875 135.30078125 4.9296875 143.55078125 4.9296875 152.05078125 C13.1796875 152.05078125 21.4296875 152.05078125 29.9296875 152.05078125 C29.9296875 143.80078125 29.9296875 135.55078125 29.9296875 127.05078125 C21.6796875 127.05078125 13.4296875 127.05078125 4.9296875 127.05078125 Z " fill="#004AAC" transform="translate(431.0703125,360.94921875)"/>
<path d="M0 0 C20.79 0 41.58 0 63 0 C63.35601326 74.26832116 63.35601326 74.26832116 62.0625 95.5625 C62.01893372 96.28392181 61.97536743 97.00534363 61.93048096 97.74862671 C61.50565802 104.53047324 60.94202902 111.27000887 60 118 C60.99 118 61.98 118 63 118 C63.36738281 117.17628906 63.36738281 117.17628906 63.7421875 116.3359375 C71.33097928 102.24246705 85.36862932 93.03759356 100.33105469 88.25488281 C124.40363839 81.64652889 152.2845168 83.23653868 174.625 94.75 C191.64671062 104.58150527 201.65969659 119.03233605 207.0625 137.6640625 C208.91648567 145.41871409 210.12641247 153.04302356 210.12025452 161.02989197 C210.12153615 162.03729198 210.12153615 162.03729198 210.12284368 163.06504351 C210.12447939 165.29591302 210.11900866 167.52670588 210.11352539 169.75756836 C210.11324308 171.36449176 210.11340211 172.97141529 210.1139679 174.57833862 C210.11425416 178.92697034 210.10838507 183.27557434 210.10139394 187.62419963 C210.09513193 192.17390854 210.09455435 196.72361813 210.09336853 201.27333069 C210.09026361 209.88272533 210.08206153 218.49210724 210.07201904 227.10149628 C210.06083185 236.90558158 210.05534089 246.70966749 210.05032361 256.51375759 C210.03987821 276.67584707 210.02154316 296.83791911 210 317 C189.21 317 168.42 317 147 317 C146.9906543 312.62548584 146.98130859 308.25097168 146.97167969 303.74389648 C146.93784137 289.25515356 146.88245297 274.76655137 146.81609726 260.27792263 C146.7764061 251.49753478 146.74396348 242.71723528 146.72900391 233.93676758 C146.71593566 226.27746727 146.68884027 218.61836216 146.64538693 210.95917183 C146.62288756 206.90930784 146.60708232 202.85968354 146.60811615 198.80975151 C146.60886966 194.98548873 146.5906466 191.16175345 146.55883217 187.33762741 C146.55042302 185.94586538 146.54852086 184.55404354 146.55419731 183.16226768 C146.60046376 170.05676467 144.7327731 157.86768111 137 147 C136.67 146.01 136.34 145.02 136 144 C134.13882712 142.88430166 134.13882712 142.88430166 132 142 C130.865625 141.34 129.73125 140.68 128.5625 140 C117.71982829 134.62895483 104.53534967 134.97235045 93.25 138.6875 C88.15835318 140.72415873 84.05492508 143.32102824 80 147 C79.20142578 147.71736328 79.20142578 147.71736328 78.38671875 148.44921875 C65.00636198 162.17532117 63.88478146 185.4798782 63.79467773 203.47460938 C63.78477814 204.70472748 63.77487854 205.93484558 63.76467896 207.20223999 C63.73862461 210.55289372 63.71670826 213.90352533 63.69667697 217.25421715 C63.67469943 220.76427046 63.64736872 224.27428214 63.62062073 227.78430176 C63.57085203 234.42096474 63.525855 241.05765103 63.48259836 247.6943593 C63.42822759 255.99679155 63.36744105 264.29917527 63.30664062 272.6015625 C63.19828884 287.40100427 63.09959578 302.20049096 63 317 C42.21 317 21.42 317 0 317 C0 212.39 0 107.78 0 0 Z " fill="#0049AD" transform="translate(1707,181)"/>
<path d="M0 0 C13.98231148 13.38634411 21.13493977 32.73848722 21.65162849 51.93667603 C21.68566792 56.09291043 21.68633087 60.24798929 21.67602539 64.40429688 C21.675743 66.00151569 21.67590226 67.59873463 21.6764679 69.19595337 C21.67675385 73.51353523 21.6708898 77.8310891 21.66389394 82.14866447 C21.65762674 86.66767102 21.65705394 91.18667826 21.65586853 95.70568848 C21.65276513 104.25484272 21.64456512 112.80398412 21.63451904 121.35313272 C21.6233271 131.08952785 21.6178397 140.82592361 21.61282361 150.56232357 C21.60238166 170.58322447 21.58404852 190.60410776 21.5625 210.625 C6.7125 210.625 -8.1375 210.625 -23.4375 210.625 C-27.0675 201.055 -30.6975 191.485 -34.4375 181.625 C-35.0975 181.625 -35.7575 181.625 -36.4375 181.625 C-37.82306506 183.05535704 -39.1456922 184.54693264 -40.4375 186.0625 C-55.28445914 202.85738018 -72.82084641 212.77182927 -95.4375 214.625 C-100.33416362 214.86986867 -105.22264658 214.96345723 -110.125 215 C-111.32382813 215.01393799 -112.52265625 215.02787598 -113.7578125 215.04223633 C-125.49344326 214.98037683 -137.01177963 213.23738597 -147.4375 207.625 C-148.24703125 207.19316406 -149.0565625 206.76132812 -149.890625 206.31640625 C-164.36540115 198.12439337 -174.2512232 186.03190106 -178.9621582 170.07348633 C-184.37988184 149.34448382 -184.3908177 125.45915701 -173.6875 106.4375 C-161.50751425 87.56455178 -142.29564822 79.06708323 -121.01513672 74.17285156 C-104.35138519 70.63113358 -87.49105882 69.59319871 -70.5 69.0625 C-69.24509766 69.01931641 -67.99019531 68.97613281 -66.69726562 68.93164062 C-58.27239916 68.6579085 -49.86633086 68.5738177 -41.4375 68.625 C-41.79457739 51.14840217 -41.79457739 51.14840217 -48.5625 35.25 C-56.96032294 27.58242254 -67.37580969 25.44053811 -78.54833984 25.66796875 C-96.12753479 26.59381965 -112.99385602 31.74430889 -129.30078125 38.07421875 C-132.96664956 39.48823305 -136.64324888 40.60751918 -140.4375 41.625 C-140.87578125 40.7484375 -141.3140625 39.871875 -141.765625 38.96875 C-142.2153064 38.0701123 -142.2153064 38.0701123 -142.67407227 37.15332031 C-143.361013 35.77844592 -144.04634747 34.40276801 -144.73022461 33.02636719 C-147.0077414 28.45057949 -149.32567997 23.8983569 -151.67578125 19.359375 C-152.22524414 18.28751953 -152.77470703 17.21566406 -153.34082031 16.11132812 C-154.43876416 13.9697237 -155.54606625 11.83288884 -156.66308594 9.70117188 C-157.16743164 8.71181641 -157.67177734 7.72246094 -158.19140625 6.703125 C-158.87698608 5.37909668 -158.87698608 5.37909668 -159.57641602 4.02832031 C-160.54611745 1.32184431 -160.65964339 0.21517247 -159.4375 -2.375 C-156.80490681 -3.8837019 -154.34543331 -5.08753444 -151.5625 -6.25 C-150.75530518 -6.59514648 -149.94811035 -6.94029297 -149.11645508 -7.29589844 C-133.68888716 -13.74181627 -117.95161907 -17.83489654 -101.4375 -20.375 C-100.76920166 -20.4795752 -100.10090332 -20.58415039 -99.41235352 -20.69189453 C-66.26057211 -25.12482021 -26.41626512 -22.52334184 0 0 Z M-109.0625 119.4375 C-115.86895999 127.03100247 -117.75309771 135.58873514 -117.65625 145.515625 C-117.19561864 152.06317076 -115.28027968 158.03710346 -110.4375 162.625 C-99.88021531 169.5971655 -88.25475733 169.88744834 -75.97265625 168.12890625 C-64.07362913 165.41831706 -53.75343615 159.22861395 -47.125 148.8125 C-41.4229688 139.32000679 -41.03245566 129.83259257 -41.25 119 C-41.26353516 117.70964844 -41.27707031 116.41929687 -41.29101562 115.08984375 C-41.32607556 111.93444972 -41.37521856 108.77995422 -41.4375 105.625 C-77.48992408 104.61723002 -77.48992408 104.61723002 -109.0625 119.4375 Z " fill="#0049AD" transform="translate(1622.4375,287.375)"/>
<path d="M0 0 C1.09920273 0.00222061 2.19840546 0.00444122 3.33091736 0.00672913 C4.57212845 0.00680466 5.81333954 0.00688019 7.09216309 0.00695801 C8.45682311 0.01206541 9.82148274 0.01728142 11.18614197 0.02259827 C12.57476755 0.02446251 13.96339379 0.02588638 15.35202026 0.02688599 C19.01319686 0.03071065 22.67433402 0.04054048 26.335495 0.05158997 C30.06890835 0.06180519 33.80232805 0.06638384 37.53575134 0.07142639 C44.86584748 0.08216281 52.19591108 0.0992386 59.52598572 0.12025452 C59.52929586 0.82795014 59.53260601 1.53564577 59.53601646 2.26478672 C59.61750417 19.54468485 59.70967916 36.82449358 59.8135128 54.10427189 C59.86347414 62.46089948 59.90991782 70.81751807 59.94786072 79.17420959 C59.98096994 86.46429584 60.02090311 93.7543086 60.06877577 101.04431337 C60.09385422 104.89849664 60.11568867 108.75263234 60.12932968 112.60687447 C60.14232179 116.24714761 60.16455339 119.88725604 60.19336891 123.52743721 C60.20652271 125.47471532 60.2103327 127.42204985 60.21368408 129.36936951 C60.35272873 144.29832405 60.91438649 162.4057492 71.93223572 173.76087952 C81.29706209 181.74852554 92.8202588 182.00123694 104.52598572 181.12025452 C115.08022143 179.65643861 123.79663884 175.66575017 130.83848572 167.55775452 C142.50476837 151.79886465 143.63430635 130.53812976 143.73130798 111.60218811 C143.74120758 110.3912851 143.75110718 109.18038208 143.76130676 107.93278503 C143.78730025 104.64423799 143.80924094 101.35569522 143.82930875 98.06710768 C143.85133525 94.61845902 143.87864157 91.16985206 143.90536499 87.72123718 C143.95506852 81.20505516 144.0000892 74.68884971 144.04338735 68.17262232 C144.09782305 60.01841639 144.15858102 51.86425907 144.21934509 43.71009827 C144.327593 29.18018787 144.42634916 14.65023218 144.52598572 0.12025452 C165.31598572 0.12025452 186.10598572 0.12025452 207.52598572 0.12025452 C207.52598572 75.36025452 207.52598572 150.60025452 207.52598572 228.12025452 C191.35598572 228.12025452 175.18598572 228.12025452 158.52598572 228.12025452 C155.88598572 218.88025452 153.24598572 209.64025452 150.52598572 200.12025452 C146.32582631 202.22033422 145.14312595 203.63976251 142.40098572 207.30775452 C130.80682358 221.76746567 113.13515048 228.39126982 95.38926697 231.70619202 C69.38210831 234.49361246 42.00151251 232.24117121 20.90098572 215.37025452 C2.56730537 198.67197289 -2.22138217 175.82265591 -3.47401428 152.12025452 C-3.79628668 141.26125625 -3.73788456 130.39524236 -3.70973372 119.53262043 C-3.70082445 115.35982754 -3.70271294 111.18703692 -3.70309448 107.01423645 C-3.70216535 100.03507071 -3.69357298 93.05594914 -3.67982483 86.07679749 C-3.66398356 78.00512704 -3.65883134 69.93350437 -3.65956038 61.86181951 C-3.66023405 53.23764941 -3.65331767 44.61349771 -3.64411378 35.98933315 C-3.64198152 33.50912087 -3.64127256 31.02891154 -3.64087486 28.54869843 C-3.63987463 24.67105407 -3.63380457 20.79345018 -3.62370872 16.91581917 C-3.62077726 15.49072327 -3.61955966 14.06562271 -3.62013626 12.64052391 C-3.62062351 10.70425869 -3.61437842 8.76799519 -3.60772705 6.83174133 C-3.60605121 5.74641239 -3.60437536 4.66108345 -3.60264874 3.54286575 C-3.42757758 0.24569826 -3.30222209 0.16051125 0 0 Z " fill="#0049AC" transform="translate(775.4740142822266,269.87974548339844)"/>
<path d="M0 0 C3.39743025 1.51866698 6.01618284 3.50279002 8.875 5.875 C9.84179688 6.67679687 10.80859375 7.47859375 11.8046875 8.3046875 C15.83202074 11.68885336 19.8184236 15.12075602 23.80395508 18.55395508 C28.2185323 22.35055184 32.70252926 26.05212729 37.22265625 29.72265625 C40.34396667 32.28204299 43.42439842 34.88605424 46.5 37.5 C53.20455559 43.19344146 59.92739852 48.87438785 66.90625 54.23046875 C67.8240625 54.93816406 68.741875 55.64585937 69.6875 56.375 C70.51636719 57.00148437 71.34523438 57.62796875 72.19921875 58.2734375 C72.79347656 58.84320313 73.38773437 59.41296875 74 60 C74 60.99 74 61.98 74 63 C71.98046875 64.9453125 71.98046875 64.9453125 69.1875 67.125 C68.17300781 67.92808594 67.15851563 68.73117188 66.11328125 69.55859375 C65.08589844 70.36425781 64.05851562 71.16992188 63 72 C61.28775744 73.39103518 59.57936865 74.78682838 57.875 76.1875 C56.9675 76.93 56.06 77.6725 55.125 78.4375 C49.14700725 83.33569825 43.18602432 88.25463674 37.22167969 93.16943359 C33.6483795 96.11367588 30.07415572 99.0567964 26.5 102 C25.08332863 103.16666096 23.66666197 104.33332763 22.25 105.5 C13.75 112.5 5.25 119.5 -3.25 126.5 C-3.95229736 127.07838623 -4.65459473 127.65677246 -5.37817383 128.25268555 C-6.78416697 129.41051467 -8.19025306 130.56823092 -9.59643555 131.72583008 C-13.30220703 134.77675607 -17.0059852 137.83006145 -20.70703125 140.88671875 C-21.47789062 141.52287109 -22.24875 142.15902344 -23.04296875 142.81445312 C-24.51882621 144.03248006 -25.99411785 145.25119302 -27.46875 146.47070312 C-36.59570541 154 -36.59570541 154 -39 154 C-39 143.11 -39 132.22 -39 121 C-56.16 121 -73.32 121 -91 121 C-90.87238281 126.44242187 -90.74476563 131.88484375 -90.61328125 137.4921875 C-90.55702381 140.95587482 -90.504072 144.41899303 -90.46289062 147.8828125 C-90.39731507 153.37229459 -90.32005395 158.85974447 -90.17016602 164.34765625 C-90.04997393 168.77639988 -89.98474087 173.20296354 -89.95635033 177.63321304 C-89.93614101 179.31669554 -89.89667149 181.00006846 -89.83696938 182.68261337 C-89.38984346 195.81502241 -89.38984346 195.81502241 -93.34628296 201.18389893 C-96.11273715 203.72930036 -98.90221755 205.87709881 -102 208 C-103.67544253 209.34329351 -105.34363223 210.69575534 -107 212.0625 C-107.82371094 212.71089844 -108.64742188 213.35929688 -109.49609375 214.02734375 C-119.06176081 221.5634777 -128.38059682 229.42543075 -137.77832031 237.16943359 C-141.3516205 240.11367588 -144.92584428 243.0567964 -148.5 246 C-149.91667137 247.16666096 -151.33333803 248.33332763 -152.75 249.5 C-165.5 260 -165.5 260 -178.25 270.5 C-178.95189453 271.07806396 -179.65378906 271.65612793 -180.37695312 272.25170898 C-181.78697771 273.41283894 -183.19713298 274.57381022 -184.60742188 275.73461914 C-188.25182587 278.73467835 -191.89359527 281.73785312 -195.53125 284.74609375 C-216.40779817 302 -216.40779817 302 -218 302 C-218.25742057 286.50987161 -218.45115922 271.01990399 -218.56993389 255.52813816 C-218.62656037 248.33419183 -218.70369809 241.14157742 -218.82983398 233.94848633 C-218.93977539 227.67589859 -219.01050893 221.40427556 -219.03497344 215.13075107 C-219.04926836 211.81082204 -219.08847385 208.49428186 -219.16303062 205.17508125 C-219.63477456 183.29978203 -219.63477456 183.29978203 -215.60977173 178.43722534 C-212.82241865 176.13200245 -210.24117021 174.57190995 -207 173 C-205.71647498 171.97825162 -204.45690726 170.92370706 -203.25 169.8125 C-202.71044678 169.34642334 -202.17089355 168.88034668 -201.61499023 168.40014648 C-201.08204346 167.93809814 -200.54909668 167.4760498 -200 167 C-194.98539321 162.67677929 -189.90819753 158.44516783 -184.76953125 154.26953125 C-179.45558334 149.91494206 -174.23473234 145.44921565 -169 141 C-161.98765442 135.0399173 -154.95039195 129.12241205 -147.8125 123.3125 C-144.1190609 120.2756723 -140.47701514 117.18039045 -136.83374023 114.08374023 C-133.44045891 111.2045468 -130.01732214 108.36795763 -126.5625 105.5625 C-122.31607618 102.10725849 -118.14703706 98.57302166 -114 95 C-108.98680512 90.68071044 -103.9146268 86.44902881 -98.77734375 82.27734375 C-95.65603733 79.71796028 -92.57546576 77.11410084 -89.5 74.5 C-85.55349519 71.14552873 -81.58357928 67.82778171 -77.5625 64.5625 C-73.31607618 61.10725849 -69.14703706 57.57302166 -65 54 C-59.98403597 49.67832458 -54.90824892 45.44520959 -49.76953125 41.26953125 C-44.45558334 36.91494206 -39.23473234 32.44921565 -34 28 C-22.8079758 18.48743547 -11.49255111 9.14916759 0 0 Z " fill="#0049AD" transform="translate(313,86)"/>
<path d="M0 0 C0.11661092 7.57907321 -0.21001402 15.02588545 -0.875 22.57421875 C-0.96378418 23.62406448 -1.05256836 24.67391022 -1.14404297 25.75556946 C-1.42504069 29.06659859 -1.71240647 32.37703794 -2 35.6875 C-2.19313197 37.94983367 -2.38584418 40.21220321 -2.578125 42.47460938 C-3.04723616 47.98349658 -3.5215587 53.49191568 -4 59 C-4.59485199 58.93016907 -5.18970398 58.86033813 -5.80258179 58.78839111 C-25.86578985 56.48559192 -47.89881121 56.79123629 -64.8125 69.3125 C-76.36390147 79.00481516 -82.90337489 90.96680649 -84.28391075 106.11533356 C-84.40440551 109.42020113 -84.43652012 112.71345939 -84.43237305 116.02050781 C-84.4425647 117.26096359 -84.45275635 118.50141937 -84.46325684 119.77946472 C-84.48805783 123.14034449 -84.50007214 126.50078913 -84.50611091 129.86172199 C-84.51556926 133.38914343 -84.54177787 136.91644213 -84.56611633 140.44378662 C-84.60958174 147.10510577 -84.63825065 153.76640082 -84.66143972 160.42781806 C-84.69368992 169.44224501 -84.74912977 178.45652855 -84.80318546 187.47084618 C-84.88759183 201.6471878 -84.94130222 215.8234746 -85 230 C-105.79 230 -126.58 230 -148 230 C-148 154.76 -148 79.52 -148 2 C-132.16 2 -116.32 2 -100 2 C-97.03 14.54 -94.06 27.08 -91 40 C-90.34 40 -89.68 40 -89 40 C-87.98043059 38.47675109 -87.03685356 36.90257299 -86.125 35.3125 C-74.32832392 16.42810908 -57.33075184 4.79204934 -35.921875 -0.8046875 C-24.2303473 -3.13660423 -11.53130711 -2.98977225 0 0 Z " fill="#0049AD" transform="translate(733,268)"/>
<path d="M0 0 C0.92296318 0.00462719 1.84592636 0.00925437 2.79685812 0.01402178 C3.75918984 0.0149675 4.72152155 0.01591321 5.71301483 0.01688759 C8.91090177 0.02129166 12.10872049 0.03290069 15.30658846 0.04459181 C17.54867736 0.04927878 19.79076713 0.05356613 22.03285753 0.05746885 C27.78510728 0.06885799 33.53731831 0.08645107 39.28954419 0.10639124 C42.34394938 0.11680377 45.3983548 0.12603179 48.45276552 0.1346499 C60.56071027 0.16911587 72.66856612 0.217956 84.77643769 0.27200153 C90.04294935 0.29527428 95.30946629 0.31730256 100.57598238 0.3395442 C113.15484918 0.39294688 125.73370661 0.44838948 138.31256296 0.50418901 C143.06825295 0.52525774 147.82394349 0.5461999 152.57963403 0.5671418 C173.60382579 0.65973982 194.62801457 0.75298663 215.65219527 0.84806528 C220.74631813 0.87109441 225.84044101 0.89411942 230.93456393 0.91713514 C232.20021669 0.92285406 233.46586945 0.92857298 234.76987532 0.9344652 C255.40707891 1.02760307 276.04429818 1.11663305 296.6815268 1.20403261 C317.95673728 1.29420132 339.23192925 1.38801228 360.50710785 1.48542019 C372.41924444 1.53986836 384.33138343 1.59271245 396.24354487 1.64145269 C406.347955 1.68280577 416.4523438 1.72743488 426.55671997 1.7764128 C431.70805017 1.80128079 436.85937484 1.82455907 442.01073008 1.8436183 C446.72214263 1.86108622 451.43351229 1.88301612 456.14488789 1.9085401 C457.85077899 1.91698879 459.55667922 1.92378483 461.26258393 1.92878176 C463.57721257 1.93580178 465.89173369 1.9487941 468.20632582 1.96329203 C470.13609283 1.97183573 470.13609283 1.97183573 472.10484504 1.98055204 C475.34830814 2.10880594 478.3865443 2.50292704 481.57006197 3.11757459 C481.57006197 4.76757459 481.57006197 6.41757459 481.57006197 8.11757459 C376.02561673 8.23240263 270.48285113 8.18681011 164.9391843 7.72801705 C157.57021635 7.69600841 150.20124509 7.66508946 142.83226811 7.63523384 C40.12198769 7.21891071 40.12198769 7.21891071 -7.42993803 6.11757459 C-7.47265903 4.45145554 -7.47057635 2.78374575 -7.42993803 1.11757459 C-5.49345612 -0.81890731 -2.57618736 0.0014096 0 0 Z " fill="#0049AD" transform="translate(586.4299380257726,555.8824254050851)"/>
<path d="M0 0 C160.30263191 -0.14177858 160.30263191 -0.14177858 343.37960815 0.40571976 C348.65509363 0.4322179 353.93058414 0.45748319 359.20607758 0.48234075 C445.21295255 0.88825732 445.21295255 0.88825732 488 2 C488 3.98 488 5.96 488 8 C459.31661177 8.02297297 430.63434385 7.9714011 401.95123744 7.84557307 C396.61987888 7.82239101 391.28851573 7.80030577 385.95715332 7.7780304 C373.20563744 7.7244973 360.45412982 7.66912821 347.70262343 7.61338559 C344.09456767 7.5976257 340.48651169 7.58191615 336.87845564 7.56622386 C314.37655469 7.46835159 291.87465646 7.36987726 269.37276649 7.26950932 C264.20733264 7.24647863 259.04189877 7.22345398 253.87646484 7.20043945 C251.95131483 7.19186107 251.95131483 7.19186107 249.9872729 7.1831094 C229.07492363 7.0900361 208.16255914 7.00099414 187.25018568 6.91354198 C165.70393074 6.82337074 144.15769409 6.72955227 122.61147058 6.63215441 C110.54276374 6.57769182 98.47405452 6.52484645 86.40532303 6.4761219 C76.1635502 6.43476529 65.92179839 6.3901363 55.68005903 6.34116179 C50.45787918 6.31629219 45.23570478 6.29301412 40.01350021 6.2739563 C35.23712371 6.25648926 30.46078953 6.23455958 25.68444948 6.2090345 C23.95485582 6.20058501 22.22525315 6.19378928 20.49564607 6.18879283 C18.14897985 6.1817739 15.80241976 6.16878192 13.45578957 6.15428257 C12.15137905 6.14858676 10.84696853 6.14289096 9.50303042 6.13702255 C6.24535349 6.00959711 3.19702211 5.61865632 0 5 C0 3.35 0 1.7 0 0 Z " fill="#0049AD" transform="translate(1433,558)"/>
<path d="M0 0 C3.1875 2.125 3.1875 2.125 5.1875 4.125 C5.8475 2.145 6.5075 0.165 7.1875 -1.875 C9.4975 -1.875 11.8075 -1.875 14.1875 -1.875 C14.1875 14.625 14.1875 31.125 14.1875 48.125 C11.8775 48.125 9.5675 48.125 7.1875 48.125 C6.5275 46.475 5.8675 44.825 5.1875 43.125 C4.465625 43.74375 3.74375 44.3625 3 45 C-2.84608663 49.41704323 -9.11577919 50.45217095 -16.3359375 49.94921875 C-24.24528269 48.74456464 -29.72990882 45.027556 -34.6875 38.8125 C-38.68340185 32.6566512 -39.37415325 25.8468766 -38.4140625 18.6796875 C-36.64937471 11.18549388 -33.23332583 5.36274505 -26.8125 1.125 C-19.25929703 -3.53548694 -7.97651163 -3.90060184 0 0 Z M-26.1875 12.5 C-29.43589548 17.74740809 -30.22452973 21.90950362 -29.3515625 27.94921875 C-27.98116848 33.48044677 -24.36668478 36.97210285 -19.8125 40.125 C-14.26364437 41.97461854 -8.8709676 41.92397602 -3.5 39.5 C1.21372937 36.86143834 3.49572627 33.2003212 5.1875 28.125 C5.96245324 21.68399524 5.09246706 16.40327352 1.1875 11.125 C-3.57959097 7.33078474 -7.48405158 5.75333317 -13.62109375 5.84375 C-18.70903615 6.49674795 -22.61229758 8.92479758 -26.1875 12.5 Z " fill="#0049AD" transform="translate(1217.8125,537.875)"/>
<path d="M0 0 C1.29550781 -0.02578125 2.59101562 -0.0515625 3.92578125 -0.078125 C9.44521063 0.40332055 12.57429289 2.16153083 16.5 6 C18.90477982 9.57281573 19.43213186 11.99386442 19.6875 16.25 C16.7175 16.25 13.7475 16.25 10.6875 16.25 C10.39875 15.46625 10.11 14.6825 9.8125 13.875 C8.83837746 11.15328368 8.83837746 11.15328368 6.6875 9.25 C0.60251041 7.90923958 -2.91118059 8.05330076 -8.3125 11.25 C-9.62509581 13.15938769 -9.62509581 13.15938769 -9.3125 15.25 C-7.11604305 18.01938871 -5.228573 18.7703184 -1.8203125 19.49609375 C-0.95019531 19.69396484 -0.08007812 19.89183594 0.81640625 20.09570312 C2.63886643 20.48845237 4.46178144 20.87909727 6.28515625 21.26757812 C11.3316303 22.41924761 14.93978789 23.44220433 18.6875 27.25 C21.0591723 31.31572395 21.37025871 35.64575538 20.6875 40.25 C19.28311995 44.64090977 17.07839628 47.36504217 13.0625 49.625 C6.24443757 52.55967622 -1.03677315 52.98990705 -8.203125 51.109375 C-12.91817851 49.18842727 -16.31981531 46.06272857 -18.75 41.625 C-19.3125 39.25 -19.3125 39.25 -19.3125 35.25 C-16.3425 35.25 -13.3725 35.25 -10.3125 35.25 C-10.065 36.03375 -9.8175 36.8175 -9.5625 37.625 C-8.09095893 40.71523626 -7.43826246 41.06975521 -4.3125 42.25 C-1.63083112 42.60227372 -1.63083112 42.60227372 1.1875 42.5625 C2.59515625 42.58763672 2.59515625 42.58763672 4.03125 42.61328125 C7.11252404 42.19187171 8.47035877 41.40042171 10.6875 39.25 C11.35416667 36.75 11.35416667 36.75 10.6875 34.25 C6.76607429 30.25746035 1.32699425 29.89603491 -3.9375 28.87695312 C-9.45398746 27.71225303 -14.31255503 26.16058274 -17.66796875 21.27734375 C-19.14587588 16.62865406 -19.01509913 11.91405057 -17.125 7.4375 C-12.04413746 1.30542452 -7.77246923 0.09225483 0 0 Z " fill="#0048AE" transform="translate(1113.3125,535.75)"/>
<path d="M0 0 C6.15234375 -0.09765625 6.15234375 -0.09765625 8 0 C9.91931396 1.91931396 9.16015528 5.4868625 9.17578125 8.10546875 C9.19899514 9.57879008 9.2231131 11.0520974 9.24804688 12.52539062 C9.28305592 14.85141147 9.31243867 17.17692256 9.32592773 19.50317383 C9.34148629 21.74623954 9.38175956 23.98780386 9.42578125 26.23046875 C9.42387283 26.9181987 9.42196442 27.60592865 9.41999817 28.3144989 C9.54513329 33.29992027 10.91650851 36.1330192 14 40 C17.02864981 42.37965342 20.24751112 42.35961865 24.0390625 42.25390625 C27.88723508 41.75563689 30.17208999 39.88704644 32.75 37.125 C35.31757533 32.76012195 35.16876557 27.90572739 35.31640625 22.94921875 C35.33718735 22.29041214 35.35796844 21.63160553 35.37937927 20.95283508 C35.44435489 18.86448815 35.50351575 16.77602388 35.5625 14.6875 C35.60573479 13.2649622 35.6493506 11.84243594 35.69335938 10.41992188 C35.79998216 6.94673703 35.90139348 3.47342274 36 0 C38.64 0 41.28 0 44 0 C44.12468733 4.94375668 44.2148439 9.88657507 44.2746582 14.83154297 C44.29962211 16.50943977 44.33360619 18.18722986 44.37719727 19.86474609 C44.84164784 38.21327601 44.84164784 38.21327601 39 46 C34.08573247 50.79440735 27.64950454 51.5892198 21 52 C13.88333356 51.4800609 8.68545603 48.83464804 3.75 43.625 C0.16183778 38.24275666 -0.28420858 33.08417786 -0.1953125 26.7578125 C-0.1924826 25.98944061 -0.18965271 25.22106873 -0.18673706 24.42941284 C-0.17561311 21.99444479 -0.1505236 19.55985538 -0.125 17.125 C-0.11496011 15.46615118 -0.10583603 13.80729654 -0.09765625 12.1484375 C-0.07569937 8.09881421 -0.04122406 4.04947113 0 0 Z " fill="#0049AD" transform="translate(1359,536)"/>
<path d="M0 0 C0 3.3 0 6.6 0 10 C1.07121094 9.98839844 2.14242188 9.97679687 3.24609375 9.96484375 C4.64322743 9.95546701 6.04036299 9.94636669 7.4375 9.9375 C8.14455078 9.92912109 8.85160156 9.92074219 9.58007812 9.91210938 C11.38693559 9.90346412 13.19387603 9.94779989 15 10 C16 11 16 11 16 18 C10.72 18 5.44 18 0 18 C0.08691691 22.39679693 0.19381142 26.79154375 0.3125 31.1875 C0.33505859 32.43337891 0.35761719 33.67925781 0.38085938 34.96289062 C0.4340332 36.7659668 0.4340332 36.7659668 0.48828125 38.60546875 C0.51446533 39.71043701 0.54064941 40.81540527 0.56762695 41.95385742 C1.08876863 45.62539032 2.35537551 48.35537551 5 51 C6.84891946 51.23363881 8.70488031 51.41303635 10.5625 51.5625 C11.57441406 51.64628906 12.58632812 51.73007812 13.62890625 51.81640625 C14.80259766 51.90728516 14.80259766 51.90728516 16 52 C16 54.64 16 57.28 16 60 C3.38750712 60.62198595 3.38750712 60.62198595 -1.625 58.375 C-8.34000456 51.65999544 -9.0368948 45.9174977 -9.09765625 36.84765625 C-9.09106226 34.58591675 -9.07921514 32.32418734 -9.0625 30.0625 C-9.05798828 28.90169922 -9.05347656 27.74089844 -9.04882812 26.54492188 C-9.03710647 23.69656066 -9.0206976 20.84830778 -9 18 C-11.64 18 -14.28 18 -17 18 C-15.51601598 12.81581898 -12.25425041 9.83995403 -8.5 6.1875 C-7.90574219 5.59001953 -7.31148437 4.99253906 -6.69921875 4.37695312 C-2.26724107 0 -2.26724107 0 0 0 Z " fill="#004AAC" transform="translate(1296,526)"/>
</svg>
