<?xml version="1.0" encoding="UTF-8"?>
<svg version="1.1" xmlns="http://www.w3.org/2000/svg" width="2000" height="500">
<path d="M0 0 C4.59969388 3.87026481 9.50745568 8.3079663 12.08984375 13.81640625 C12.57130859 14.71166016 12.57130859 14.71166016 13.0625 15.625 C15.61769921 16.43671228 15.61769921 16.43671228 18.0625 16.625 C18.32804687 16.04363281 18.59359375 15.46226562 18.8671875 14.86328125 C26.00080766 1.50522781 39.06780666 -5.23752057 52.875 -9.625 C73.68151043 -15.93156962 98.69074352 -14.35110539 118.1875 -4.5625 C132.86520125 4.38953451 140.78377839 17.57426285 144.92817688 34.07077026 C147.83940293 49.11178197 147.45177534 64.27631543 147.36668181 79.52788019 C147.34769405 83.51563096 147.34614743 87.50339142 147.34260559 91.49118042 C147.33334908 99.01299644 147.30882373 106.53467878 147.27855712 114.05643642 C147.2448117 122.63224607 147.22847692 131.20806272 147.21347082 139.78392243 C147.18226698 157.39770572 147.12733691 175.0113062 147.0625 192.625 C128.5825 192.625 110.1025 192.625 91.0625 192.625 C91.02511719 183.61960937 90.98773437 174.61421875 90.94921875 165.3359375 C90.91892308 159.61196411 90.88788454 153.88801049 90.85351562 148.1640625 C90.79916736 139.08986255 90.74774886 130.01571744 90.71606445 120.94140625 C90.69296797 114.33065837 90.65944201 107.72005624 90.61379844 101.10942423 C90.59002183 97.61462911 90.5711919 94.11997693 90.56488609 90.625103 C90.5576208 86.70742903 90.52705228 82.79011054 90.49487305 78.87255859 C90.49630814 77.73534866 90.49774323 76.59813873 90.4992218 75.4264679 C90.35909217 63.26844939 88.80744419 49.20713867 80.39453125 39.75 C74.87746349 34.68355367 68.52816006 32.74678891 61.0625 32.625 C50.79700239 33.33477832 41.57713427 35.60824928 34.25 43.1875 C21.19406464 59.65333848 22.5988066 82.15079044 22.55078125 101.90234375 C22.53391005 104.52650276 22.51575657 107.1506538 22.49638367 109.77479553 C22.4530273 115.93664784 22.42429229 122.09847434 22.40106028 128.26043183 C22.37116164 135.97774141 22.32130012 143.69490708 22.27148438 151.41210938 C22.18289269 165.14969522 22.12404735 178.88720737 22.0625 192.625 C3.5825 192.625 -14.8975 192.625 -33.9375 192.625 C-33.98648438 183.82457031 -34.03546875 175.02414062 -34.0859375 165.95703125 C-34.12585058 159.65343094 -34.16697221 153.34984753 -34.20983124 147.04626751 C-34.26511141 138.89227689 -34.31759346 130.73830068 -34.359375 122.58422852 C-34.39247872 116.12550627 -34.43240898 109.66686707 -34.48029006 103.20823687 C-34.50537392 99.79342388 -34.52720685 96.37866466 -34.54084396 92.96378517 C-34.55784868 89.13695168 -34.58691731 85.31037853 -34.61865234 81.48364258 C-34.62081253 80.37088959 -34.62297272 79.2581366 -34.62519836 78.11166382 C-34.77149402 64.20447044 -35.92466192 48.7218677 -46.0234375 38.21484375 C-49.0987188 35.66047745 -52.06136276 34.4831317 -55.9375 33.625 C-56.61425781 33.47289062 -57.29101562 33.32078125 -57.98828125 33.1640625 C-67.71783779 31.56322139 -77.60693968 33.36729273 -85.7890625 38.875 C-97.59489342 48.49138592 -100.63780277 64.6579028 -102.20158386 79.05657959 C-103.21307262 90.49405617 -103.16666457 101.95194227 -103.25390625 113.42578125 C-103.27451367 115.7164901 -103.29551103 118.00719546 -103.31687927 120.29789734 C-103.37170919 126.28674478 -103.42128853 132.27562427 -103.46972656 138.26452637 C-103.52913041 145.47179367 -103.59514037 152.67900321 -103.66002655 159.88622284 C-103.7575433 170.79911287 -103.84673571 181.71204232 -103.9375 192.625 C-122.4175 192.625 -140.8975 192.625 -159.9375 192.625 C-159.96004429 166.43512484 -159.97847757 140.24525749 -159.98931217 114.0553751 C-159.99447582 101.89588131 -160.00151983 89.73639396 -160.01293945 77.5769043 C-160.02288419 66.98284032 -160.02935292 56.388781 -160.03158849 45.79471248 C-160.03289596 40.18150597 -160.03598406 34.5683128 -160.04323006 28.95511055 C-160.04998696 23.67833464 -160.05211764 18.40157765 -160.05060768 13.12479782 C-160.05088416 11.18208527 -160.05289123 9.23937212 -160.05670547 7.29666328 C-160.06163758 4.65641574 -160.06050009 2.01624084 -160.05775452 -0.62400818 C-160.06066736 -1.40317594 -160.0635802 -2.18234371 -160.06658131 -2.98512262 C-160.05162121 -8.26087879 -160.05162121 -8.26087879 -158.9375 -9.375 C-155.83498799 -9.46374135 -152.7548188 -9.49018455 -149.65234375 -9.47265625 C-148.72152481 -9.4712413 -147.79070587 -9.46982635 -146.8316803 -9.46836853 C-143.84608809 -9.46275172 -140.86056971 -9.4501964 -137.875 -9.4375 C-135.85612087 -9.43248716 -133.83724057 -9.42792388 -131.81835938 -9.42382812 C-126.85804428 -9.41277683 -121.89778468 -9.39550095 -116.9375 -9.375 C-113.70703125 -0.875 -113.70703125 -0.875 -112.55078125 3.125 C-112.2269043 4.23681641 -112.2269043 4.23681641 -111.89648438 5.37109375 C-111.57647461 6.48677734 -111.57647461 6.48677734 -111.25 7.625 C-111.02505859 8.39972656 -110.80011719 9.17445313 -110.56835938 9.97265625 C-110.02196633 11.85596846 -109.47933106 13.74037024 -108.9375 15.625 C-105.40018418 14.44589473 -104.86922631 13.4699371 -102.75 10.5 C-93.1791584 -2.04931928 -79.05517956 -9.56645402 -63.49511719 -12.08203125 C-42.01838193 -14.54213838 -17.95614891 -13.30760274 0 0 Z " fill="#0061BD" transform="translate(1021.9375,226.375)"/>
<path d="M0 0 C0 0.66 0 1.32 0 2 C0.88558594 2.27070313 1.77117187 2.54140625 2.68359375 2.8203125 C13.06438682 6.51289142 20.76372951 14.19574072 28.55322266 21.66796875 C29.90116527 22.909004 31.33152957 24.05882931 32.765625 25.19921875 C35.59057892 27.47597357 37.06346367 29.92432465 39 33 C40.79508225 35.51877533 42.60098334 38.02930666 44.4140625 40.53515625 C46 43 46 43 47.0234375 45.62109375 C47.82455351 48.01019968 47.82455351 48.01019968 49.43676758 49.43017578 C54.74904947 54.76485836 56.3502203 63.02357129 58.1875 70.0625 C58.44724609 71.01705078 58.70699219 71.97160156 58.97460938 72.95507812 C64.31796301 92.96158826 64.70309134 115.03918032 59 135 C58.34 135 57.68 135 57 135 C56.938125 136.051875 56.87625 137.10375 56.8125 138.1875 C55.63858252 147.49616963 51.41355459 156.42102358 46 164 C45.37867188 164.87398437 44.75734375 165.74796875 44.1171875 166.6484375 C42.74707164 168.54992909 41.36550564 170.44322227 39.97265625 172.328125 C38.77493701 173.95038235 37.59113956 175.58321239 36.43359375 177.234375 C32.84846915 182.27504065 28.73597909 186.05335076 24 190 C21.94913245 191.8681539 19.89946645 193.73726852 17.859375 195.6171875 C15.88600922 197.08477466 14.40356944 197.58522474 12 198 C12 198.66 12 199.32 12 200 C-0.57913912 207.41184192 -12.59286324 213.34973035 -27.02734375 216.32421875 C-30.05075858 216.95927251 -30.05075858 216.95927251 -33.10546875 218.04296875 C-45.21241225 222.04593927 -59.79488934 220.37234463 -72.3125 219.125 C-73.13097412 219.04660889 -73.94944824 218.96821777 -74.79272461 218.88745117 C-78.54407978 218.47580852 -80.81134152 218.12577232 -84 216 C-85.65870706 215.50238788 -87.31919347 215.00957281 -88.98999023 214.55419922 C-96.58094769 212.46122297 -103.46429443 209.52838788 -110.4375 205.875 C-111.27216797 205.44316406 -112.10683594 205.01132812 -112.96679688 204.56640625 C-118.87168015 201.38495955 -118.87168015 201.38495955 -120 198 C-121.33280312 197.66455292 -122.66626115 197.33170707 -124 197 C-132.95285364 190.68365602 -142.57164828 182.67662698 -148 173 C-148 172.34 -148 171.68 -148 171 C-148.66 171 -149.32 171 -150 171 C-151.33203125 169.09375 -151.33203125 169.09375 -152.8125 166.5 C-154.9231923 162.80404092 -154.9231923 162.80404092 -157.2019043 159.21166992 C-160.58656336 154.12736073 -162.50211335 149.16286956 -164.1875 143.3125 C-164.67935751 141.66227309 -165.17280157 140.01251808 -165.66796875 138.36328125 C-165.89540771 137.59733643 -166.12284668 136.8313916 -166.35717773 136.04223633 C-167.01212313 133.86357223 -167.01212313 133.86357223 -168.109375 131.28125 C-170.00603642 126.42313479 -170.36897143 121.14614676 -171 116 C-171.14953125 114.80117188 -171.2990625 113.60234375 -171.453125 112.3671875 C-173.4588601 91.1325572 -169.27664898 65.6166174 -157.13793945 47.75561523 C-155.92195449 45.87959124 -154.98909091 43.97004683 -154.0625 41.9375 C-152.33318849 38.3673085 -150.1660761 35.65198827 -147.5078125 32.7265625 C-145.99745085 30.99708102 -144.72332384 29.21293146 -143.4375 27.3125 C-141.32094611 24.27334569 -138.98514495 22.21972317 -136 20 C-135.41734375 19.40445313 -134.8346875 18.80890625 -134.234375 18.1953125 C-127.17521335 11.25956276 -118.83349431 5.41674715 -110 1 C-108.94039062 0.40832031 -108.94039062 0.40832031 -107.859375 -0.1953125 C-96.29407922 -6.45001328 -83.0491514 -10.56048043 -70 -12 C-69.07960938 -12.10957031 -68.15921875 -12.21914062 -67.2109375 -12.33203125 C-43.13273 -14.87550387 -21.95738582 -9.30072675 0 0 Z M-84 51 C-85.07378906 51.51820313 -86.14757812 52.03640625 -87.25390625 52.5703125 C-90.13125643 54.06833549 -91.79276236 55.65035994 -94 58 C-94.825 58.61875 -95.65 59.2375 -96.5 59.875 C-99.35568979 62.30233632 -101.00167609 64.84135898 -103 68 C-103.66 68.78375 -104.32 69.5675 -105 70.375 C-113.66972556 81.7540148 -115.8196233 95.00785946 -115 109 C-113.91652812 116.10630086 -112.03631871 122.66772139 -108.90234375 129.13671875 C-108 131 -108 131 -107 133.8125 C-105.77173579 136.49932795 -104.17573794 138.02205642 -102 140 C-99.67722054 142.15072172 -99.03985359 142.88043924 -98 146 C-96.02866014 147.37535339 -94.02318078 148.70211044 -92 150 C-91.13375 150.804375 -90.2675 151.60875 -89.375 152.4375 C-81.96383738 158.67746853 -72.00889718 160.67920184 -62.73828125 162.421875 C-60 163 -60 163 -59 164 C-57.50261876 164.0979057 -56.00057108 164.12974864 -54.5 164.125 C-53.6853125 164.12757813 -52.870625 164.13015625 -52.03125 164.1328125 C-50.00469623 164.2245178 -50.00469623 164.2245178 -49 163 C-46.92239375 162.55565647 -44.83746951 162.14542374 -42.75 161.75 C-33.26514342 159.75420791 -23.49242799 157.67286944 -17 150 C-16.01 149.38125 -15.02 148.7625 -14 148.125 C-10.86145865 145.90186655 -9.23530873 143.86135265 -7.17578125 140.68359375 C-6 139 -6 139 -4.51171875 137.609375 C-1.27562631 134.16423266 0.17821042 129.30390418 2 125 C2.32613281 124.24460937 2.65226562 123.48921875 2.98828125 122.7109375 C4.64810559 118.63610807 5.20841739 115.37676513 5 111 C5.33 110.34 5.66 109.68 6 109 C6.0969531 106.6474616 6.1297905 104.2920305 6.125 101.9375 C6.12757813 100.66777344 6.13015625 99.39804687 6.1328125 98.08984375 C6.35435584 95.12899299 6.35435584 95.12899299 5 94 C5.04125 93.319375 5.0825 92.63875 5.125 91.9375 C4.73337861 82.73439739 -1.38838813 71.176984 -8 65 C-8.804375 63.989375 -9.60875 62.97875 -10.4375 61.9375 C-12.88066688 59.13679651 -14.81457375 57.79690712 -18 56 C-18.59167969 55.36449219 -19.18335938 54.72898437 -19.79296875 54.07421875 C-22.32042379 51.69885835 -24.5308027 50.70099324 -27.75 49.4375 C-28.8121875 49.01855469 -29.874375 48.59960938 -30.96875 48.16796875 C-31.9690625 47.78253906 -32.969375 47.39710938 -34 47 C-34.7528125 46.68675781 -35.505625 46.37351563 -36.28125 46.05078125 C-52.34908777 39.515252 -69.14539269 43.41836276 -84 51 Z " fill="#34C063" transform="translate(351,199)"/>
<path d="M0 0 C0 0.66 0 1.32 0 2 C1.07894531 2.39832031 1.07894531 2.39832031 2.1796875 2.8046875 C10.21437457 6.20997039 17.26495201 11.87341407 24.24609375 17.02734375 C27.83633154 19.59907437 31.55424923 21.93162309 35.296875 24.2734375 C38.87629454 26.55971415 42.33706994 28.99797186 45.8046875 31.44921875 C49.39004524 33.98193587 53.02542554 36.40564684 56.7734375 38.69140625 C57.77632813 39.30886719 58.77921875 39.92632812 59.8125 40.5625 C61.24529297 41.43068359 61.24529297 41.43068359 62.70703125 42.31640625 C65 44 65 44 66 47 C66.72574219 47.10441406 67.45148438 47.20882812 68.19921875 47.31640625 C71.25984191 48.06342027 73.21471478 49.17548648 75.8125 50.9375 C76.60269531 51.46214844 77.39289063 51.98679688 78.20703125 52.52734375 C78.79871094 53.01332031 79.39039063 53.49929687 80 54 C80 54.66 80 55.32 80 56 C80.66 56.226875 81.32 56.45375 82 56.6875 C85.88658628 58.3878815 89.63679817 60.39623084 93 63 C93 63.66 93 64.32 93 65 C94.2375 65.309375 94.2375 65.309375 95.5 65.625 C99.19938813 67.07833105 101.64322104 68.86798965 104.73828125 71.296875 C107.20739484 73.15617297 109.75562232 74.79715629 112.375 76.4375 C116.92987308 79.29062188 121.34080624 82.29408875 125.7109375 85.421875 C128.03641915 87.07495392 128.03641915 87.07495392 130.7890625 88.578125 C131.51867187 89.04734375 132.24828125 89.5165625 133 90 C133 90.66 133 91.32 133 92 C133.66 92.226875 134.32 92.45375 135 92.6875 C138.88658628 94.3878815 142.63679817 96.39623084 146 99 C146 99.66 146 100.32 146 101 C146.56074219 101.09667969 147.12148438 101.19335938 147.69921875 101.29296875 C150.53608978 102.16474066 152.42392146 103.55586035 154.8125 105.3125 C157.73187949 107.41308143 160.60691088 109.43745038 163.75 111.1875 C172.54666667 116.09333333 172.54666667 116.09333333 174 119 C174.763125 119.45375 175.52625 119.9075 176.3125 120.375 C179.00623747 122.00377149 180.93745038 123.63188747 183 126 C183 126.66 183 127.32 183 128 C183.99 128.33 184.98 128.66 186 129 C187.3515625 131.109375 187.3515625 131.109375 188.625 133.75 C189.05039062 134.61109375 189.47578125 135.4721875 189.9140625 136.359375 C191.77046748 140.87351084 192.12409967 145.03825113 192.11352539 149.8918457 C192.11344986 151.05267166 192.11337433 152.21349762 192.11329651 153.40950012 C192.10813522 154.65237289 192.10297394 155.89524567 192.09765625 157.17578125 C192.09553383 159.09622505 192.09553383 159.09622505 192.09336853 161.0554657 C192.08956397 164.4469704 192.07975143 167.83843177 192.06866455 171.22991943 C192.05840597 174.69559137 192.05386141 178.16127036 192.04882812 181.62695312 C192.03780755 188.41798748 192.0210757 195.20898981 192 202 C190.0625 201.6875 190.0625 201.6875 188 201 C187.67 200.01 187.34 199.02 187 198 C185.00148974 197.32888065 183.00115639 196.6631874 181 196 C178.57335417 194.52705471 176.32710895 192.83404482 174.0625 191.125 C169.51864262 187.73346083 164.97451845 184.7318556 160 182 C160 181.34 160 180.68 160 180 C159.15308594 179.77054688 158.30617188 179.54109375 157.43359375 179.3046875 C153.42014609 177.77966871 150.46485506 175.6926739 147.0625 173.125 C142.51864262 169.73346083 137.97451845 166.7318556 133 164 C133 163.34 133 162.68 133 162 C132.2575 161.72414062 131.515 161.44828125 130.75 161.1640625 C128.22293467 160.09436723 126.23915506 158.9406592 124 157.375 C118.998644 153.94501599 113.82971357 150.8427456 108.625 147.734375 C106 146 106 146 105 144 C103.71718489 143.21979127 102.3973631 142.49987238 101.0625 141.8125 C95.73649507 138.94595595 90.91369766 135.51219627 86 132 C84.00628175 130.65729179 82.0065438 129.32346506 80 128 C78.68707039 127.12564475 77.37462466 126.25056274 76.0625 125.375 C73.19002959 123.45840235 70.31526032 121.54535989 67.4375 119.63671875 C61.83503839 115.91674138 56.23884331 112.19933641 50.75 108.3125 C46.47291353 105.29087672 42.08517757 102.4765551 37.65625 99.68359375 C32.16812559 96.20509137 26.79777322 92.57365097 21.5 88.8125 C16.18583399 85.06767364 10.7220039 81.56968758 5.25341797 78.05688477 C1.32327196 75.52537499 -2.56095647 72.95516825 -6.375 70.25 C-7.91552747 69.16504732 -9.45722079 68.08174836 -11 67 C-11.94746094 66.33484375 -12.89492187 65.6696875 -13.87109375 64.984375 C-14.84175781 64.32953125 -15.81242188 63.6746875 -16.8125 63 C-17.68519531 62.401875 -18.55789062 61.80375 -19.45703125 61.1875 C-21.90715866 59.81175548 -21.90715866 59.81175548 -24.48046875 60.0703125 C-27.60862035 61.22457619 -29.85554869 62.84709211 -32.5 64.875 C-41.8597786 72 -41.8597786 72 -45 72 C-45 72.66 -45 73.32 -45 74 C-46.3894043 75.08154297 -46.3894043 75.08154297 -48.32421875 76.2421875 C-49.37319336 76.88220703 -49.37319336 76.88220703 -50.44335938 77.53515625 C-51.18392578 77.97730469 -51.92449219 78.41945313 -52.6875 78.875 C-58.42011029 82.31765359 -58.42011029 82.31765359 -63.81640625 86.25390625 C-66 88 -66 88 -69.25 89.0625 C-70.1575 89.371875 -71.065 89.68125 -72 90 C-72.33 90.99 -72.66 91.98 -73 93 C-75.40625 94.61328125 -75.40625 94.61328125 -78.5 96.3125 C-83.15574194 98.92547288 -87.59917062 101.66801016 -91.96484375 104.73828125 C-94.22593793 106.14007284 -96.50942061 107.07740277 -99 108 C-99 108.66 -99 109.32 -99 110 C-101.16023576 111.52504854 -103.31228156 112.9321734 -105.5625 114.3125 C-106.85641956 115.12087592 -108.14940026 115.93075669 -109.44140625 116.7421875 C-110.06160645 117.13116211 -110.68180664 117.52013672 -111.32080078 117.92089844 C-113.27849735 119.17897038 -115.145252 120.53277022 -117 121.9375 C-119.97478273 123.98266313 -122.6089732 124.86965773 -126 126 C-126.33 126.99 -126.66 127.98 -127 129 C-129.44140625 130.61328125 -129.44140625 130.61328125 -132.5625 132.3125 C-136.38067603 134.45031623 -139.94479681 136.5949798 -143.375 139.3125 C-146.44281714 141.73344964 -149.26280473 142.81503564 -153 144 C-153.33 144.99 -153.66 145.98 -154 147 C-156.625 148.83203125 -156.625 148.83203125 -160 150.8125 C-161.19214057 151.5235098 -162.38354458 152.235756 -163.57421875 152.94921875 C-164.70472656 153.62597656 -165.83523437 154.30273438 -167 155 C-171.44749364 157.83266993 -175.7574432 160.78585274 -179.9375 164 C-183.62335029 166.80826689 -187.4972862 169.15307489 -191.48828125 171.5 C-196.825504 174.68739275 -201.94138233 178.15706532 -206.875 181.9375 C-210.84587486 184.96104885 -215.01244776 187.60884616 -219.2421875 190.25390625 C-222.62752527 192.39731416 -225.92899666 194.65245158 -229.22265625 196.93359375 C-231 198 -231 198 -233 198 C-233.33 198.99 -233.66 199.98 -234 201 C-236 201.75 -236 201.75 -238 202 C-239.61476581 200.38523419 -239.13545528 198.62772814 -239.14526367 196.39526367 C-239.15164352 195.41301315 -239.15802338 194.43076263 -239.16459656 193.41874695 C-239.16570938 192.34599014 -239.1668222 191.27323334 -239.16796875 190.16796875 C-239.17296135 188.51478386 -239.17296135 188.51478386 -239.17805481 186.82820129 C-239.18313318 184.48353494 -239.18546286 182.13886131 -239.18530273 179.79418945 C-239.18746745 176.24092237 -239.20555266 172.68797679 -239.22460938 169.13476562 C-239.22754763 166.85416772 -239.22952953 164.57356835 -239.23046875 162.29296875 C-239.23765427 161.24247849 -239.24483978 160.19198822 -239.25224304 159.10966492 C-239.20794976 144.4693227 -236.98272696 133.47634511 -226.90625 122.59375 C-222.25741662 118.44479118 -217.03249663 115.36732691 -211.671875 112.2265625 C-208.55149722 110.3893196 -205.79436458 108.31026369 -203 106 C-201.62210852 105.05657881 -200.22751085 104.13677662 -198.8125 103.25 C-198.13832031 102.82203125 -197.46414062 102.3940625 -196.76953125 101.953125 C-195 101 -195 101 -193 101 C-193 100.34 -193 99.68 -193 99 C-190.6640625 97.2734375 -190.6640625 97.2734375 -187.625 95.375 C-186.62726563 94.74335937 -185.62953125 94.11171875 -184.6015625 93.4609375 C-182 92 -182 92 -180 92 C-180 91.34 -180 90.68 -180 90 C-177.69921875 88.2734375 -177.69921875 88.2734375 -174.6875 86.375 C-173.70136719 85.74335937 -172.71523437 85.11171875 -171.69921875 84.4609375 C-169 83 -169 83 -166 83 C-165.505 81.515 -165.505 81.515 -165 80 C-162.890625 78.53515625 -162.890625 78.53515625 -160.25 77.0625 C-156.52909536 74.9736688 -153.31721978 72.6796916 -150 70 C-148.26656984 68.84963271 -146.51592639 67.72483135 -144.75 66.625 C-135.36817609 60.72089052 -135.36817609 60.72089052 -126.375 54.25 C-122.4633555 51.27082833 -118.40263811 48.53794305 -114.3125 45.8125 C-113.67038574 45.38420898 -113.02827148 44.95591797 -112.36669922 44.51464844 C-102.53852175 38 -102.53852175 38 -100 38 C-99.67 37.01 -99.34 36.02 -99 35 C-96.3046875 33.1328125 -96.3046875 33.1328125 -92.875 31.125 C-89.16155839 28.92612542 -85.50552002 26.73641022 -82.0625 24.125 C-79.05434319 22.03770752 -76.43598762 21.14532921 -73 20 C-72.67 19.01 -72.34 18.02 -72 17 C-69.375 15.16796875 -69.375 15.16796875 -66 13.1875 C-64.80785943 12.4764902 -63.61645542 11.764244 -62.42578125 11.05078125 C-61.29527344 10.37402344 -60.16476563 9.69726562 -59 9 C-54.4785787 6.12024452 -50.09123155 3.10423136 -45.8125 -0.125 C-45.15636719 -0.61871094 -44.50023437 -1.11242188 -43.82421875 -1.62109375 C-42.25551338 -2.80686034 -40.68994789 -3.99677878 -39.125 -5.1875 C-24.08074444 -13.91316823 -13.50823919 -8.29600298 0 0 Z " fill="#1792DB" transform="translate(261,28)"/>
<path d="M0 0 C18.48 0 36.96 0 56 0 C56.08021762 19.29233729 56.08021762 19.29233729 56.09765625 27.66992188 C56.10950058 33.33264019 56.12333603 38.9952924 56.15087891 44.65795898 C56.34106813 84.773945 56.34106813 84.773945 54 104 C57.19263429 100.83758717 60.1762155 97.62990868 63.0625 94.1875 C73.77523041 82.26670049 88.29837822 75.82083335 104.20361328 74.79296875 C127.05300219 74.16399632 149.62119655 75.5360992 167.53515625 91.4296875 C183.27110029 107.83896037 187.5253371 128.95493106 187.34057617 151.03515625 C187.33972672 152.45621726 187.34021122 153.87727958 187.34190369 155.29833984 C187.34275268 159.0990441 187.32530824 162.89945526 187.30418181 166.70009232 C187.28522873 170.69319358 187.28365009 174.68630405 187.28010559 178.67944336 C187.27083917 186.21549207 187.24629987 193.75140778 187.21605712 201.28739834 C187.18234323 209.87767172 187.16598471 218.46795198 187.15097082 227.05827522 C187.11974443 244.70560718 187.06480138 262.35275719 187 280 C168.52 280 150.04 280 131 280 C130.96261719 270.83863281 130.92523437 261.67726563 130.88671875 252.23828125 C130.85642661 246.41860493 130.8253907 240.59894814 130.79101562 234.77929688 C130.73664613 225.55136938 130.68522837 216.32349607 130.65356445 207.09545898 C130.63048391 200.37302057 130.59697518 193.65072586 130.55129844 186.92840165 C130.5275007 183.37383487 130.50868441 179.81940922 130.50238609 176.26476479 C130.49513308 172.28218208 130.46458283 168.30008614 130.43237305 164.31762695 C130.43380814 163.15812027 130.43524323 161.99861359 130.4367218 160.80397034 C130.28950094 147.84924363 127.9865323 137.31687282 119.75 127.25 C112.57571902 121.38013374 104.82934036 119.67148801 95.7421875 120.18359375 C85.50385839 121.27493213 75.90445645 124.00017671 69.0625 132.125 C55.52791035 151.88352503 56.85535376 177.0517574 56.68359375 199.921875 C56.66299073 202.23643334 56.64199346 204.55098819 56.62062073 206.86553955 C56.56574548 212.92180543 56.51618559 218.9781033 56.46777344 225.03442383 C56.40841191 232.32009332 56.34237631 239.60570507 56.27747345 246.8913269 C56.17989942 257.92751565 56.09074599 268.96374349 56 280 C37.52 280 19.04 280 0 280 C0 187.6 0 95.2 0 0 Z " fill="#0061BD" transform="translate(1401,139)"/>
<path d="M0 0 C13.39146861 12.26280269 17.84749198 29.92348531 18.96484375 47.3828125 C19.29370873 57.27466912 19.20566373 67.17723435 19.16763163 77.07325935 C19.15498957 80.926233 19.15394329 84.77921096 19.15158081 88.63220215 C19.14540512 95.90259676 19.12904823 103.17293005 19.10888183 110.44329786 C19.08639984 118.73128973 19.07549871 127.01928477 19.06549096 135.30729961 C19.04467775 152.33251197 19.00805147 169.35764001 18.96484375 186.3828125 C5.76484375 186.3828125 -7.43515625 186.3828125 -21.03515625 186.3828125 C-24.33515625 178.1328125 -27.63515625 169.8828125 -31.03515625 161.3828125 C-31.69515625 161.3828125 -32.35515625 161.3828125 -33.03515625 161.3828125 C-34.39709428 162.81658901 -35.69921872 164.30738582 -36.97265625 165.8203125 C-49.439374 179.87768004 -65.13284221 188.8006462 -84.03515625 190.3828125 C-100.61867814 191.14120974 -117.04098469 191.43978993 -132.03515625 183.3828125 C-132.85628906 182.95097656 -133.67742187 182.51914062 -134.5234375 182.07421875 C-148.17007429 174.43293047 -155.4253985 162.931018 -159.69140625 148.1015625 C-164.25489591 129.04228217 -162.96474735 108.65290331 -152.78515625 91.6328125 C-141.85626181 75.32068344 -122.83130839 68.94779013 -104.41015625 65.1328125 C-82.23155786 60.88852286 -59.53658246 60.87314387 -37.03515625 60.3828125 C-37.16011974 57.84314667 -37.2942596 55.30451008 -37.43359375 52.765625 C-37.46767334 52.0538208 -37.50175293 51.3420166 -37.53686523 50.60864258 C-37.98062484 42.79578409 -39.37402547 35.38660715 -45.34765625 29.8828125 C-55.92222134 22.02548041 -69.49750815 22.19628173 -82.07421875 23.84375 C-95.18116373 26.07639594 -108.00134652 30.292093 -120.08984375 35.81640625 C-122.61750597 36.55237216 -123.60789225 36.4345039 -126.03515625 35.3828125 C-127.72680664 32.84179688 -127.72680664 32.84179688 -129.3828125 29.4765625 C-129.68078232 28.87783325 -129.97875214 28.279104 -130.28575134 27.66223145 C-130.91496936 26.39102894 -131.53741297 25.11645416 -132.15356445 23.83886719 C-133.08412961 21.9108382 -134.03500134 19.99403117 -134.99023438 18.078125 C-138.16607248 11.64668384 -140.98949127 5.27662854 -143.03515625 -1.6171875 C-101.38943738 -22.94484353 -38.97096222 -30.9673289 0 0 Z M-96.91015625 105.5703125 C-103.71490962 113.08288892 -104.47905714 121.01355937 -104.46875 130.8671875 C-103.68407686 137.22940215 -100.92645132 141.17612829 -96.03515625 145.05859375 C-87.85216774 150.47662716 -78.31420496 150.31765846 -68.88671875 148.9140625 C-58.61057278 146.69504898 -49.61496638 141.69969251 -43.03515625 133.3828125 C-37.34294655 124.35379022 -36.75559811 115.90176486 -36.91015625 105.4453125 C-36.91917969 104.28451172 -36.92820312 103.12371094 -36.9375 101.92773438 C-36.96094463 99.07921142 -36.99376103 96.23112172 -37.03515625 93.3828125 C-68.98796406 92.43483312 -68.98796406 92.43483312 -96.91015625 105.5703125 Z " fill="#0061BD" transform="translate(1350.03515625,232.6171875)"/>
<path d="M0 0 C18.48 0 36.96 0 56 0 C56.03738281 9.23355469 56.07476563 18.46710938 56.11328125 27.98046875 C56.1435731 33.84571788 56.17460879 39.71094761 56.20898438 45.57617188 C56.26335561 54.8765279 56.31477331 64.17683014 56.34643555 73.47729492 C56.36951478 80.2524704 56.40302211 87.02750326 56.44870156 93.8025654 C56.47250103 97.3850777 56.4913162 100.96744993 56.49761391 104.55003929 C56.5048659 108.56375351 56.53541471 112.57698454 56.56762695 116.59057617 C56.56619186 117.75943359 56.56475677 118.92829102 56.5632782 120.13256836 C56.68708514 131.11006729 58.02088676 143.07824699 65 152 C71.56952125 158.29805343 78.97782572 160.88197737 88 161 C99.545298 160.15815535 110.00712416 157.85748981 118 149 C132.12939327 130.89671487 130.30462959 103.64249941 130.4140625 81.93359375 C130.43281379 79.55891782 130.45239 77.18424827 130.4727478 74.80958557 C130.52365706 68.61695148 130.56350098 62.42429588 130.60089111 56.23156738 C130.6483012 48.77053932 130.70971926 41.30961449 130.76873779 33.84867096 C130.85644639 22.56582327 130.92657071 11.28299028 131 0 C149.48 0 167.96 0 187 0 C187 66.66 187 133.32 187 202 C172.48 202 157.96 202 143 202 C140.69 194.08 138.38 186.16 136 178 C132.64820682 179.11726439 131.98292595 179.95449967 129.8125 182.625 C117.93333055 196.41858106 102.10522433 204.10063637 84 206 C62.15167133 207.37655642 39.25654307 205.31932258 21.375 191.375 C9.43869365 180.35687107 3.9127183 166.6460206 1 151 C0.82541763 150.06997665 0.65083527 149.13995331 0.47096252 148.18174744 C-0.36852381 142.15895825 -0.13044421 136.05381489 -0.11352539 129.98657227 C-0.11324301 128.5668386 -0.11340225 127.14710479 -0.1139679 125.72737122 C-0.11425389 121.88905226 -0.10838923 118.05076479 -0.10139394 114.21245313 C-0.09512736 110.19526153 -0.09455399 106.17806915 -0.09336853 102.16087341 C-0.09026494 94.56083302 -0.08206469 86.96080707 -0.07201904 79.36077303 C-0.06082767 70.70539647 -0.05533984 62.05001922 -0.05032361 53.39463723 C-0.03988124 35.59641497 -0.02154787 17.79821251 0 0 Z " fill="#0061BD" transform="translate(642,217)"/>
<path d="M0 0 C2.01882674 -0.00961117 4.03659105 -0.04065578 6.05517578 -0.07226562 C28.8975909 -0.16158103 51.90816196 6.70064877 69.05126953 22.24023438 C69.80923828 22.91699219 70.56720703 23.59375 71.34814453 24.29101562 C92.82446177 44.54540447 100.10205333 73.01706271 101.01611328 101.56054688 C101.47554192 129.42610282 95.73877638 160.42902318 75.98095703 181.41601562 C71.87470784 185.29783419 67.55855927 188.83513707 63.05126953 192.24023438 C62.23142578 192.86027344 61.41158203 193.4803125 60.56689453 194.11914062 C38.14672908 209.68096354 7.0223628 212.6278042 -19.26123047 207.99023438 C-35.73144678 204.72112828 -50.2395517 198.2669816 -62.94873047 187.24023438 C-63.77373047 186.60730469 -64.59873047 185.974375 -65.44873047 185.32226562 C-83.62117779 170.18802434 -92.6306804 144.13097879 -94.94873047 121.24023438 C-95.08279297 119.94472656 -95.21685547 118.64921875 -95.35498047 117.31445312 C-97.78134963 89.38224579 -93.74005153 56.29932243 -75.68847656 33.65966797 C-55.96468671 10.40538379 -30.33290683 0.08685156 0 0 Z M-26.70263672 56.31445312 C-28.26901479 58.56391336 -29.6370043 60.83406183 -30.94873047 63.24023438 C-31.32771484 63.92859375 -31.70669922 64.61695313 -32.09716797 65.32617188 C-42.68004269 86.73063279 -40.89747646 117.06763103 -33.94873047 139.24023438 C-30.43345932 148.80679371 -24.61846695 156.84497794 -15.26123047 161.24023438 C-5.01265492 165.51171015 8.3422526 166.0627673 18.87939453 162.27929688 C28.75009538 157.55698316 35.05180917 149.8372016 38.87597656 139.73657227 C42.78725248 128.10105453 43.5933464 116.59345312 43.48876953 104.42773438 C43.48606049 103.68587891 43.48335144 102.94402344 43.4805603 102.1796875 C43.39225313 86.21478217 42.49096927 69.27663406 31.73876953 56.49023438 C30.85189453 55.74773437 29.96501953 55.00523437 29.05126953 54.24023438 C28.47634766 53.7375 27.90142578 53.23476563 27.30908203 52.71679688 C12.78421547 40.7585734 -14.15479387 41.47502205 -26.70263672 56.31445312 Z " fill="#0061BD" transform="translate(1875.94873046875,213.759765625)"/>
<path d="M0 0 C1.17046875 0.00064453 2.3409375 0.00128906 3.546875 0.00195312 C12.94586846 0.05045711 12.94586846 0.05045711 16.75 1.1875 C17.01602492 10.36086175 16.29098284 19.41973063 15.52319336 28.55078125 C15.31122552 31.07769337 15.1072806 33.60516441 14.90429688 36.1328125 C14.77130304 37.7526428 14.6378558 39.37243595 14.50390625 40.9921875 C14.4434462 41.74120331 14.38298615 42.49021912 14.32069397 43.26193237 C14.00556191 46.96495228 13.57599101 50.5620451 12.75 54.1875 C12.02272705 54.02741455 11.2954541 53.8673291 10.54614258 53.70239258 C-5.80685335 50.69108826 -24.53705776 52.87812552 -38.85546875 61.5078125 C-48.7407484 68.44202171 -54.74505075 78.34592175 -57.25 90.1875 C-58.19114959 96.45868827 -58.41779624 102.58198055 -58.45532227 108.91796875 C-58.46522186 109.96276901 -58.47512146 111.00756927 -58.48532104 112.08403015 C-58.51673881 115.51433091 -58.54161501 118.94464549 -58.56640625 122.375 C-58.58699283 124.76253607 -58.60798974 127.15006864 -58.62937927 129.53759766 C-58.68442396 135.80435334 -58.73391052 142.07114096 -58.78222656 148.33795166 C-58.84143074 155.86631238 -58.90756138 163.39461507 -58.97252655 170.92292786 C-59.07031441 182.3444163 -59.1593221 193.76594293 -59.25 205.1875 C-77.73 205.1875 -96.21 205.1875 -115.25 205.1875 C-115.27254429 178.99762484 -115.29097757 152.80775749 -115.30181217 126.6178751 C-115.30697582 114.45838131 -115.31401983 102.29889396 -115.32543945 90.1394043 C-115.33538419 79.54534032 -115.34185292 68.951281 -115.34408849 58.35721248 C-115.34539596 52.74400597 -115.34848406 47.1308128 -115.35573006 41.51761055 C-115.36248696 36.24083464 -115.36461764 30.96407765 -115.36310768 25.68729782 C-115.36338416 23.74458527 -115.36539123 21.80187212 -115.36920547 19.85916328 C-115.37413758 17.21891574 -115.37300009 14.57874084 -115.37025452 11.93849182 C-115.37316736 11.15932406 -115.3760802 10.38015629 -115.37908131 9.57737738 C-115.36412121 4.30162121 -115.36412121 4.30162121 -114.25 3.1875 C-111.14748799 3.09875865 -108.0673188 3.07231545 -104.96484375 3.08984375 C-104.03402481 3.0912587 -103.10320587 3.09267365 -102.1441803 3.09413147 C-99.15858809 3.09974828 -96.17306971 3.1123036 -93.1875 3.125 C-91.16862087 3.13001284 -89.14974057 3.13457612 -87.13085938 3.13867188 C-82.17054428 3.14972317 -77.21028468 3.16699905 -72.25 3.1875 C-71.10767781 7.7074198 -69.96842429 12.22809757 -68.83203125 16.74951172 C-68.44485774 18.28813664 -68.05684051 19.82654951 -67.66796875 21.36474609 C-67.10976756 23.57334316 -66.55458638 25.78268037 -66 27.9921875 C-65.82500977 28.68182587 -65.65001953 29.37146423 -65.46972656 30.08200073 C-64.25 34.95975659 -64.25 34.95975659 -64.25 37.1875 C-61.59718305 34.6265555 -59.30550003 32.03192466 -57.125 29.0625 C-42.50158411 10.1454003 -23.90186041 -0.25342374 0 0 Z " fill="#0061BD" transform="translate(613.25,213.8125)"/>
<path d="M0 0 C0 76.56 0 153.12 0 232 C-15.4928969 232 -26.85417518 229.06675614 -40 221 C-40 220.34 -40 219.68 -40 219 C-41.0828125 218.6596875 -41.0828125 218.6596875 -42.1875 218.3125 C-45.58568303 216.72668125 -47.45230999 214.73876676 -50 212 C-51.2065625 210.88625 -51.2065625 210.88625 -52.4375 209.75 C-62.17482394 199.30018894 -66.19266879 186.98602684 -68.421875 173.17578125 C-68.66179354 170.14852914 -68.66179354 170.14852914 -70 169 C-70.11599485 167.22980764 -70.16188552 165.45499422 -70.18081665 163.68110657 C-70.19519775 162.5272496 -70.20957886 161.37339264 -70.22439575 160.18457031 C-70.23493988 158.90718994 -70.24548401 157.62980957 -70.25634766 156.3137207 C-70.27078963 154.96371635 -70.28554718 153.61371535 -70.30059814 152.26371765 C-70.43100425 139.92624959 -70.49675805 127.58786621 -70.54844093 115.24984455 C-70.58734848 106.12720794 -70.65568237 97.00580635 -70.76298869 87.88371211 C-70.83586215 81.47263082 -70.87427896 75.06188707 -70.88746679 68.65040845 C-70.89633197 64.81989666 -70.920576 60.99091018 -70.98213577 57.16085243 C-71.03943852 53.55451166 -71.05404298 49.95047985 -71.03626251 46.34375191 C-71.0375578 44.39327081 -71.08351942 42.44297872 -71.13088989 40.49307251 C-71.03162283 32.10207513 -71.03162283 32.10207513 -68.05538559 28.92258263 C-65.76055989 27.36718921 -63.5146001 26.15829686 -61 25 C-59.77392535 24.29025142 -58.55330141 23.57095427 -57.33984375 22.83984375 C-56.21707031 22.21207031 -55.09429687 21.58429688 -53.9375 20.9375 C-48.87356337 18.07928178 -43.8871618 15.15104749 -39 12 C-37.23516825 10.86428075 -35.47016538 9.72882798 -33.70507812 8.59350586 C-32.4725314 7.79995056 -31.24072169 7.00524899 -30.00976562 6.20922852 C-18.22820087 -1.39556658 -18.1220426 0 0 0 Z " fill="#0C82D1" transform="translate(154,187)"/>
<path d="M0 0 C18.48 0 36.96 0 56 0 C56 66.66 56 133.32 56 202 C37.52 202 19.04 202 0 202 C0 135.34 0 68.68 0 0 Z " fill="#0061BC" transform="translate(1703,217)"/>
<path d="M0 0 C5.85619303 5.52560148 7.24428668 11.86534425 7.765625 19.765625 C7.91993825 30.20748836 6.88687067 38.25391208 -0.546875 46 C-7.32824709 52.05279492 -15.34547168 54.07344711 -24.3125 54 C-25.01358887 53.99581055 -25.71467773 53.99162109 -26.43701172 53.98730469 C-36.22586539 53.77435578 -43.73755115 50.69813987 -50.625 43.625 C-56.49710458 36.3966088 -57.31805916 26.66672294 -56.4375 17.6875 C-55.26840978 9.38801267 -53.10246367 3.05577813 -46.4375 -2.3125 C-32.42168156 -11.14511011 -12.85789214 -10.42215301 0 0 Z " fill="#0061BD" transform="translate(1669.4375,370.3125)"/>
<path d="M0 0 C4.46069031 3.42130616 6.96135829 7.36309798 8.109375 12.796875 C9.46053509 32.44660323 9.46053509 32.44660323 3.109375 40.796875 C-1.87651629 46.36934174 -9.7345986 48.69053638 -17.03515625 49.15234375 C-26.9812533 49.47461457 -36.17093117 49.049961 -44.265625 42.671875 C-50.54781837 36.52956853 -52.25911492 30.57141201 -52.390625 21.859375 C-52.28542304 13.623018 -50.87446274 7.14459539 -45.328125 0.921875 C-32.53352544 -7.95536568 -13.1346099 -8.35838812 0 0 Z " fill="#0061BD" transform="translate(1752.890625,144.203125)"/>
<path d="M0 0 C1.39702148 0.02030273 1.39702148 0.02030273 2.82226562 0.04101562 C5.11127646 0.07623118 7.39908458 0.12547901 9.6875 0.1875 C9.73826475 6.50460371 9.7732608 12.82165469 9.79736328 19.13891602 C9.80741265 21.28737351 9.82105433 23.43581737 9.83837891 25.58422852 C9.86267376 28.67467622 9.87399386 31.76494287 9.8828125 34.85546875 C9.89313507 35.81398239 9.90345764 36.77249603 9.91409302 37.76005554 C9.91486062 42.33610751 9.89511889 46.04344033 7.6875 50.1875 C0.07256876 46.44683202 0.07256876 46.44683202 -3.375 44.125 C-9.54045008 40.52848745 -18.44485528 38.94368062 -25.47265625 39.38671875 C-28.77086561 40.31675028 -30.58280144 41.60064123 -33.1875 43.8125 C-34.04859375 44.54082031 -34.9096875 45.26914063 -35.796875 46.01953125 C-36.62703125 46.73496094 -37.4571875 47.45039063 -38.3125 48.1875 C-39.01890625 48.74824219 -39.7253125 49.30898437 -40.453125 49.88671875 C-48.59695676 56.50758985 -57.07294084 66.52729118 -58.3125 77.1875 C-60.68747323 74.81252677 -60.58552448 74.25468163 -60.68237305 71.01660156 C-60.72572029 69.72450775 -60.72572029 69.72450775 -60.76994324 68.40631104 C-60.78785416 67.47300964 -60.80576508 66.53970825 -60.82421875 65.578125 C-60.84273392 64.61855896 -60.86124908 63.65899292 -60.88032532 62.67034912 C-60.91240511 60.63611619 -60.93803567 58.60177302 -60.95776367 56.56738281 C-60.98582946 54.48759458 -61.0335574 52.40797511 -61.10131836 50.32910156 C-61.19889718 47.32777733 -61.23681182 44.33083022 -61.26171875 41.328125 C-61.32198494 39.9403183 -61.32198494 39.9403183 -61.38346863 38.5244751 C-61.36548156 35.80254655 -61.23977006 33.75064448 -60.3125 31.1875 C-57.60938974 28.55853263 -54.65549793 26.88894449 -51.3125 25.1875 C-50.08984671 24.47187368 -48.86955381 23.75218977 -47.65234375 23.02734375 C-46.52957031 22.39957031 -45.40679687 21.77179688 -44.25 21.125 C-39.18606337 18.26678178 -34.1996618 15.33854749 -29.3125 12.1875 C-27.54766825 11.05178075 -25.78266538 9.91632798 -24.01757812 8.78100586 C-22.7850314 7.98745056 -21.55322169 7.19274899 -20.32226562 6.39672852 C-18.65605304 5.32121728 -16.98439473 4.25415685 -15.3125 3.1875 C-14.63276123 2.65334473 -13.95302246 2.11918945 -13.25268555 1.56884766 C-8.87362013 -0.48850949 -4.77017066 -0.13147467 0 0 Z " fill="#0A6BB1" transform="translate(144.3125,186.8125)"/>
<path d="M0 0 C0.99 0.33 1.98 0.66 3 1 C3.33 2.98 3.66 4.96 4 7 C4.66 7 5.32 7 6 7 C7.17118301 8.68449748 8.26242662 10.42495999 9.3125 12.1875 C11.87545431 16.34033676 14.39062604 19.68327798 18 23 C18.66 23.845625 19.32 24.69125 20 25.5625 C22.1158004 28.14113174 24.36962062 29.96145598 27 32 C27.61875 32.639375 28.2375 33.27875 28.875 33.9375 C31.19427645 36.18856243 33.64887921 37.941889 36.31640625 39.75390625 C38 41 38 41 39.3984375 42.46484375 C42.11278619 45.06664627 45.46414726 46.66260286 48.72265625 48.5 C51 50 51 50 53 53 C49.7080846 55.19461027 48.8681092 55.23093474 45.06958008 55.13525391 C44.06876907 55.11508209 43.06795807 55.09491028 42.03681946 55.0741272 C40.95861435 55.04193085 39.88040924 55.0097345 38.76953125 54.9765625 C37.66397385 54.95153656 36.55841644 54.92651062 35.4193573 54.90072632 C31.88342921 54.81846385 28.34805441 54.72189736 24.8125 54.625 C22.41734041 54.5667669 20.02215803 54.50946349 17.62695312 54.453125 C11.75099485 54.31287568 5.87542774 54.16087646 0 54 C-0.16780996 46.47043741 -0.32777637 38.94073809 -0.48217773 31.41088867 C-0.53568935 28.84704781 -0.59102543 26.28324437 -0.64819336 23.71948242 C-0.72984943 20.04353917 -0.80503532 16.36751313 -0.87890625 12.69140625 C-0.91945885 10.96018272 -0.91945885 10.96018272 -0.96083069 9.19398499 C-0.98092697 8.13296066 -1.00102325 7.07193634 -1.02172852 5.97875977 C-1.04171402 5.03944107 -1.06169952 4.10012238 -1.08229065 3.13233948 C-1 1 -1 1 0 0 Z " fill="#074D96" transform="translate(179,365)"/>
<path d="M0 0 C8.58 0 17.16 0 26 0 C26.0309375 5.9090625 26.0309375 5.9090625 26.0625 11.9375 C26.071604 13.18136475 26.08070801 14.42522949 26.09008789 15.70678711 C26.09258545 16.6788208 26.09508301 17.65085449 26.09765625 18.65234375 C26.10551147 20.15269165 26.10551147 20.15269165 26.11352539 21.68334961 C26 24 26 24 25 25 C21.94998373 25.38869857 18.88375245 25.41816056 15.8125 25.5 C14.53536133 25.58121094 14.53536133 25.58121094 13.23242188 25.6640625 C9.70219715 25.74050975 7.0723492 25.69810743 4.06152344 23.73803711 C0.93250871 20.55582358 -0.34183632 17.83548311 -0.5859375 13.37890625 C-0.55218962 11.77225295 -0.4750128 10.16639251 -0.375 8.5625 C-0.25125 5.736875 -0.1275 2.91125 0 0 Z " fill="#0969C4" transform="translate(210,158)"/>
<path d="M0 0 C6.1565625 -0.0309375 6.1565625 -0.0309375 12.4375 -0.0625 C14.38160767 -0.07615601 14.38160767 -0.07615601 16.36499023 -0.09008789 C17.88394897 -0.09383423 17.88394897 -0.09383423 19.43359375 -0.09765625 C20.47572021 -0.10289307 21.51784668 -0.10812988 22.59155273 -0.11352539 C25 0 25 0 26 1 C26.20878028 3.72607398 26.32478852 6.39532117 26.375 9.125 C26.41238281 9.87265625 26.44976562 10.6203125 26.48828125 11.390625 C26.56415225 16.22950897 25.87871754 19.89729052 22.77832031 23.72265625 C19.0469235 26.40286879 14.57546456 25.70361055 10.1875 25.4375 C6.825625 25.293125 3.46375 25.14875 0 25 C0 16.75 0 8.5 0 0 Z " fill="#076DC9" transform="translate(240,158)"/>
<path d="M0 0 C3.2175 -0.0825 6.435 -0.165 9.75 -0.25 C11.26158691 -0.30462402 11.26158691 -0.30462402 12.80371094 -0.36035156 C19.3393276 -0.44175137 19.3393276 -0.44175137 22.640625 1.765625 C24 4 24 4 24 8 C24.66 8 25.32 8 26 8 C26.02685095 10.47923801 26.04676547 12.9581884 26.0625 15.4375 C26.07087891 16.14455078 26.07925781 16.85160156 26.08789062 17.58007812 C26.09653588 19.38693559 26.05220011 21.19387603 26 23 C25 24 25 24 22.59155273 24.11352539 C21.54942627 24.10828857 20.5072998 24.10305176 19.43359375 24.09765625 C18.30888672 24.09443359 17.18417969 24.09121094 16.02539062 24.08789062 C14.84138672 24.07951172 13.65738281 24.07113281 12.4375 24.0625 C11.24962891 24.05798828 10.06175781 24.05347656 8.83789062 24.04882812 C5.89190588 24.03699686 2.94594684 24.01906076 0 24 C0 16.08 0 8.16 0 0 Z " fill="#0978CC" transform="translate(240,130)"/>
<path d="M0 0 C0.87076172 0.02320313 1.74152344 0.04640625 2.63867188 0.0703125 C8.97511854 0.28761854 8.97511854 0.28761854 10.1875 1.5 C10.2866657 3.12257544 10.31829777 4.74939831 10.3203125 6.375 C10.32224609 7.85226563 10.32224609 7.85226563 10.32421875 9.359375 C10.32035156 10.39578125 10.31648438 11.4321875 10.3125 12.5 C10.31830078 14.05460938 10.31830078 14.05460938 10.32421875 15.640625 C10.32292969 16.62546875 10.32164062 17.6103125 10.3203125 18.625 C10.31918457 19.53507812 10.31805664 20.44515625 10.31689453 21.3828125 C10.1875 23.5 10.1875 23.5 9.1875 24.5 C7.50364925 24.59934776 5.81568403 24.6308005 4.12890625 24.6328125 C3.10345703 24.63410156 2.07800781 24.63539063 1.02148438 24.63671875 C-0.59790039 24.63091797 -0.59790039 24.63091797 -2.25 24.625 C-3.32572266 24.62886719 -4.40144531 24.63273437 -5.50976562 24.63671875 C-7.04987305 24.63478516 -7.04987305 24.63478516 -8.62109375 24.6328125 C-9.56782959 24.63168457 -10.51456543 24.63055664 -11.48999023 24.62939453 C-13.8125 24.5 -13.8125 24.5 -15.8125 23.5 C-15.97608768 20.97650859 -16.09401635 18.4637844 -16.1875 15.9375 C-16.23777344 15.23302734 -16.28804687 14.52855469 -16.33984375 13.80273438 C-16.45475197 9.64688705 -15.86716063 6.90928516 -13.40234375 3.50390625 C-9.43094293 -0.60077488 -5.42450767 -0.34493463 0 0 Z " fill="#0874C6" transform="translate(225.8125,129.5)"/>
<path d="M0 0 C0.66 1.32 1.32 2.64 2 4 C3.32 4 4.64 4 6 4 C7.921875 5.2421875 7.921875 5.2421875 9.75 6.875 C10.36359375 7.40867187 10.9771875 7.94234375 11.609375 8.4921875 C13 10 13 10 13 12 C13.58265625 12.27457031 14.1653125 12.54914063 14.765625 12.83203125 C16.94565816 13.97159404 18.8117841 15.17585726 20.75 16.6875 C21.36359375 17.14511719 21.9771875 17.60273438 22.609375 18.07421875 C24 20 24 20 24 27 C16.08 27 8.16 27 0 27 C0 18.09 0 9.18 0 0 Z " fill="#055DB5" transform="translate(179,392)"/>
<path d="M0 0 C-0.33 0.66 -0.66 1.32 -1 2 C-1.59167969 1.84402344 -2.18335938 1.68804688 -2.79296875 1.52734375 C-10.4544691 -0.35991001 -14.87802 0.68008283 -22 4 C-22.80050781 4.36222656 -23.60101563 4.72445313 -24.42578125 5.09765625 C-29.36140568 7.42691148 -33.33569506 9.89373648 -37.34375 13.58984375 C-39.04430729 15.0377239 -40.72570731 16.06513319 -42.6875 17.125 C-45.94772283 18.77001335 -45.94772283 18.77001335 -47.8984375 20.9296875 C-50.107573 23.1059734 -52.24635239 24.47404881 -54.9375 26 C-57.8591628 27.68854924 -60.32848642 29.27257383 -62.9375 31.4375 C-63.618125 31.953125 -64.29875 32.46875 -65 33 C-65.99 32.67 -66.98 32.34 -68 32 C-67.67 31.01 -67.34 30.02 -67 29 C-65 28.33333333 -63 27.66666667 -61 27 C-60.67 26.01 -60.34 25.02 -60 24 C-57.375 22.16796875 -57.375 22.16796875 -54 20.1875 C-52.80785943 19.4764902 -51.61645542 18.764244 -50.42578125 18.05078125 C-49.29527344 17.37402344 -48.16476563 16.69726562 -47 16 C-42.4785787 13.12024452 -38.09123155 10.10423136 -33.8125 6.875 C-33.15636719 6.38128906 -32.50023437 5.88757812 -31.82421875 5.37890625 C-30.25551338 4.19313966 -28.68994789 3.00322122 -27.125 1.8125 C-18.58689847 -3.13959889 -8.95648741 -4.96901014 0 0 Z " fill="#2DCAF4" transform="translate(249,21)"/>
<path d="M0 0 C0.66 0.33 1.32 0.66 2 1 C0.625 3 0.625 3 -1 5 C-1.66 5 -2.32 5 -3 5 C-3 5.66 -3 6.32 -3 7 C-3.66 7 -4.32 7 -5 7 C-5.27070312 7.59039062 -5.54140625 8.18078125 -5.8203125 8.7890625 C-6.9838856 10.96979885 -8.22114171 12.54975743 -9.875 14.375 C-21.7595315 28.00298355 -19.14349409 46.64939443 -19.0625 63.8125 C-19.05747239 65.68033733 -19.05291173 67.54817599 -19.04882812 69.41601562 C-19.03792834 73.94404359 -19.02073403 78.47200683 -19 83 C-17.515 82.505 -17.515 82.505 -16 82 C-16 82.99 -16 83.98 -16 85 C-17.9375 85.5625 -17.9375 85.5625 -20 86 C-21.61476581 84.38523419 -21.13545528 82.62772814 -21.14526367 80.39526367 C-21.15164352 79.41301315 -21.15802338 78.43076263 -21.16459656 77.41874695 C-21.16570938 76.34599014 -21.1668222 75.27323334 -21.16796875 74.16796875 C-21.17296135 72.51478386 -21.17296135 72.51478386 -21.17805481 70.82820129 C-21.18313318 68.48353494 -21.18546286 66.13886131 -21.18530273 63.79418945 C-21.18746745 60.24092237 -21.20555266 56.68797679 -21.22460938 53.13476562 C-21.22754763 50.85416772 -21.22952953 48.57356835 -21.23046875 46.29296875 C-21.23765427 45.24247849 -21.24483978 44.19198822 -21.25224304 43.10966492 C-21.20600565 27.8267308 -18.73024853 17.45811826 -8.26171875 6.2109375 C-5.65583896 3.66356624 -3.16420289 1.78493496 0 0 Z " fill="#05349B" transform="translate(43,144)"/>
<path d="M0 0 C0.99 0 1.98 0 3 0 C3 23.43 3 46.86 3 71 C2.67 71 2.34 71 2 71 C1.67 65.72 1.34 60.44 1 55 C0.67 55 0.34 55 0 55 C0 36.85 0 18.7 0 0 Z " fill="#09A0D9" transform="translate(151,239)"/>
<path d="M0 0 C2.55781522 3.83672283 2.25306456 6.94535987 2.1953125 11.38671875 C2.1924826 12.20372757 2.18965271 13.02073639 2.18673706 13.86250305 C2.17554541 16.47098459 2.1504429 19.0791223 2.125 21.6875 C2.11496888 23.45637525 2.10584326 25.22525588 2.09765625 26.99414062 C2.07560942 31.32955949 2.0410867 35.66472145 2 40 C0.10292636 40.02380553 -1.79423498 40.0406778 -3.69140625 40.0546875 C-5.27610718 40.06991455 -5.27610718 40.06991455 -6.89282227 40.08544922 C-12.91788025 39.91975657 -18.51068007 38.47904771 -24 36 C-23.67 35.01 -23.34 34.02 -23 33 C-21.02 33.66 -19.04 34.32 -17 35 C-17 35.66 -17 36.32 -17 37 C-15.68 37.33 -14.36 37.66 -13 38 C-13 37.34 -13 36.68 -13 36 C-9.04 36.33 -5.08 36.66 -1 37 C-1.00785522 35.37203491 -1.00785522 35.37203491 -1.01586914 33.71118164 C-1.03391836 29.69882018 -1.04543171 25.68646233 -1.05493164 21.67407227 C-1.05997204 19.93480832 -1.0668043 18.19554864 -1.07543945 16.45629883 C-1.08751792 13.96174063 -1.09323108 11.46723827 -1.09765625 8.97265625 C-1.10281754 8.19036148 -1.10797882 7.40806671 -1.11329651 6.60206604 C-1.11349226 4.73432886 -1.06199694 2.86670796 -1 1 C-0.67 0.67 -0.34 0.34 0 0 Z " fill="#034DB1" transform="translate(152,379)"/>
<path d="M0 0 C2.27121709 3.40682564 2.24468887 4.57797184 2.22705078 8.57299805 C2.22689972 9.71395432 2.22674866 10.85491058 2.22659302 12.03044128 C2.21627045 13.26176285 2.20594788 14.49308441 2.1953125 15.76171875 C2.1924826 17.02264847 2.18965271 18.28357819 2.18673706 19.5827179 C2.17743125 22.93160422 2.15946703 26.28021791 2.1373291 29.62902832 C2.11685386 33.04758347 2.10773176 36.4661668 2.09765625 39.88476562 C2.0755818 46.58991919 2.04209362 53.29494385 2 60 C1.01 59.34 0.02 58.68 -1 58 C-1.36749268 55.60227966 -1.36749268 55.60227966 -1.35644531 52.55639648 C-1.35944641 51.41859238 -1.36244751 50.28078827 -1.36553955 49.10850525 C-1.34701935 47.25848656 -1.34701935 47.25848656 -1.328125 45.37109375 C-1.32625183 44.11112076 -1.32437866 42.85114777 -1.32244873 41.55299377 C-1.31571566 38.88536657 -1.30341213 36.21849662 -1.28125 33.55102539 C-1.25293865 30.12535255 -1.24203594 26.69991716 -1.2375679 23.27413845 C-1.23242155 20.0147606 -1.21788137 16.75544034 -1.203125 13.49609375 C-1.19887512 12.26072372 -1.19462524 11.0253537 -1.19024658 9.75254822 C-1.18063904 8.61789627 -1.17103149 7.48324432 -1.16113281 6.31420898 C-1.15430481 5.30986313 -1.14747681 4.30551727 -1.14044189 3.27073669 C-1 1 -1 1 0 0 Z " fill="#0377C5" transform="translate(152,322)"/>
<path d="M0 0 C2.1746024 3.2619036 3.00025886 5.98570819 4.0625 9.75 C4.40410156 10.94109375 4.74570312 12.1321875 5.09765625 13.359375 C6.9385104 20.78654414 7.33388043 28.19789185 7.6875 35.8125 C7.74744141 36.84181641 7.80738281 37.87113281 7.86914062 38.93164062 C8.17688345 45.59659144 7.64922222 51.53149368 6 58 C5.01 57.67 4.02 57.34 3 57 C3.13923048 52.93724554 3.28753918 48.87487143 3.4375 44.8125 C3.49647461 43.08676758 3.49647461 43.08676758 3.55664062 41.32617188 C3.59853516 40.21435547 3.64042969 39.10253906 3.68359375 37.95703125 C3.72025146 36.93585205 3.75690918 35.91467285 3.79467773 34.86254883 C3.98840063 32.16171537 4.40451953 29.63833872 5 27 C4.34 26.67 3.68 26.34 3 26 C2.76674191 23.63198754 2.63929228 21.25323365 2.5625 18.875 C2.31953595 13.2317284 1.47384394 9.06013533 -1 4 C-0.6875 1.5625 -0.6875 1.5625 0 0 Z " fill="#0BA64B" transform="translate(406,263)"/>
<path d="M0 0 C0.91354752 0.1065818 0.91354752 0.1065818 1.84555054 0.21531677 C7.83173251 0.8701776 13.70793112 1.13538542 19.7265625 1.09765625 C21.03710098 1.09553383 21.03710098 1.09553383 22.37411499 1.09336853 C25.12444703 1.08783674 27.87469318 1.07529774 30.625 1.0625 C32.50650923 1.05747616 34.38801975 1.05291481 36.26953125 1.04882812 C40.84638652 1.03788979 45.42317877 1.02067362 50 1 C49.67 1.66 49.34 2.32 49 3 C32.48972391 6.70965981 15.6007574 5.02096177 -1 3 C-0.67 2.01 -0.34 1.02 0 0 Z " fill="#0A984B" transform="translate(271,414)"/>
<path d="M0 0 C8.58 0 17.16 0 26 0 C26.0309375 5.9090625 26.0309375 5.9090625 26.0625 11.9375 C26.071604 13.18136475 26.08070801 14.42522949 26.09008789 15.70678711 C26.09258545 16.6788208 26.09508301 17.65085449 26.09765625 18.65234375 C26.10551147 20.15269165 26.10551147 20.15269165 26.11352539 21.68334961 C26 24 26 24 25 25 C23.58429877 25.08651611 22.164405 25.10704904 20.74609375 25.09765625 C19.89208984 25.09443359 19.03808594 25.09121094 18.15820312 25.08789062 C16.81145508 25.07532227 16.81145508 25.07532227 15.4375 25.0625 C14.53580078 25.05798828 13.63410156 25.05347656 12.70507812 25.04882812 C10.46998686 25.03700225 8.23502563 25.0205222 6 25 C5.67 24.34 5.34 23.68 5 23 C8.97135275 21.97513477 12.65388199 21.94799668 16.71875 22.0625 C19.23943085 21.99344025 21.54396871 21.55347184 24 21 C24.02690104 18.20826945 24.04679053 15.41679652 24.0625 12.625 C24.07087891 11.8309375 24.07925781 11.036875 24.08789062 10.21875 C24.23040151 5.97607778 24.23040151 5.97607778 23 2 C16.4 1.67 9.8 1.34 3 1 C2.67 6.94 2.34 12.88 2 19 C1.34 18.67 0.68 18.34 0 18 C0 12.06 0 6.12 0 0 Z " fill="#0864B5" transform="translate(210,158)"/>
<path d="M0 0 C-0.2109375 1.8203125 -0.2109375 1.8203125 -1 4 C-3.0390625 5.4921875 -3.0390625 5.4921875 -5.625 6.875 C-11.58499494 10.27590107 -16.20198687 14.12323319 -20.95703125 19.046875 C-21.48828613 19.59263184 -22.01954102 20.13838867 -22.56689453 20.70068359 C-23.63405451 21.80321193 -24.69136888 22.91536962 -25.73779297 24.03759766 C-27.08413828 25.43415015 -28.53769181 26.72537875 -30 28 C-31.32 28 -32.64 28 -34 28 C-32.78966653 23.42762912 -30.41670651 21.36218293 -26.8515625 18.52734375 C-24.94389628 17.00870588 -24.94389628 17.00870588 -23.171875 15.1328125 C-20.49411381 12.50321248 -17.5957686 10.22033716 -14.625 7.9375 C-14.07328125 7.50373047 -13.5215625 7.06996094 -12.953125 6.62304688 C-4.36433362 0 -4.36433362 0 0 0 Z " fill="#53CC68" transform="translate(240,202)"/>
<path d="M0 0 C3.375 4.5 3.375 4.5 3.29296875 8.765625 C3.28172974 9.96880371 3.28172974 9.96880371 3.27026367 11.19628906 C3.22929565 12.70787598 3.22929565 12.70787598 3.1875 14.25 C3.125625 17.4675 3.06375 20.685 3 24 C13.395 23.505 13.395 23.505 24 23 C24 24.32 24 25.64 24 27 C16.08 27 8.16 27 0 27 C0 18.09 0 9.18 0 0 Z " fill="#0655AD" transform="translate(179,392)"/>
<path d="M0 0 C0.33 0 0.66 0 1 0 C1.75345792 3.35509543 2.12278728 6.44592067 2.11352539 9.88208008 C2.11344986 10.82267776 2.11337433 11.76327545 2.11329651 12.7323761 C2.10813522 13.7346373 2.10297394 14.7368985 2.09765625 15.76953125 C2.0962413 16.80567062 2.09482635 17.84181 2.09336853 18.90934753 C2.08778242 22.21042804 2.07523242 25.51144008 2.0625 28.8125 C2.05748321 31.05403548 2.05292061 33.29557202 2.04882812 35.53710938 C2.03781753 41.02476284 2.02109318 46.51237653 2 52 C0.515 52.495 0.515 52.495 -1 53 C-1.0249559 47.3806998 -1.04297966 41.76143278 -1.05493164 36.14208984 C-1.05992101 34.2355086 -1.06671487 32.32893109 -1.07543945 30.42236328 C-1.16597155 10.11122115 -1.16597155 10.11122115 0 0 Z " fill="#0351B3" transform="translate(451,167)"/>
<path d="M0 0 C4.53119544 1.00948152 8.87737701 2.63996665 13.24804688 4.18359375 C17.4914759 5.63676397 21.56308256 6.41515917 26 7 C26.33 7.33 26.66 7.66 27 8 C28.49738124 8.0979057 29.99942892 8.12974864 31.5 8.125 C32.3146875 8.12757813 33.129375 8.13015625 33.96875 8.1328125 C35.99530377 8.2245178 35.99530377 8.2245178 37 7 C39.18019479 6.60333773 41.3696463 6.25684763 43.5625 5.9375 C44.76003906 5.76089844 45.95757812 5.58429688 47.19140625 5.40234375 C48.58166016 5.20318359 48.58166016 5.20318359 50 5 C49.67 6.32 49.34 7.64 49 9 C36.67808212 10.78557133 25.0119875 12.23168492 13 8 C11.33911955 7.63893903 9.67381019 7.29537827 8 7 C8 6.01 8 5.02 8 4 C5.69 3.67 3.38 3.34 1 3 C0.67 2.01 0.34 1.02 0 0 Z " fill="#13AE50" transform="translate(265,354)"/>
<path d="M0 0 C2.94956528 1.36944102 5.52468811 2.87830409 8 5 C8 5.66 8 6.32 8 7 C8.71542969 7.27070313 9.43085938 7.54140625 10.16796875 7.8203125 C13.01107805 9.00461458 15.62473457 10.37358545 18.3125 11.875 C25.76834019 15.97720926 32.84078268 19.50690582 41 22 C41 22.99 41 23.98 41 25 C33.92804212 23.73816881 28.30107208 21.46861775 22 18.0625 C21.14277344 17.61970703 20.28554687 17.17691406 19.40234375 16.72070312 C13.12826796 13.38480387 13.12826796 13.38480387 12 10 C10.67092127 9.65008768 9.33656685 9.32012178 8 9 C5.640625 7.37109375 5.640625 7.37109375 3.25 5.4375 C2.45078125 4.79683594 1.6515625 4.15617187 0.828125 3.49609375 C0.22484375 3.00238281 -0.3784375 2.50867188 -1 2 C-0.67 1.34 -0.34 0.68 0 0 Z " fill="#0A944C" transform="translate(219,387)"/>
<path d="M0 0 C0.66 0 1.32 0 2 0 C2.81542431 2.08219049 3.62723189 4.16579761 4.4375 6.25 C4.88996094 7.41015625 5.34242188 8.5703125 5.80859375 9.765625 C6.70150633 12.18966308 7.45794365 14.48286475 8 17 C8.66 17 9.32 17 10 17 C10.33 18.32 10.66 19.64 11 21 C11.66 21 12.32 21 13 21 C17 27.75 17 27.75 17 30 C17.66 30 18.32 30 19 30 C19 31.32 19 32.64 19 34 C19.598125 34.2475 20.19625 34.495 20.8125 34.75 C23.28647521 36.16370012 24.43370255 37.65055383 26 40 C25.67 40.66 25.34 41.32 25 42 C20.74460664 37.95976698 16.96017642 34.09150344 14 29 C14 28.34 14 27.68 14 27 C13.34 27 12.68 27 12 27 C10.66796875 25.09375 10.66796875 25.09375 9.1875 22.5 C7.29629389 19.21697717 5.36132078 16.02005351 3.25 12.875 C0.81754897 9.02231143 -0.21368256 5.48200943 -1 1 C-0.67 0.67 -0.34 0.34 0 0 Z " fill="#109F52" transform="translate(189,343)"/>
<path d="M0 0 C3 1 3 1 3.94921875 2.63671875 C5.47984771 6.88846587 6.44798114 10.40819327 6 15 C5.67 15.33 5.34 15.66 5 16 C4.92701998 17.60264114 4.91636169 19.20833732 4.9375 20.8125 C4.95103516 22.12154297 4.95103516 22.12154297 4.96484375 23.45703125 C4.97644531 24.29621094 4.98804688 25.13539063 5 26 C5 27.32 5 28.64 5 30 C5.061875 30.969375 5.12375 31.93875 5.1875 32.9375 C4.97014317 36.48766158 3.89408468 38.0452279 2 41 C1.29329272 43.69254991 1.29329272 43.69254991 1 46 C0.01 45.67 -0.98 45.34 -2 45 C-1.86722656 44.41992188 -1.73445313 43.83984375 -1.59765625 43.2421875 C-0.60252674 38.84037374 0.27467841 34.45554691 1 30 C1.17144531 29.42121094 1.34289062 28.84242188 1.51953125 28.24609375 C2.15806724 25.2610678 2.13188509 22.42509686 2.125 19.375 C2.12886719 17.65410156 2.12886719 17.65410156 2.1328125 15.8984375 C2.19920447 13.06023956 2.19920447 13.06023956 1 11 C1 9.33333333 1 7.66666667 1 6 C0.67 5.67 0.34 5.34 0 5 C-0.04063832 3.33382885 -0.042721 1.66611905 0 0 Z " fill="#1CB251" transform="translate(354,282)"/>
<path d="M0 0 C-0.66 0.66 -1.32 1.32 -2 2 C-1.67 2.66 -1.34 3.32 -1 4 C-5.10410755 4.05796132 -9.20811016 4.09358313 -13.3125 4.125 C-14.47974609 4.14175781 -15.64699219 4.15851563 -16.84960938 4.17578125 C-18.52700195 4.18544922 -18.52700195 4.18544922 -20.23828125 4.1953125 C-21.7857605 4.21102295 -21.7857605 4.21102295 -23.36450195 4.22705078 C-26 4 -26 4 -29 2 C-29.99 2.495 -29.99 2.495 -31 3 C-31.33 2.01 -31.66 1.02 -32 0 C-21.19017916 -1.17088968 -10.80081229 -1.31202926 0 0 Z " fill="#68DC73" transform="translate(313,187)"/>
<path d="M0 0 C0.33 0 0.66 0 1 0 C1.33 11.88 1.66 23.76 2 36 C2.99 35.505 2.99 35.505 4 35 C3.25749403 39.08378283 2.17076699 43.01939223 1 47 C-1 45 -1 45 -1.24723816 43.09580994 C-1.24581314 42.32161209 -1.24438812 41.54741425 -1.24291992 40.74975586 C-1.24599655 39.87222153 -1.24907318 38.99468719 -1.25224304 38.09056091 C-1.24505753 37.14157425 -1.23787201 36.19258759 -1.23046875 35.21484375 C-1.23001053 34.24341934 -1.22955231 33.27199493 -1.2290802 32.27113342 C-1.22605624 30.21581807 -1.21816566 28.16050505 -1.20581055 26.10522461 C-1.18755503 22.94702095 -1.18530081 19.78911027 -1.18554688 16.63085938 C-1.18063182 14.63801828 -1.17480355 12.64517918 -1.16796875 10.65234375 C-1.16685593 9.70133286 -1.1657431 8.75032196 -1.16459656 7.77049255 C-1.15821671 6.89611038 -1.15183685 6.02172821 -1.14526367 5.12084961 C-1.14145187 4.34744736 -1.13764008 3.5740451 -1.13371277 2.77720642 C-1 1 -1 1 0 0 Z " fill="#00419C" transform="translate(85,217)"/>
<path d="M0 0 C0.66 0.33 1.32 0.66 2 1 C0.625 3 0.625 3 -1 5 C-1.66 5 -2.32 5 -3 5 C-3 5.66 -3 6.32 -3 7 C-3.66 7 -4.32 7 -5 7 C-5.27070312 7.59039062 -5.54140625 8.18078125 -5.8203125 8.7890625 C-6.9838856 10.96979885 -8.22114171 12.54975743 -9.875 14.375 C-14.19280839 19.32622771 -17.3434515 23.30320535 -18 30 C-18.18679099 31.62508165 -18.37432438 33.2500781 -18.5625 34.875 C-18.70996483 36.24982598 -18.85636473 37.62476865 -19 39 C-19.33 39 -19.66 39 -20 39 C-20.6798631 25.72378453 -18.62735293 18.49649103 -10.171875 8.30859375 C-7.10387547 5.04746475 -3.73885443 2.4461654 0 0 Z " fill="#055DBE" transform="translate(43,144)"/>
<path d="M0 0 C3.08574922 0.29388088 3.68739228 0.94332414 5.625 3.25 C6.285 3.58 6.945 3.91 7.625 4.25 C7.625 4.91 7.625 5.57 7.625 6.25 C8.32625 6.476875 9.0275 6.70375 9.75 6.9375 C16.1093606 9.84068636 21.78031247 15.48296871 25.625 21.25 C24.965 21.25 24.305 21.25 23.625 21.25 C23.295 21.91 22.965 22.57 22.625 23.25 C22.26148438 22.71890625 21.89796875 22.1878125 21.5234375 21.640625 C18.25928161 17.0540675 15.38594696 14.19725288 10.625 11.25 C10.625 10.59 10.625 9.93 10.625 9.25 C6.70222051 7.66906815 2.76096242 6.14057144 -1.1875 4.625 C-2.34894531 4.17898437 -3.51039063 3.73296875 -4.70703125 3.2734375 C-5.58746094 2.93570313 -6.46789062 2.59796875 -7.375 2.25 C-6.735625 2.105625 -6.09625 1.96125 -5.4375 1.8125 C-2.98244147 1.14293858 -2.60782964 0.27450838 0 0 Z " fill="#31BE55" transform="translate(321.375,243.75)"/>
<path d="M0 0 C1 2 1 2 0.45703125 3.875 C-1.61330968 6.89447846 -4.15949054 8.17175442 -7.3125 10 C-10.67379059 11.96234981 -13.75787714 13.79494029 -16.73046875 16.3125 C-17.47941406 16.869375 -18.22835937 17.42625 -19 18 C-19.99 17.67 -20.98 17.34 -22 17 C-21.505 15.515 -21.505 15.515 -21 14 C-19 13.33333333 -17 12.66666667 -15 12 C-14.67 11.01 -14.34 10.02 -14 9 C-11.85367324 7.51718823 -9.74960767 6.17891272 -7.5 4.875 C-3.52532061 2.72934103 -3.52532061 2.72934103 0 0 Z " fill="#21B7EA" transform="translate(203,36)"/>
<path d="M0 0 C0.79681084 8.02502344 1.12867289 15.93649887 1 24 C0.34 24 -0.32 24 -1 24 C-1.33 24.99 -1.66 25.98 -2 27 C-2.42208496 23.06484889 -2.80814254 19.12698134 -3.1875 15.1875 C-3.30802734 14.06794922 -3.42855469 12.94839844 -3.55273438 11.79492188 C-3.65263672 10.72177734 -3.75253906 9.64863281 -3.85546875 8.54296875 C-3.95496826 7.55321045 -4.05446777 6.56345215 -4.15698242 5.54370117 C-4 3 -4 3 -2.5715332 1.15356445 C-1 0 -1 0 0 0 Z " fill="#26BE5D" transform="translate(183,296)"/>
<path d="M0 0 C2.31 0.33 4.62 0.66 7 1 C6.01 1.66 5.02 2.32 4 3 C3.58429992 5.22498915 3.58429992 5.22498915 3.70703125 7.7890625 C3.71669922 8.73007813 3.72636719 9.67109375 3.73632812 10.640625 C3.7740332 12.11789063 3.7740332 12.11789063 3.8125 13.625 C3.82603516 14.61757812 3.83957031 15.61015625 3.85351562 16.6328125 C3.88894257 19.08908072 3.93833804 21.54427285 4 24 C2.68 24 1.36 24 0 24 C0 16.08 0 8.16 0 0 Z " fill="#0571C2" transform="translate(240,130)"/>
<path d="M0 0 C2.1746024 3.2619036 3.00025886 5.98570819 4.0625 9.75 C4.40410156 10.94109375 4.74570312 12.1321875 5.09765625 13.359375 C6.38429672 18.55049585 7.14481196 23.58722275 7.0625 28.9375 C7.05347656 29.70964844 7.04445313 30.48179687 7.03515625 31.27734375 C7.02355469 31.84582031 7.01195312 32.41429687 7 33 C6.34 33 5.68 33 5 33 C5 31.02 5 29.04 5 27 C4.34 26.67 3.68 26.34 3 26 C2.76674191 23.63198754 2.63929228 21.25323365 2.5625 18.875 C2.31953595 13.2317284 1.47384394 9.06013533 -1 4 C-0.6875 1.5625 -0.6875 1.5625 0 0 Z " fill="#14B055" transform="translate(406,263)"/>
<path d="M0 0 C2 2 2 2 2.22705078 4.52197266 C2.21657715 5.5588623 2.20610352 6.59575195 2.1953125 7.6640625 C2.18886719 8.78554688 2.18242187 9.90703125 2.17578125 11.0625 C2.15902344 12.238125 2.14226562 13.41375 2.125 14.625 C2.11597656 15.80835938 2.10695312 16.99171875 2.09765625 18.2109375 C2.07402812 21.14082523 2.04108514 24.0703134 2 27 C1.01 26.34 0.02 25.68 -1 25 C-1.35644531 22.58569336 -1.35644531 22.58569336 -1.328125 19.58984375 C-1.32296875 18.51798828 -1.3178125 17.44613281 -1.3125 16.34179688 C-1.291875 15.21837891 -1.27125 14.09496094 -1.25 12.9375 C-1.24484375 11.81021484 -1.2396875 10.68292969 -1.234375 9.52148438 C-1.1537709 1.1537709 -1.1537709 1.1537709 0 0 Z " fill="#0263BD" transform="translate(152,355)"/>
<path d="M0 0 C0.33 0 0.66 0 1 0 C1.73259082 10.6879768 2.14036598 21.28539694 2 32 C1.01 31.34 0.02 30.68 -1 30 C-1.35644531 27.12670898 -1.35644531 27.12670898 -1.328125 23.49609375 C-1.32296875 22.19865234 -1.3178125 20.90121094 -1.3125 19.56445312 C-1.3021875 18.88777588 -1.291875 18.21109863 -1.28125 17.51391602 C-1.25006828 15.44203718 -1.24027769 13.37091842 -1.234375 11.29882812 C-1.15365758 1.15365758 -1.15365758 1.15365758 0 0 Z " fill="#038CD0" transform="translate(152,293)"/>
<path d="M0 0 C0.33 0 0.66 0 1 0 C1.33 3.3 1.66 6.6 2 10 C3.69769531 9.98259766 3.69769531 9.98259766 5.4296875 9.96484375 C6.91145669 9.95546546 8.39322765 9.9463653 9.875 9.9375 C10.62136719 9.92912109 11.36773437 9.92074219 12.13671875 9.91210938 C17.7734375 9.88671875 17.7734375 9.88671875 20 11 C20 11.66 20 12.32 20 13 C13.07 13 6.14 13 -1 13 C-0.67 12.34 -0.34 11.68 0 11 C0.07033769 9.12620395 0.0843022 7.24998898 0.0625 5.375 C0.05347656 4.37210938 0.04445312 3.36921875 0.03515625 2.3359375 C0.02355469 1.56507813 0.01195312 0.79421875 0 0 Z " fill="#025FB2" transform="translate(241,170)"/>
<path d="M0 0 C4.01860951 1.37780897 6.76798482 3.26521793 10 6 C13.65948654 9.02854058 17.73850747 10.96234459 22 13 C21.67 13.99 21.34 14.98 21 16 C16.66218323 14.64443226 13.60538187 12.27328099 10.0703125 9.53125 C7.18252004 7.39537331 4.1558936 5.70944237 1 4 C1 3.34 1 2.68 1 2 C0.34 1.67 -0.32 1.34 -1 1 C-0.67 0.67 -0.34 0.34 0 0 Z " fill="#0356B1" transform="translate(393,188)"/>
<path d="M0 0 C1 3 1 3 0.0625 5.1875 C-0.288125 5.785625 -0.63875 6.38375 -1 7 C-1.66 7 -2.32 7 -3 7 C-3 7.845625 -3 8.69125 -3 9.5625 C-4.41788536 14.43648091 -7.6234061 17.45849 -12 20 C-14.26171875 19.69140625 -14.26171875 19.69140625 -16 19 C-14.19734598 17.19734598 -12.388541 15.40421944 -10.5625 13.625 C-7.96054151 11.0576701 -7.96054151 11.0576701 -5.8125 8.1875 C-5.214375 7.465625 -4.61625 6.74375 -4 6 C-3.34 6 -2.68 6 -2 6 C-1.34 4.02 -0.68 2.04 0 0 Z " fill="#12B351" transform="translate(349,331)"/>
<path d="M0 0 C-1.86394729 3.72789457 -6.67867966 4.42646122 -10.41015625 5.82421875 C-15.21394445 7.39760313 -19.99776218 8.32835685 -25 9 C-24 7 -24 7 -22.0390625 6.21875 C-21.24242187 5.9815625 -20.44578125 5.744375 -19.625 5.5 C-16.57365243 4.58558965 -14.7053551 3.80357007 -12 2 C-7.83808147 0.33523259 -4.47478349 -0.21308493 0 0 Z " fill="#079847" transform="translate(348,406)"/>
<path d="M0 0 C4.53119544 1.00948152 8.87737701 2.63996665 13.24804688 4.18359375 C17.53162229 5.65051218 21.52787435 6.4908835 26 7 C26 7.33 26 7.66 26 8 C13.33029613 9.51708428 13.33029613 9.51708428 8 7 C8 6.01 8 5.02 8 4 C5.69 3.67 3.38 3.34 1 3 C0.67 2.01 0.34 1.02 0 0 Z " fill="#11AF49" transform="translate(265,354)"/>
<path d="M0 0 C0.99 0.33 1.98 0.66 3 1 C3 6.61 3 12.22 3 18 C2.67 18 2.34 18 2 18 C2 19.98 2 21.96 2 24 C1.34 24 0.68 24 0 24 C0 16.08 0 8.16 0 0 Z " fill="#0866BC" transform="translate(240,158)"/>
<path d="M0 0 C-0.0625 1.75 -0.0625 1.75 -1 4 C-5.33237013 6.97319519 -8.7024666 8.48316747 -14 9 C-12.74397824 5.23193471 -11.48987433 4.78753493 -8.125 2.8125 C-7.24070313 2.28269531 -6.35640625 1.75289062 -5.4453125 1.20703125 C-3 0 -3 0 0 0 Z " fill="#16AEE3" transform="translate(175,57)"/>
<path d="M0 0 C0.66 0.33 1.32 0.66 2 1 C-2.3046647 7.38700251 -6.53467673 9.45087165 -14 11 C-14 9.68 -14 8.36 -14 7 C-12.39850114 6.32694982 -10.79368971 5.66177773 -9.1875 5 C-8.29417969 4.62875 -7.40085937 4.2575 -6.48046875 3.875 C-4 3 -4 3 -1 3 C-0.67 2.01 -0.34 1.02 0 0 Z " fill="#11AF4C" transform="translate(330,351)"/>
<path d="M0 0 C0 0.99 0 1.98 0 3 C-6.27 3 -12.54 3 -19 3 C-19.33 2.34 -19.66 1.68 -20 1 C-15.93638892 -0.04867383 -12.14852827 -0.04937219 -7.98828125 0.0625 C-0.5690575 -0.17071725 -0.5690575 -0.17071725 0 0 Z " fill="#0354B4" transform="translate(235,180)"/>
<path d="M0 0 C0.66 0 1.32 0 2 0 C2.33 0.99 2.66 1.98 3 3 C2.278125 3.226875 1.55625 3.45375 0.8125 3.6875 C-2.5490428 5.25621997 -4.42088997 7.35641222 -7 10 C-9.6875 11.875 -9.6875 11.875 -12 13 C-12.66 12.67 -13.32 12.34 -14 12 C-11.14646466 7.8385943 -8.08797009 5.59435248 -3.8046875 3.11328125 C-1.84868999 2.00239916 -1.84868999 2.00239916 0 0 Z " fill="#29BDEE" transform="translate(217,26)"/>
<path d="M0 0 C0.55561711 2.62275173 1.09492378 5.24707977 1.625 7.875 C1.78484375 8.62136719 1.9446875 9.36773437 2.109375 10.13671875 C2.49370627 12.0758447 2.75531287 14.03835574 3 16 C2.34 16.66 1.68 17.32 1 18 C0.32389577 16.10751181 -0.34050439 14.2108398 -1 12.3125 C-1.37125 11.25675781 -1.7425 10.20101563 -2.125 9.11328125 C-2.9391857 6.21637944 -3.17709796 3.98299377 -3 1 C-1 0 -1 0 0 0 Z " fill="#1CB55D" transform="translate(185,322)"/>
<path d="M0 0 C0.66 0 1.32 0 2 0 C3.36220472 5.3249821 3.36220472 5.3249821 1.625 8.5625 C1.08875 9.366875 0.5525 10.17125 0 11 C-0.70670728 13.69254991 -0.70670728 13.69254991 -1 16 C-1.99 15.67 -2.98 15.34 -4 15 C-2.9318153 9.88634986 -1.76892524 4.92772031 0 0 Z " fill="#19B653" transform="translate(356,312)"/>
<path d="M0 0 C0.33 0.66 0.66 1.32 1 2 C-2.47007921 5.87832382 -5.04015559 7.53459142 -10 9 C-10.33 9.66 -10.66 10.32 -11 11 C-12.32 10.67 -13.64 10.34 -15 10 C-13.35 9.34 -11.7 8.68 -10 8 C-10 7.34 -10 6.68 -10 6 C-7.8125 4.4921875 -7.8125 4.4921875 -5 2.875 C-4.071875 2.33617188 -3.14375 1.79734375 -2.1875 1.2421875 C-1.465625 0.83226563 -0.74375 0.42234375 0 0 Z " fill="#0978CD" transform="translate(78,121)"/>
<path d="M0 0 C0.99 0.33 1.98 0.66 3 1 C3 1.66 3 2.32 3 3 C3.66 3 4.32 3 5 3 C7.61588503 6.55760365 8.49357808 9.64477147 9 14 C8.01 14.33 7.02 14.66 6 15 C5.18618205 13.06305322 4.37399084 11.12542289 3.5625 9.1875 C3.11003906 8.10855469 2.65757812 7.02960938 2.19140625 5.91796875 C1.39624987 3.9704874 0.66520352 1.99561057 0 0 Z " fill="#24BA53" transform="translate(347,268)"/>
<path d="M0 0 C4.493637 1.37305575 6.23029183 3.27820464 9 7 C10.64783606 8.68528688 12.31002677 10.35697047 14 12 C13.34 12 12.68 12 12 12 C11.67 12.66 11.34 13.32 11 14 C10.63648438 13.46890625 10.27296875 12.9378125 9.8984375 12.390625 C6.66594062 7.84855246 3.8464625 4.76940714 -1 2 C-0.67 1.34 -0.34 0.68 0 0 Z " fill="#29BA57" transform="translate(333,253)"/>
<path d="M0 0 C5.61 0.33 11.22 0.66 17 1 C16.34 1.66 15.68 2.32 15 3 C15.33 3.66 15.66 4.32 16 5 C14.02 5 12.04 5 10 5 C9.67 4.34 9.34 3.68 9 3 C7.88625 3.061875 6.7725 3.12375 5.625 3.1875 C4.42875 3.125625 3.2325 3.06375 2 3 C1.34 2.01 0.68 1.02 0 0 Z " fill="#67DD73" transform="translate(296,186)"/>
<path d="M0 0 C4.99464924 0.47568088 8.02785403 1.95160891 12 5 C12.33 5.66 12.66 6.32 13 7 C13.99 7.66 14.98 8.32 16 9 C15.01 9.495 15.01 9.495 14 10 C11.6171875 8.85546875 11.6171875 8.85546875 8.875 7.1875 C7.96492188 6.64480469 7.05484375 6.10210937 6.1171875 5.54296875 C5.41851562 5.03378906 4.71984375 4.52460938 4 4 C4 3.34 4 2.68 4 2 C2.68 1.34 1.36 0.68 0 0 Z " fill="#034EA9" transform="translate(417,206)"/>
<path d="M0 0 C-0.24609375 1.859375 -0.24609375 1.859375 -1 4 C-2.84765625 5.265625 -2.84765625 5.265625 -5.0625 6.25 C-6.16271484 6.75273437 -6.16271484 6.75273437 -7.28515625 7.265625 C-8.13400391 7.62914062 -8.13400391 7.62914062 -9 8 C-8.875 5.6875 -8.875 5.6875 -8 3 C-3.13793103 0 -3.13793103 0 0 0 Z M-12 8 C-11.01 8.33 -10.02 8.66 -9 9 C-9.99 9 -10.98 9 -12 9 C-12 8.67 -12 8.34 -12 8 Z " fill="#64D46F" transform="translate(240,202)"/>
<path d="M0 0 C2.42130331 3.63195496 2.21022785 5.38349348 2.125 9.6875 C2.10695312 10.86699219 2.08890625 12.04648437 2.0703125 13.26171875 C2.03550781 14.61716797 2.03550781 14.61716797 2 16 C1.01 16 0.02 16 -1 16 C-1.02685095 13.52076199 -1.04676547 11.0418116 -1.0625 8.5625 C-1.07506836 7.50192383 -1.07506836 7.50192383 -1.08789062 6.41992188 C-1.09653588 4.61306441 -1.05220011 2.80612397 -1 1 C-0.67 0.67 -0.34 0.34 0 0 Z " fill="#0255B4" transform="translate(152,379)"/>
<path d="M0 0 C0.33 0.66 0.66 1.32 1 2 C-7.42857143 5.42857143 -7.42857143 5.42857143 -12 5 C-8.44416617 1.04907352 -5.38741645 -1.79580548 0 0 Z " fill="#57D76E" transform="translate(275,245)"/>
<path d="M0 0 C2.125 1.875 2.125 1.875 4 4 C4 4.66 4 5.32 4 6 C4.99 6 5.98 6 7 6 C7 4.02 7 2.04 7 0 C7.33 0 7.66 0 8 0 C8 2.97 8 5.94 8 9 C6.68 8.67 5.36 8.34 4 8 C3.67 7.01 3.34 6.02 3 5 C1.01276732 4.29618843 -0.98777953 3.6288189 -3 3 C-3.33 2.34 -3.66 1.68 -4 1 C-2 0 -2 0 0 0 Z " fill="#064CA6" transform="translate(445,221)"/>
<path d="M0 0 C0.66 0.33 1.32 0.66 2 1 C0.92108159 4.12886338 -0.04058583 5.02646902 -2.875 6.875 C-6 8 -6 8 -8.1953125 7.0703125 C-9.08863281 6.54050781 -9.08863281 6.54050781 -10 6 C-8.3811004 4.96951963 -6.75467511 3.95085322 -5.125 2.9375 C-4.22007813 2.36902344 -3.31515625 1.80054688 -2.3828125 1.21484375 C-1.20332031 0.61349609 -1.20332031 0.61349609 0 0 Z " fill="#0658A8" transform="translate(110,202)"/>
<path d="M0 0 C-1.86977097 2.44710376 -2.82502483 2.96931493 -5.91796875 3.51171875 C-7.53638672 3.59873047 -7.53638672 3.59873047 -9.1875 3.6875 C-10.27417969 3.75324219 -11.36085938 3.81898438 -12.48046875 3.88671875 C-13.72763672 3.94279297 -13.72763672 3.94279297 -15 4 C-12.83963386 1.55023901 -11.23682048 0.50550046 -8.0625 -0.25 C-7.39347656 -0.42015625 -6.72445313 -0.5903125 -6.03515625 -0.765625 C-3.76732882 -1.02679515 -2.16439531 -0.67788667 0 0 Z " fill="#77D57E" transform="translate(278,189)"/>
<path d="M0 0 C5.2975334 0.51683253 8.66762987 2.02680481 13 5 C13.9375 7.25 13.9375 7.25 14 9 C10.40241608 7.67726488 7.36262865 6.0805802 4.1875 3.9375 C3.39730469 3.41027344 2.60710937 2.88304688 1.79296875 2.33984375 C1.20128906 1.89769531 0.60960937 1.45554687 0 1 C0 0.67 0 0.34 0 0 Z " fill="#16A1DB" transform="translate(269,107)"/>
<path d="M0 0 C0.99 0 1.98 0 3 0 C3 0.66 3 1.32 3 2 C3.66 2 4.32 2 5 2 C5 3.32 5 4.64 5 6 C5.598125 6.2475 6.19625 6.495 6.8125 6.75 C9.28647521 8.16370012 10.43370255 9.65055383 12 12 C11.67 12.66 11.34 13.32 11 14 C6.33365358 9.68756188 2.8934434 5.67114906 0 0 Z " fill="#0D9D5A" transform="translate(203,371)"/>
<path d="M0 0 C1.43931117 0.45261358 2.87638999 0.91232979 4.3125 1.375 C5.11300781 1.63023437 5.91351563 1.88546875 6.73828125 2.1484375 C9 3 9 3 12 5 C12.6875 7.125 12.6875 7.125 13 9 C7.97290493 7.42903279 3.97133531 4.38006951 0 1 C0 0.67 0 0.34 0 0 Z " fill="#0575BE" transform="translate(352,162)"/>
<path d="M0 0 C0.66 0 1.32 0 2 0 C2.19448477 2.12437212 2.38038289 4.24953191 2.5625 6.375 C2.66691406 7.55835938 2.77132812 8.74171875 2.87890625 9.9609375 C3 13 3 13 2 15 C1.34 15 0.68 15 0 15 C0 10.05 0 5.1 0 0 Z " fill="#025CBB" transform="translate(210,138)"/>
<path d="M0 0 C0.66 0.66 1.32 1.32 2 2 C1.360625 2.804375 0.72125 3.60875 0.0625 4.4375 C-2.59852326 8.35851307 -2.79406347 12.36642801 -3 17 C-3.33 17 -3.66 17 -4 17 C-4 14.03 -4 11.06 -4 8 C-4.66 7.67 -5.32 7.34 -6 7 C-4.02 4.69 -2.04 2.38 0 0 Z " fill="#0467C6" transform="translate(216,130)"/>
<path d="M0 0 C0.99 0 1.98 0 3 0 C3.16831775 2.41656194 3.33471262 4.83323049 3.5 7.25 C3.54769531 7.93191406 3.59539062 8.61382812 3.64453125 9.31640625 C3.86478719 12.55731503 4 15.7493366 4 19 C2.68 19 1.36 19 0 19 C0.16242188 18.47664063 0.32484375 17.95328125 0.4921875 17.4140625 C1.13416547 14.362198 1.13203668 11.49224849 1.125 8.375 C1.12886719 6.65410156 1.12886719 6.65410156 1.1328125 4.8984375 C1.19920447 2.06023956 1.19920447 2.06023956 0 0 Z " fill="#179449" transform="translate(355,293)"/>
<path d="M0 0 C0.99 0.66 1.98 1.32 3 2 C1.68 2.33 0.36 2.66 -1 3 C-1 3.66 -1 4.32 -1 5 C-5.95 7.475 -5.95 7.475 -11 10 C-9.56822654 5.70467962 -6.68588016 3.88977009 -2.75 1.8125 C-1.88375 1.4103125 -1.88375 1.4103125 -1 1 C-0.67 0.67 -0.34 0.34 0 0 Z " fill="#06964A" transform="translate(364,394)"/>
<path d="M0 0 C0.33 0.66 0.66 1.32 1 2 C2.11375 2.1546875 2.11375 2.1546875 3.25 2.3125 C6.96111622 3.24027906 8.51334933 5.16798118 11 8 C11.33 8.66 11.66 9.32 12 10 C6.91061189 8.40956621 3.12543357 5.2553049 -1 2 C-0.67 1.34 -0.34 0.68 0 0 Z " fill="#0461B4" transform="translate(380,179)"/>
<path d="M0 0 C-0.33 1.32 -0.66 2.64 -1 4 C-2.1446875 4.2165625 -2.1446875 4.2165625 -3.3125 4.4375 C-6.08172908 4.9632594 -6.08172908 4.9632594 -9 6 C-9.66 5.34 -10.32 4.68 -11 4 C-9.73308493 3.32591692 -8.46129251 2.66099503 -7.1875 2 C-6.47980469 1.62875 -5.77210938 1.2575 -5.04296875 0.875 C-3 0 -3 0 0 0 Z " fill="#70D77B" transform="translate(254,195)"/>
<path d="M0 0 C-0.33 0.66 -0.66 1.32 -1 2 C-1.98742187 1.98839844 -2.97484375 1.97679687 -3.9921875 1.96484375 C-5.27351563 1.95582031 -6.55484375 1.94679687 -7.875 1.9375 C-9.78925781 1.92009766 -9.78925781 1.92009766 -11.7421875 1.90234375 C-14.88664652 1.76823431 -14.88664652 1.76823431 -17 3 C-17.33 2.01 -17.66 1.02 -18 0 C-11.78675502 -0.73030908 -6.15901243 -1.23180249 0 0 Z " fill="#74D67B" transform="translate(299,187)"/>
<path d="M0 0 C4.43458973 1.3937282 6.87378374 3.60582235 10 7 C5.85463326 6.5289356 3.0080208 6.0080208 0 3 C0 2.01 0 1.02 0 0 Z " fill="#17AEE7" transform="translate(291,50)"/>
<path d="M0 0 C0.33 1.32 0.66 2.64 1 4 C-3.39453125 8.00390625 -3.39453125 8.00390625 -5 9 C-5.99 8.67 -6.98 8.34 -8 8 C-7.67 7.01 -7.34 6.02 -7 5 C-5 4.33333333 -3 3.66666667 -1 3 C-0.67 2.01 -0.34 1.02 0 0 Z " fill="#1AAAE8" transform="translate(189,45)"/>
<path d="M0 0 C0.33 0 0.66 0 1 0 C1.33 3.63 1.66 7.26 2 11 C2.99 10.67 3.98 10.34 5 10 C5 10.99 5 11.98 5 13 C3.0625 13.5625 3.0625 13.5625 1 14 C0 13 0 13 -0.09765625 10.05859375 C-0.08605469 8.86363281 -0.07445313 7.66867188 -0.0625 6.4375 C-0.05347656 5.23996094 -0.04445313 4.04242188 -0.03515625 2.80859375 C-0.02355469 1.88175781 -0.01195313 0.95492187 0 0 Z " fill="#0345AB" transform="translate(22,216)"/>
<path d="M0 0 C0.66 0 1.32 0 2 0 C1.44687265 4.02992782 0.8441938 8.02022924 0 12 C-2.31332486 8.53001271 -2.33957563 7.07490752 -2 3 C-1.34 2.01 -0.68 1.02 0 0 Z " fill="#0CA051" transform="translate(410,322)"/>
<path d="M0 0 C0.99 0 1.98 0 3 0 C2.39294514 4.12797305 1.06000669 7.37438822 -1 11 C-1.99 11.495 -1.99 11.495 -3 12 C-2.01 8.04 -1.02 4.08 0 0 Z " fill="#09A049" transform="translate(402,345)"/>
<path d="M0 0 C3.7952131 1.49097658 5.61042731 3.75700849 8 7 C7.01 7.495 7.01 7.495 6 8 C0.125 4.375 0.125 4.375 -1 1 C-0.67 0.67 -0.34 0.34 0 0 Z " fill="#0350AE" transform="translate(106,398)"/>
<path d="M0 0 C2.31 0.33 4.62 0.66 7 1 C7 1.66 7 2.32 7 3 C7.99 3 8.98 3 10 3 C9.67 4.32 9.34 5.64 9 7 C7.4972763 6.02501855 5.99788037 5.04490611 4.5 4.0625 C3.6646875 3.51722656 2.829375 2.97195312 1.96875 2.41015625 C1.3190625 1.94480469 0.669375 1.47945312 0 1 C0 0.67 0 0.34 0 0 Z " fill="#0C85CD" transform="translate(299,127)"/>
<path d="M0 0 C3.96 1.98 3.96 1.98 8 4 C7.01 4.99 6.02 5.98 5 7 C2.5 5.75 2.5 5.75 0 4 C0 2.68 0 1.36 0 0 Z " fill="#14ACE1" transform="translate(305,59)"/>
<path d="M0 0 C2.875 0.25 2.875 0.25 6 1 C6.66 2.32 7.32 3.64 8 5 C3.545 4.01 3.545 4.01 -1 3 C-0.67 2.01 -0.34 1.02 0 0 Z " fill="#50CE6E" transform="translate(311,241)"/>
<path d="M0 0 C0.99 0.66 1.98 1.32 3 2 C-2.14285714 6.42857143 -2.14285714 6.42857143 -6 7 C-4.19587357 3.73539027 -3.16605307 2.11070205 0 0 Z " fill="#0352B8" transform="translate(52,207)"/>
<path d="M0 0 C2.64 0.99 5.28 1.98 8 3 C8 3.66 8 4.32 8 5 C2.25 5.125 2.25 5.125 0 4 C0 2.68 0 1.36 0 0 Z " fill="#4BD461" transform="translate(338,194)"/>
<path d="M0 0 C3.37462715 0.54723683 5.08235 1.0549 8 3 C8 3.99 8 4.98 8 6 C4.64532525 4.82133049 2.28780716 3.76945078 0 1 C0 0.67 0 0.34 0 0 Z " fill="#056DB6" transform="translate(366,171)"/>
<path d="M0 0 C2.9375 0.75 2.9375 0.75 6 2 C6.875 4.125 6.875 4.125 7 6 C4.0625 5.25 4.0625 5.25 1 4 C0.125 1.875 0.125 1.875 0 0 Z " fill="#0C85D8" transform="translate(288,118)"/>
<path d="M0 0 C4.67461851 -0.32613618 7.16674383 0.29417212 11 3 C10.67 3.99 10.34 4.98 10 6 C6.7 4.35 3.4 2.7 0 1 C0 0.67 0 0.34 0 0 Z " fill="#078B47" transform="translate(237,402)"/>
<path d="M0 0 C3.37462715 0.54723683 5.08235 1.0549 8 3 C8 3.99 8 4.98 8 6 C4.08597051 4.73058503 2.20927127 3.48832306 0 0 Z " fill="#0579C4" transform="translate(339,153)"/>
<path d="M0 0 C3.465 1.98 3.465 1.98 7 4 C7 4.66 7 5.32 7 6 C4.03 5.505 4.03 5.505 1 5 C0.67 3.35 0.34 1.7 0 0 Z " fill="#065AC6" transform="translate(427,141)"/>
<path d="M0 0 C0.99 0.33 1.98 0.66 3 1 C3 2.65 3 4.3 3 6 C2.01 6.495 2.01 6.495 1 7 C0.34 8.32 -0.32 9.64 -1 11 C-0.67 7.37 -0.34 3.74 0 0 Z " fill="#2AB25C" transform="translate(181,283)"/>
<path d="M0 0 C3.465 1.98 3.465 1.98 7 4 C6.01 4.66 5.02 5.32 4 6 C2.35 5.01 0.7 4.02 -1 3 C-0.67 2.01 -0.34 1.02 0 0 Z " fill="#23BAED" transform="translate(278,41)"/>
<path d="M0 0 C0.66 0 1.32 0 2 0 C3.0625 1.8125 3.0625 1.8125 4 4 C3.67 4.99 3.34 5.98 3 7 C2.01 6.67 1.02 6.34 0 6 C-0.38218767 4.34385343 -0.71395102 2.67542976 -1 1 C-0.67 0.67 -0.34 0.34 0 0 Z " fill="#16B157" transform="translate(189,343)"/>
<path d="M0 0 C2.4375 0.75 2.4375 0.75 5 2 C5.8125 4.125 5.8125 4.125 6 6 C4.02 5.01 2.04 4.02 0 3 C0 2.01 0 1.02 0 0 Z " fill="#26A94A" transform="translate(333,253)"/>
<path d="M0 0 C0 0.99 0 1.98 0 3 C-6.625 3.25 -6.625 3.25 -10 1 C-6.59437148 0.22157062 -3.49234244 -0.09978121 0 0 Z " fill="#3CBD5A" transform="translate(324,244)"/>
<path d="M0 0 C2.04119788 1.61594832 4.04072937 3.2856382 6 5 C6 5.66 6 6.32 6 7 C1.32307692 5.52307692 1.32307692 5.52307692 -0.3125 2.875 C-0.539375 2.25625 -0.76625 1.6375 -1 1 C-0.67 0.67 -0.34 0.34 0 0 Z " fill="#0463C2" transform="translate(438,149)"/>
<path d="M0 0 C2.12038635 2.61514317 4.13091744 5.19637616 6 8 C3.23737447 7.6189482 2.15856106 7.16402868 0.1875 5.125 C-0.204375 4.42375 -0.59625 3.7225 -1 3 C-0.67 2.01 -0.34 1.02 0 0 Z " fill="#013D7A" transform="translate(194,385)"/>
<path d="M0 0 C3.96 0.33 7.92 0.66 12 1 C12 1.33 12 1.66 12 2 C6.06 2.495 6.06 2.495 0 3 C0 2.01 0 1.02 0 0 Z " fill="#0BA73A" transform="translate(279,360)"/>
<path d="M0 0 C1.45880109 0.14107747 2.91703551 0.28802415 4.375 0.4375 C5.59316406 0.55931641 5.59316406 0.55931641 6.8359375 0.68359375 C9 1 9 1 11 2 C10.67 2.66 10.34 3.32 10 4 C9.01 3.67 8.02 3.34 7 3 C5.68 3 4.36 3 3 3 C3 2.34 3 1.68 3 1 C2.01 0.67 1.02 0.34 0 0 Z " fill="#5ED370" transform="translate(315,188)"/>
<path d="M0 0 C4.60209225 -0.17700355 6.78370866 -0.10814567 11 2 C6.545 2.495 6.545 2.495 2 3 C1.34 2.01 0.68 1.02 0 0 Z " fill="#5EDD64" transform="translate(296,186)"/>
<path d="M0 0 C0.33 0.66 0.66 1.32 1 2 C0.67 2.99 0.34 3.98 0 5 C-2.5625 6.1875 -2.5625 6.1875 -5 7 C-5 5.68 -5 4.36 -5 3 C-2.5 1.25 -2.5 1.25 0 0 Z " fill="#0F93D3" transform="translate(114,96)"/>
<path d="M0 0 C1.98 0 3.96 0 6 0 C6 0.99 6 1.98 6 3 C3.69 3 1.38 3 -1 3 C-0.67 2.01 -0.34 1.02 0 0 Z " fill="#09883F" transform="translate(271,414)"/>
<path d="M0 0 C1.98 0.66 3.96 1.32 6 2 C5.67 2.99 5.34 3.98 5 5 C3.02 4.34 1.04 3.68 -1 3 C-0.67 2.01 -0.34 1.02 0 0 Z " fill="#044EB6" transform="translate(118,407)"/>
<path d="M0 0 C0.99 0.33 1.98 0.66 3 1 C1.02 2.98 -0.96 4.96 -3 7 C-3.66 6.67 -4.32 6.34 -5 6 C-3.35 4.02 -1.7 2.04 0 0 Z " fill="#089B4F" transform="translate(374,386)"/>
<path d="M0 0 C1.98 0.99 1.98 0.99 4 2 C4 3.98 4 5.96 4 8 C1.44971017 6.72485508 1.06918289 5.59658703 0 3 C0 2.01 0 1.02 0 0 Z " fill="#118F4A" transform="translate(190,349)"/>
<path d="M0 0 C0.99 0 1.98 0 3 0 C2 3 2 3 -1.0625 4.6875 C-2.031875 5.120625 -3.00125 5.55375 -4 6 C-4 5.01 -4 4.02 -4 3 C-3.34 3 -2.68 3 -2 3 C-1.67 2.34 -1.34 1.68 -1 1 C-0.67 0.67 -0.34 0.34 0 0 Z " fill="#0666B4" transform="translate(105,172)"/>
<path d="M0 0 C-2.97 2.475 -2.97 2.475 -6 5 C-6 3.35 -6 1.7 -6 0 C-3 -1 -3 -1 0 0 Z " fill="#086FCE" transform="translate(38,153)"/>
<path d="M0 0 C0.66 0 1.32 0 2 0 C2 2.97 2 5.94 2 9 C-1 6 -1 6 -1.25 3.375 C-1 1 -1 1 0 0 Z " fill="#0250A7" transform="translate(85,350)"/>
<path d="M0 0 C1.98 0.99 3.96 1.98 6 3 C5.01 4.485 5.01 4.485 4 6 C2.02 4.68 0.04 3.36 -2 2 C-1.34 1.34 -0.68 0.68 0 0 Z " fill="#0351AE" transform="translate(434,215)"/>
<path d="M0 0 C0.33 0.99 0.66 1.98 1 3 C1.66 3 2.32 3 3 3 C3.66 4.32 4.32 5.64 5 7 C4.01 7.33 3.02 7.66 2 8 C1.67 7.01 1.34 6.02 1 5 C0.34 4.67 -0.32 4.34 -1 4 C-0.67 2.68 -0.34 1.36 0 0 Z " fill="#00448B" transform="translate(182,369)"/>
<path d="M0 0 C0.99 0.66 1.98 1.32 3 2 C0.69 3.32 -1.62 4.64 -4 6 C-4.33 5.01 -4.66 4.02 -5 3 C-3.35 2.01 -1.7 1.02 0 0 Z " fill="#0462BD" transform="translate(69,196)"/>
</svg>
