<?xml version="1.0" encoding="UTF-8"?>
<svg version="1.1" xmlns="http://www.w3.org/2000/svg" width="2000" height="500">
<path d="M0 0 C4.59969388 3.87026481 9.50745568 8.3079663 12.08984375 13.81640625 C12.57130859 14.71166016 12.57130859 14.71166016 13.0625 15.625 C15.61769921 16.43671228 15.61769921 16.43671228 18.0625 16.625 C18.32804687 16.04363281 18.59359375 15.46226562 18.8671875 14.86328125 C26.00080766 1.50522781 39.06780666 -5.23752057 52.875 -9.625 C73.68151043 -15.93156962 98.69074352 -14.35110539 118.1875 -4.5625 C132.86520125 4.38953451 140.78377839 17.57426285 144.92817688 34.07077026 C147.83940293 49.11178197 147.45177534 64.27631543 147.36668181 79.52788019 C147.34769405 83.51563096 147.34614743 87.50339142 147.34260559 91.49118042 C147.33334908 99.01299644 147.30882373 106.53467878 147.27855712 114.05643642 C147.2448117 122.63224607 147.22847692 131.20806272 147.21347082 139.78392243 C147.18226698 157.39770572 147.12733691 175.0113062 147.0625 192.625 C128.5825 192.625 110.1025 192.625 91.0625 192.625 C91.02511719 183.61960937 90.98773437 174.61421875 90.94921875 165.3359375 C90.91892308 159.61196411 90.88788454 153.88801049 90.85351562 148.1640625 C90.79916736 139.08986255 90.74774886 130.01571744 90.71606445 120.94140625 C90.69296797 114.33065837 90.65944201 107.72005624 90.61379844 101.10942423 C90.59002183 97.61462911 90.5711919 94.11997693 90.56488609 90.625103 C90.5576208 86.70742903 90.52705228 82.79011054 90.49487305 78.87255859 C90.49630814 77.73534866 90.49774323 76.59813873 90.4992218 75.4264679 C90.35909217 63.26844939 88.80744419 49.20713867 80.39453125 39.75 C74.87746349 34.68355367 68.52816006 32.74678891 61.0625 32.625 C50.79700239 33.33477832 41.57713427 35.60824928 34.25 43.1875 C21.19406464 59.65333848 22.5988066 82.15079044 22.55078125 101.90234375 C22.53391005 104.52650276 22.51575657 107.1506538 22.49638367 109.77479553 C22.4530273 115.93664784 22.42429229 122.09847434 22.40106028 128.26043183 C22.37116164 135.97774141 22.32130012 143.69490708 22.27148438 151.41210938 C22.18289269 165.14969522 22.12404735 178.88720737 22.0625 192.625 C3.5825 192.625 -14.8975 192.625 -33.9375 192.625 C-33.98648438 183.82457031 -34.03546875 175.02414062 -34.0859375 165.95703125 C-34.12585058 159.65343094 -34.16697221 153.34984753 -34.20983124 147.04626751 C-34.26511141 138.89227689 -34.31759346 130.73830068 -34.359375 122.58422852 C-34.39247872 116.12550627 -34.43240898 109.66686707 -34.48029006 103.20823687 C-34.50537392 99.79342388 -34.52720685 96.37866466 -34.54084396 92.96378517 C-34.55784868 89.13695168 -34.58691731 85.31037853 -34.61865234 81.48364258 C-34.62081253 80.37088959 -34.62297272 79.2581366 -34.62519836 78.11166382 C-34.77149402 64.20447044 -35.92466192 48.7218677 -46.0234375 38.21484375 C-49.0987188 35.66047745 -52.06136276 34.4831317 -55.9375 33.625 C-56.61425781 33.47289062 -57.29101562 33.32078125 -57.98828125 33.1640625 C-67.71783779 31.56322139 -77.60693968 33.36729273 -85.7890625 38.875 C-97.59489342 48.49138592 -100.63780277 64.6579028 -102.20158386 79.05657959 C-103.21307262 90.49405617 -103.16666457 101.95194227 -103.25390625 113.42578125 C-103.27451367 115.7164901 -103.29551103 118.00719546 -103.31687927 120.29789734 C-103.37170919 126.28674478 -103.42128853 132.27562427 -103.46972656 138.26452637 C-103.52913041 145.47179367 -103.59514037 152.67900321 -103.66002655 159.88622284 C-103.7575433 170.79911287 -103.84673571 181.71204232 -103.9375 192.625 C-122.4175 192.625 -140.8975 192.625 -159.9375 192.625 C-159.96004429 166.43512484 -159.97847757 140.24525749 -159.98931217 114.0553751 C-159.99447582 101.89588131 -160.00151983 89.73639396 -160.01293945 77.5769043 C-160.02288419 66.98284032 -160.02935292 56.388781 -160.03158849 45.79471248 C-160.03289596 40.18150597 -160.03598406 34.5683128 -160.04323006 28.95511055 C-160.04998696 23.67833464 -160.05211764 18.40157765 -160.05060768 13.12479782 C-160.05088416 11.18208527 -160.05289123 9.23937212 -160.05670547 7.29666328 C-160.06163758 4.65641574 -160.06050009 2.01624084 -160.05775452 -0.62400818 C-160.06066736 -1.40317594 -160.0635802 -2.18234371 -160.06658131 -2.98512262 C-160.05162121 -8.26087879 -160.05162121 -8.26087879 -158.9375 -9.375 C-155.83498799 -9.46374135 -152.7548188 -9.49018455 -149.65234375 -9.47265625 C-148.72152481 -9.4712413 -147.79070587 -9.46982635 -146.8316803 -9.46836853 C-143.84608809 -9.46275172 -140.86056971 -9.4501964 -137.875 -9.4375 C-135.85612087 -9.43248716 -133.83724057 -9.42792388 -131.81835938 -9.42382812 C-126.85804428 -9.41277683 -121.89778468 -9.39550095 -116.9375 -9.375 C-113.70703125 -0.875 -113.70703125 -0.875 -112.55078125 3.125 C-112.2269043 4.23681641 -112.2269043 4.23681641 -111.89648438 5.37109375 C-111.57647461 6.48677734 -111.57647461 6.48677734 -111.25 7.625 C-111.02505859 8.39972656 -110.80011719 9.17445313 -110.56835938 9.97265625 C-110.02196633 11.85596846 -109.47933106 13.74037024 -108.9375 15.625 C-105.40018418 14.44589473 -104.86922631 13.4699371 -102.75 10.5 C-93.1791584 -2.04931928 -79.05517956 -9.56645402 -63.49511719 -12.08203125 C-42.01838193 -14.54213838 -17.95614891 -13.30760274 0 0 Z " fill="#FFFFFF" transform="translate(1021.9375,226.375)"/>
<path d="M0 0 C0.71784668 0.20753906 1.43569336 0.41507813 2.17529297 0.62890625 C15.65251198 4.57662925 28.08120359 9.9867527 39 19 C39.99 19.639375 40.98 20.27875 42 20.9375 C45.09739151 23.06695666 47.4033633 25.2825895 50 28 C51.00546875 28.93972656 51.00546875 28.93972656 52.03125 29.8984375 C58.84598137 36.36309705 63.78105737 43.6058808 68.578125 51.64453125 C69.41771339 53.03538784 70.28510068 54.41109678 71.2109375 55.74609375 C85.05281819 75.85862508 87.75380604 107.80489212 83.7890625 131.35546875 C81.19190174 143.35126575 77.98985736 154.20184618 72 165 C71.20047083 166.57937762 70.40780282 168.16226567 69.625 169.75 C68.820625 171.35875 68.820625 171.35875 68 173 C67.34 173 66.68 173 66 173 C65.74605469 173.72574219 65.49210938 174.45148438 65.23046875 175.19921875 C63.0727872 180.11051294 59.41640144 183.91038502 56 188 C55.47535156 188.67289063 54.95070313 189.34578125 54.41015625 190.0390625 C46.66470677 199.6174046 35.76799836 207.19495596 25 213 C24.21496094 213.43828125 23.42992187 213.8765625 22.62109375 214.328125 C16.96239979 217.34367299 11.23235767 219.31904104 5.078125 221.09375 C2.55165607 221.83758349 0.1443468 222.68727221 -2.3125 223.625 C-19.2710254 229.23695325 -39.48734963 227.81949614 -57 226 C-57 225.34 -57 224.68 -57 224 C-57.94875 223.9175 -58.8975 223.835 -59.875 223.75 C-64.91622959 223.01544958 -69.34794663 221.00444179 -74 219 C-75.25113863 218.46706403 -76.50245092 217.93453562 -77.75390625 217.40234375 C-81.17355002 215.94476951 -84.58783237 214.47500042 -88 213 C-88 212.34 -88 211.68 -88 211 C-88.78375 210.814375 -89.5675 210.62875 -90.375 210.4375 C-95.50558683 208.40295695 -99.58901736 205.27825296 -104 202 C-104.79148438 201.42765625 -105.58296875 200.8553125 -106.3984375 200.265625 C-114.84653507 193.98000975 -127.2370099 182.77942521 -129 172 C-129.66 172 -130.32 172 -131 172 C-133.06702956 167.91819725 -135.11498397 163.82784672 -137.14111328 159.72558594 C-137.81845699 158.36473734 -138.51347054 157.01268366 -139.21484375 155.6640625 C-146.55650382 140.74486573 -147.210019 123.29188436 -148 107 C-148.03802734 106.26023926 -148.07605469 105.52047852 -148.11523438 104.75830078 C-148.23313771 100.58594561 -147.66289643 96.99404663 -146.55712891 93.01367188 C-145.99816811 90.99337885 -145.54082014 88.97208202 -145.10546875 86.921875 C-139.34793977 60.48174735 -125.27067413 35.9447628 -103 20 C-102.29617187 19.443125 -101.59234375 18.88625 -100.8671875 18.3125 C-99 17 -99 17 -97 17 C-96.505 15.515 -96.505 15.515 -96 14 C-93.478592 12.40091227 -91.01972379 10.99029572 -88.375 9.625 C-87.60736328 9.22651855 -86.83972656 8.82803711 -86.04882812 8.41748047 C-74.65642884 2.6531894 -63.05531444 -0.46474059 -50.484375 -2.421875 C-47.03852176 -2.90011447 -47.03852176 -2.90011447 -44 -4 C-28.76539387 -6.44841884 -14.65527256 -4.34838038 0 0 Z M-63 60 C-64.13115234 60.53173828 -64.13115234 60.53173828 -65.28515625 61.07421875 C-68.01140523 62.54602059 -69.87360238 64.76987567 -72 67 C-72.763125 67.70125 -73.52625 68.4025 -74.3125 69.125 C-87.17272622 82.88245131 -91.79836494 97.55580495 -91.37890625 116.05859375 C-90.77740259 127.11203202 -86.89724333 137.33133352 -80 146 C-79.48695313 146.73734375 -78.97390625 147.4746875 -78.4453125 148.234375 C-77.96835938 148.81703125 -77.49140625 149.3996875 -77 150 C-76.34 150 -75.68 150 -75 150 C-74.938125 150.5775 -74.87625 151.155 -74.8125 151.75 C-73.66289022 154.93353478 -71.74323838 156.10585921 -69 158 C-67.515 158.495 -67.515 158.495 -66 159 C-65.566875 159.474375 -65.13375 159.94875 -64.6875 160.4375 C-62.38984098 162.56496206 -59.97249204 163.14128008 -57 164 C-57 164.66 -57 165.32 -57 166 C-54.81426438 166.65177969 -52.6263177 167.29614674 -50.4375 167.9375 C-49.21933594 168.29714844 -48.00117188 168.65679687 -46.74609375 169.02734375 C-31.59574323 172.96106354 -16.27315471 170.91713098 -2.41015625 163.640625 C11.19442915 155.58200204 22.04191163 144.18672376 26.39453125 128.65625 C29.88475343 113.34430755 29.29826437 94.96364538 21.3125 81.0625 C20.549375 80.051875 19.78625 79.04125 19 78 C18.39800781 77.19175781 17.79601562 76.38351562 17.17578125 75.55078125 C13.47024093 70.71593341 10.26081412 67.05861286 5 64 C4.54238281 63.52304688 4.08476562 63.04609375 3.61328125 62.5546875 C-4.97825122 54.27519616 -19.75434452 51.16272606 -31.25 50.8125 C-43.24962231 51.05822605 -52.48697651 54.64240149 -63 60 Z " fill="#F6F6F6" transform="translate(329,190)"/>
<path d="M0 0 C0.61746094 0.46277344 1.23492187 0.92554688 1.87109375 1.40234375 C1.87109375 2.06234375 1.87109375 2.72234375 1.87109375 3.40234375 C2.70640625 3.62019531 3.54171875 3.83804687 4.40234375 4.0625 C8.66001729 5.70707435 11.78670879 8.06285055 15.37109375 10.83984375 C19.74715487 14.20366447 23.90039646 16.95270414 28.87109375 19.40234375 C29.89747814 20.37524409 30.89943627 21.37478269 31.87109375 22.40234375 C33.45041251 23.48131196 35.05848726 24.51865696 36.68359375 25.52734375 C37.64523437 26.13191406 38.606875 26.73648438 39.59765625 27.359375 C41.31532812 28.43138262 43.03319651 29.50307964 44.75292969 30.57177734 C46.69218763 31.77981583 48.62556677 32.99686656 50.55859375 34.21484375 C51.18290283 34.59979004 51.80721191 34.98473633 52.45043945 35.38134766 C53.95905043 36.33502114 55.42048654 37.36256544 56.87109375 38.40234375 C56.87109375 39.06234375 56.87109375 39.72234375 56.87109375 40.40234375 C58.12599609 40.73105469 58.12599609 40.73105469 59.40625 41.06640625 C63.63805375 42.69806001 66.74415526 45.02152152 70.30859375 47.77734375 C75.00924211 51.37620248 79.6662329 54.56821307 84.87109375 57.40234375 C84.87109375 58.06234375 84.87109375 58.72234375 84.87109375 59.40234375 C86.1240625 59.72912109 86.1240625 59.72912109 87.40234375 60.0625 C91.66001729 61.70707435 94.78670879 64.06285055 98.37109375 66.83984375 C102.72273739 70.18489507 106.83982585 73.11187457 111.87109375 75.40234375 C111.87109375 76.06234375 111.87109375 76.72234375 111.87109375 77.40234375 C112.53238281 77.62148437 113.19367188 77.840625 113.875 78.06640625 C117.86765955 79.84670555 121.24569983 82.2631382 124.80859375 84.77734375 C126.19245612 85.7438508 127.57656688 86.71000232 128.9609375 87.67578125 C129.62899414 88.14290527 130.29705078 88.6100293 130.98535156 89.09130859 C134.76965358 91.72229019 138.61087339 94.25008781 142.51953125 96.69140625 C143.43798828 97.26761719 143.43798828 97.26761719 144.375 97.85546875 C145.64275403 98.64946919 146.91370308 99.43838692 148.1875 100.22265625 C149.78324948 101.22978172 151.33217858 102.31034641 152.87109375 103.40234375 C152.87109375 104.06234375 152.87109375 104.72234375 152.87109375 105.40234375 C153.58652344 105.67046875 154.30195313 105.93859375 155.0390625 106.21484375 C157.91238314 107.41965682 160.50447001 108.81471487 163.18359375 110.40234375 C164.06660156 110.91796875 164.94960938 111.43359375 165.859375 111.96484375 C166.85517578 112.67640625 166.85517578 112.67640625 167.87109375 113.40234375 C167.87109375 114.06234375 167.87109375 114.72234375 167.87109375 115.40234375 C168.89203125 115.74265625 168.89203125 115.74265625 169.93359375 116.08984375 C179.04241787 120.15974389 184.88767673 126.96490321 189.87109375 135.40234375 C190.73734375 136.73265625 190.73734375 136.73265625 191.62109375 138.08984375 C193.87879256 142.26658655 193.99517773 146.4331409 193.98461914 151.1105957 C193.98454361 152.23138016 193.98446808 153.35216461 193.98439026 154.50691223 C193.97664833 156.30560005 193.97664833 156.30560005 193.96875 158.140625 C193.96662758 159.99448067 193.96662758 159.99448067 193.96446228 161.88578796 C193.95981993 165.1589272 193.95084686 168.43201662 193.9397583 171.70513916 C193.92949779 175.05016623 193.92504006 178.39519548 193.91992188 181.74023438 C193.90890282 188.29429025 193.89217211 194.84831293 193.87109375 201.40234375 C192.88109375 201.73234375 191.89109375 202.06234375 190.87109375 202.40234375 C189.14453125 201.3984375 189.14453125 201.3984375 187.24609375 199.83984375 C181.84952895 195.57733967 176.16020002 191.85738595 170.36328125 188.1640625 C169.43733154 187.57298706 169.43733154 187.57298706 168.49267578 186.9699707 C167.27413482 186.19348067 166.05383996 185.41973396 164.83154297 184.64916992 C162.19263535 182.96989901 159.68387482 181.25162137 157.24609375 179.2890625 C154.28036118 176.93306113 151.13002725 175.34932176 147.76171875 173.6484375 C145.87109375 172.40234375 145.87109375 172.40234375 144.87109375 169.40234375 C143.55130116 169.0188905 142.21365397 168.69631814 140.87109375 168.40234375 C139.09172856 167.47761305 137.34218489 166.49397573 135.62109375 165.46484375 C134.7290625 164.94019531 133.83703125 164.41554687 132.91796875 163.875 C132.2425 163.38902344 131.56703125 162.90304688 130.87109375 162.40234375 C130.87109375 161.74234375 130.87109375 161.08234375 130.87109375 160.40234375 C130.21109375 160.17546875 129.55109375 159.94859375 128.87109375 159.71484375 C118.83109375 155.32234375 118.83109375 155.32234375 116.87109375 151.40234375 C115.11114523 150.34752118 113.3128424 149.35601758 111.49609375 148.40234375 C108.51080448 146.82699321 105.68206824 145.27632674 102.87109375 143.40234375 C102.87109375 142.74234375 102.87109375 142.08234375 102.87109375 141.40234375 C102.02546875 141.17546875 101.17984375 140.94859375 100.30859375 140.71484375 C96.36722519 139.20995757 92.98347516 137.2753112 89.87109375 134.40234375 C89.87109375 133.74234375 89.87109375 133.08234375 89.87109375 132.40234375 C89.319375 132.29792969 88.76765625 132.19351563 88.19921875 132.0859375 C85.37520866 131.25673991 83.14554459 129.97434725 80.62109375 128.46484375 C79.7290625 127.94019531 78.83703125 127.41554687 77.91796875 126.875 C77.2425 126.38902344 76.56703125 125.90304688 75.87109375 125.40234375 C75.87109375 124.74234375 75.87109375 124.08234375 75.87109375 123.40234375 C75.12730469 123.12519531 74.38351562 122.84804687 73.6171875 122.5625 C71.11870608 121.50695379 69.15061537 120.38078353 66.93359375 118.83984375 C62.95504243 116.12327031 58.92964834 113.49680149 54.87109375 110.90234375 C39.87295875 101.27685441 39.87295875 101.27685441 34.609375 96.6953125 C31.42211849 94.32456665 27.870414 92.57487815 24.359375 90.734375 C21.87109375 89.40234375 21.87109375 89.40234375 18.87109375 87.40234375 C18.87109375 86.74234375 18.87109375 86.08234375 18.87109375 85.40234375 C18.21109375 85.17546875 17.55109375 84.94859375 16.87109375 84.71484375 C12.98450747 83.01446225 9.23429558 81.00611291 5.87109375 78.40234375 C5.87109375 77.74234375 5.87109375 77.08234375 5.87109375 76.40234375 C5.02675781 76.17417969 4.18242187 75.94601563 3.3125 75.7109375 C-0.73922099 74.17027174 -3.74883514 72.04956941 -7.19140625 69.46484375 C-9.49347939 67.76244951 -11.80615836 66.07638991 -14.12890625 64.40234375 C-14.97324219 63.78230469 -15.81757813 63.16226563 -16.6875 62.5234375 C-19.96496747 61.01842444 -21.70249696 61.39060872 -25.12890625 62.40234375 C-27.53161594 63.71396264 -27.53161594 63.71396264 -29.75390625 65.46484375 C-33.51356744 68.22381316 -37.30312207 70.88916505 -41.19140625 73.46484375 C-42.20460937 74.13773437 -43.2178125 74.810625 -44.26171875 75.50390625 C-45.98528523 76.64512329 -47.70914795 77.78589335 -49.43359375 78.92578125 C-55.05228779 82.65099598 -60.58885528 86.48846753 -66.11328125 90.3515625 C-73.54033482 95.40234375 -73.54033482 95.40234375 -76.12890625 95.40234375 C-76.12890625 96.06234375 -76.12890625 96.72234375 -76.12890625 97.40234375 C-78.68359375 99.12890625 -78.68359375 99.12890625 -82.00390625 101.02734375 C-83.09445313 101.65898437 -84.185 102.290625 -85.30859375 102.94140625 C-88.12890625 104.40234375 -88.12890625 104.40234375 -90.12890625 104.40234375 C-90.12890625 105.06234375 -90.12890625 105.72234375 -90.12890625 106.40234375 C-92.46484375 108.12890625 -92.46484375 108.12890625 -95.50390625 110.02734375 C-96.50164062 110.65898437 -97.499375 111.290625 -98.52734375 111.94140625 C-101.12890625 113.40234375 -101.12890625 113.40234375 -103.12890625 113.40234375 C-103.12890625 114.06234375 -103.12890625 114.72234375 -103.12890625 115.40234375 C-105.4296875 117.09375 -105.4296875 117.09375 -108.44140625 118.96484375 C-109.92060547 119.89490234 -109.92060547 119.89490234 -111.4296875 120.84375 C-114.12890625 122.40234375 -114.12890625 122.40234375 -117.12890625 123.40234375 C-117.66515625 123.97984375 -118.20140625 124.55734375 -118.75390625 125.15234375 C-121.58082397 127.83047632 -124.56228174 129.38409674 -128.0078125 131.15625 C-130.10697741 132.38946106 -131.42332395 133.68810367 -133.12890625 135.40234375 C-134.78853809 136.50786836 -136.47878731 137.56832583 -138.19140625 138.58984375 C-139.06925781 139.11964844 -139.94710937 139.64945313 -140.8515625 140.1953125 C-143.12890625 141.40234375 -143.12890625 141.40234375 -145.12890625 141.40234375 C-145.12890625 142.06234375 -145.12890625 142.72234375 -145.12890625 143.40234375 C-147.10546875 144.734375 -147.10546875 144.734375 -149.75390625 146.21484375 C-152.81324759 147.98332377 -155.66207775 149.69124537 -158.31640625 152.02734375 C-160.80641504 154.13001784 -163.22787486 155.62351295 -166.078125 157.171875 C-168.7208379 158.75750274 -171.15195936 160.56919974 -173.62890625 162.40234375 C-176.5826813 164.58452042 -179.46693309 166.70396125 -182.69140625 168.46484375 C-185.71167139 170.16717501 -188.38995317 171.99712403 -191.19140625 174.02734375 C-194.7779274 176.59695494 -197.89699704 178.10021784 -202.12890625 179.40234375 C-202.45890625 180.39234375 -202.78890625 181.38234375 -203.12890625 182.40234375 C-205.34375 184.0078125 -205.34375 184.0078125 -208.06640625 185.58984375 C-208.96230469 186.11964844 -209.85820312 186.64945313 -210.78125 187.1953125 C-213.12890625 188.40234375 -213.12890625 188.40234375 -215.12890625 188.40234375 C-215.12890625 189.06234375 -215.12890625 189.72234375 -215.12890625 190.40234375 C-217.35162712 191.96835163 -219.56579329 193.41939045 -221.87890625 194.83984375 C-223.14539431 195.62882462 -224.41104123 196.41915755 -225.67578125 197.2109375 C-226.57780273 197.76950439 -226.57780273 197.76950439 -227.49804688 198.33935547 C-229.28566475 199.46335263 -229.28566475 199.46335263 -231.39453125 201.25 C-232.25304687 201.82041016 -232.25304687 201.82041016 -233.12890625 202.40234375 C-234.11890625 202.07234375 -235.10890625 201.74234375 -236.12890625 201.40234375 C-236.18006234 194.51964532 -236.2148292 187.63699681 -236.23876953 180.75415039 C-236.24876122 178.41786873 -236.26235913 176.08159936 -236.27978516 173.74536133 C-236.54334646 137.47467526 -236.54334646 137.47467526 -227.69140625 127.71484375 C-226.84578125 126.95171875 -226.00015625 126.18859375 -225.12890625 125.40234375 C-224.36578125 124.57734375 -223.60265625 123.75234375 -222.81640625 122.90234375 C-218.92246162 119.28006968 -214.61543351 115.40234375 -209.12890625 115.40234375 C-208.78279297 114.50515625 -208.78279297 114.50515625 -208.4296875 113.58984375 C-206.78529336 110.82449624 -205.1187281 109.94845236 -202.31640625 108.40234375 C-198.60933827 106.33849955 -195.42712273 104.06767314 -192.12890625 101.40234375 C-190.39547609 100.25197646 -188.64483264 99.1271751 -186.87890625 98.02734375 C-180.11571826 93.77205813 -173.48291262 89.36616165 -166.94140625 84.77734375 C-166.11125 84.19597656 -165.28109375 83.61460938 -164.42578125 83.015625 C-163.03626959 82.03965848 -161.64988958 81.05918265 -160.26953125 80.0703125 C-157.61958265 78.21403663 -156.45265817 77.40234375 -153.12890625 77.40234375 C-152.63390625 75.91734375 -152.63390625 75.91734375 -152.12890625 74.40234375 C-149.9765625 72.82421875 -149.9765625 72.82421875 -147.19140625 71.15234375 C-143.51013553 68.88876394 -139.90118675 66.5939188 -136.37890625 64.08984375 C-132.17949536 61.11414654 -127.91809434 58.24598964 -123.62890625 55.40234375 C-119.49021277 52.6570053 -115.36998706 49.89775503 -111.31640625 47.02734375 C-105.86838337 43.1763125 -100.30078941 39.50827682 -94.74316406 35.81835938 C-89.87854601 32.58343936 -85.06141172 29.29356755 -80.29296875 25.91796875 C-77.30741597 23.82700399 -74.26656922 21.82308646 -71.2265625 19.8125 C-69.24846512 18.48271759 -67.30983174 17.11194967 -65.37890625 15.71484375 C-62.67564946 13.79137257 -59.96978813 12.10519931 -57.12890625 10.40234375 C-55.22549432 9.16391449 -53.33007756 7.91313902 -51.44140625 6.65234375 C-49.86166016 5.60240234 -49.86166016 5.60240234 -48.25 4.53125 C-45.44368134 2.61705266 -42.72853857 0.61717681 -40.00390625 -1.41015625 C-26.3056927 -11.02524845 -13.51408676 -8.08376879 0 0 Z " fill="#F5F5F5" transform="translate(260.12890625,26.59765625)"/>
<path d="M0 0 C18.48 0 36.96 0 56 0 C56.08021762 19.29233729 56.08021762 19.29233729 56.09765625 27.66992188 C56.10950058 33.33264019 56.12333603 38.9952924 56.15087891 44.65795898 C56.34106813 84.773945 56.34106813 84.773945 54 104 C57.19263429 100.83758717 60.1762155 97.62990868 63.0625 94.1875 C73.77523041 82.26670049 88.29837822 75.82083335 104.20361328 74.79296875 C127.05300219 74.16399632 149.62119655 75.5360992 167.53515625 91.4296875 C183.27110029 107.83896037 187.5253371 128.95493106 187.34057617 151.03515625 C187.33972672 152.45621726 187.34021122 153.87727958 187.34190369 155.29833984 C187.34275268 159.0990441 187.32530824 162.89945526 187.30418181 166.70009232 C187.28522873 170.69319358 187.28365009 174.68630405 187.28010559 178.67944336 C187.27083917 186.21549207 187.24629987 193.75140778 187.21605712 201.28739834 C187.18234323 209.87767172 187.16598471 218.46795198 187.15097082 227.05827522 C187.11974443 244.70560718 187.06480138 262.35275719 187 280 C168.52 280 150.04 280 131 280 C130.96261719 270.83863281 130.92523437 261.67726563 130.88671875 252.23828125 C130.85642661 246.41860493 130.8253907 240.59894814 130.79101562 234.77929688 C130.73664613 225.55136938 130.68522837 216.32349607 130.65356445 207.09545898 C130.63048391 200.37302057 130.59697518 193.65072586 130.55129844 186.92840165 C130.5275007 183.37383487 130.50868441 179.81940922 130.50238609 176.26476479 C130.49513308 172.28218208 130.46458283 168.30008614 130.43237305 164.31762695 C130.43380814 163.15812027 130.43524323 161.99861359 130.4367218 160.80397034 C130.28950094 147.84924363 127.9865323 137.31687282 119.75 127.25 C112.57571902 121.38013374 104.82934036 119.67148801 95.7421875 120.18359375 C85.50385839 121.27493213 75.90445645 124.00017671 69.0625 132.125 C55.52791035 151.88352503 56.85535376 177.0517574 56.68359375 199.921875 C56.66299073 202.23643334 56.64199346 204.55098819 56.62062073 206.86553955 C56.56574548 212.92180543 56.51618559 218.9781033 56.46777344 225.03442383 C56.40841191 232.32009332 56.34237631 239.60570507 56.27747345 246.8913269 C56.17989942 257.92751565 56.09074599 268.96374349 56 280 C37.52 280 19.04 280 0 280 C0 187.6 0 95.2 0 0 Z " fill="#FFFFFF" transform="translate(1401,139)"/>
<path d="M0 0 C13.39146861 12.26280269 17.84749198 29.92348531 18.96484375 47.3828125 C19.29370873 57.27466912 19.20566373 67.17723435 19.16763163 77.07325935 C19.15498957 80.926233 19.15394329 84.77921096 19.15158081 88.63220215 C19.14540512 95.90259676 19.12904823 103.17293005 19.10888183 110.44329786 C19.08639984 118.73128973 19.07549871 127.01928477 19.06549096 135.30729961 C19.04467775 152.33251197 19.00805147 169.35764001 18.96484375 186.3828125 C5.76484375 186.3828125 -7.43515625 186.3828125 -21.03515625 186.3828125 C-24.33515625 178.1328125 -27.63515625 169.8828125 -31.03515625 161.3828125 C-31.69515625 161.3828125 -32.35515625 161.3828125 -33.03515625 161.3828125 C-34.39709428 162.81658901 -35.69921872 164.30738582 -36.97265625 165.8203125 C-49.439374 179.87768004 -65.13284221 188.8006462 -84.03515625 190.3828125 C-100.61867814 191.14120974 -117.04098469 191.43978993 -132.03515625 183.3828125 C-132.85628906 182.95097656 -133.67742187 182.51914062 -134.5234375 182.07421875 C-148.17007429 174.43293047 -155.4253985 162.931018 -159.69140625 148.1015625 C-164.25489591 129.04228217 -162.96474735 108.65290331 -152.78515625 91.6328125 C-141.85626181 75.32068344 -122.83130839 68.94779013 -104.41015625 65.1328125 C-82.23155786 60.88852286 -59.53658246 60.87314387 -37.03515625 60.3828125 C-37.16011974 57.84314667 -37.2942596 55.30451008 -37.43359375 52.765625 C-37.46767334 52.0538208 -37.50175293 51.3420166 -37.53686523 50.60864258 C-37.98062484 42.79578409 -39.37402547 35.38660715 -45.34765625 29.8828125 C-55.92222134 22.02548041 -69.49750815 22.19628173 -82.07421875 23.84375 C-95.18116373 26.07639594 -108.00134652 30.292093 -120.08984375 35.81640625 C-122.61750597 36.55237216 -123.60789225 36.4345039 -126.03515625 35.3828125 C-127.72680664 32.84179688 -127.72680664 32.84179688 -129.3828125 29.4765625 C-129.68078232 28.87783325 -129.97875214 28.279104 -130.28575134 27.66223145 C-130.91496936 26.39102894 -131.53741297 25.11645416 -132.15356445 23.83886719 C-133.08412961 21.9108382 -134.03500134 19.99403117 -134.99023438 18.078125 C-138.16607248 11.64668384 -140.98949127 5.27662854 -143.03515625 -1.6171875 C-101.38943738 -22.94484353 -38.97096222 -30.9673289 0 0 Z M-96.91015625 105.5703125 C-103.71490962 113.08288892 -104.47905714 121.01355937 -104.46875 130.8671875 C-103.68407686 137.22940215 -100.92645132 141.17612829 -96.03515625 145.05859375 C-87.85216774 150.47662716 -78.31420496 150.31765846 -68.88671875 148.9140625 C-58.61057278 146.69504898 -49.61496638 141.69969251 -43.03515625 133.3828125 C-37.34294655 124.35379022 -36.75559811 115.90176486 -36.91015625 105.4453125 C-36.91917969 104.28451172 -36.92820312 103.12371094 -36.9375 101.92773438 C-36.96094463 99.07921142 -36.99376103 96.23112172 -37.03515625 93.3828125 C-68.98796406 92.43483312 -68.98796406 92.43483312 -96.91015625 105.5703125 Z " fill="#FFFFFF" transform="translate(1350.03515625,232.6171875)"/>
<path d="M0 0 C18.48 0 36.96 0 56 0 C56.03738281 9.23355469 56.07476563 18.46710938 56.11328125 27.98046875 C56.1435731 33.84571788 56.17460879 39.71094761 56.20898438 45.57617188 C56.26335561 54.8765279 56.31477331 64.17683014 56.34643555 73.47729492 C56.36951478 80.2524704 56.40302211 87.02750326 56.44870156 93.8025654 C56.47250103 97.3850777 56.4913162 100.96744993 56.49761391 104.55003929 C56.5048659 108.56375351 56.53541471 112.57698454 56.56762695 116.59057617 C56.56619186 117.75943359 56.56475677 118.92829102 56.5632782 120.13256836 C56.68708514 131.11006729 58.02088676 143.07824699 65 152 C71.56952125 158.29805343 78.97782572 160.88197737 88 161 C99.545298 160.15815535 110.00712416 157.85748981 118 149 C132.12939327 130.89671487 130.30462959 103.64249941 130.4140625 81.93359375 C130.43281379 79.55891782 130.45239 77.18424827 130.4727478 74.80958557 C130.52365706 68.61695148 130.56350098 62.42429588 130.60089111 56.23156738 C130.6483012 48.77053932 130.70971926 41.30961449 130.76873779 33.84867096 C130.85644639 22.56582327 130.92657071 11.28299028 131 0 C149.48 0 167.96 0 187 0 C187 66.66 187 133.32 187 202 C172.48 202 157.96 202 143 202 C140.69 194.08 138.38 186.16 136 178 C132.64820682 179.11726439 131.98292595 179.95449967 129.8125 182.625 C117.93333055 196.41858106 102.10522433 204.10063637 84 206 C62.15167133 207.37655642 39.25654307 205.31932258 21.375 191.375 C9.43869365 180.35687107 3.9127183 166.6460206 1 151 C0.82541763 150.06997665 0.65083527 149.13995331 0.47096252 148.18174744 C-0.36852381 142.15895825 -0.13044421 136.05381489 -0.11352539 129.98657227 C-0.11324301 128.5668386 -0.11340225 127.14710479 -0.1139679 125.72737122 C-0.11425389 121.88905226 -0.10838923 118.05076479 -0.10139394 114.21245313 C-0.09512736 110.19526153 -0.09455399 106.17806915 -0.09336853 102.16087341 C-0.09026494 94.56083302 -0.08206469 86.96080707 -0.07201904 79.36077303 C-0.06082767 70.70539647 -0.05533984 62.05001922 -0.05032361 53.39463723 C-0.03988124 35.59641497 -0.02154787 17.79821251 0 0 Z " fill="#FFFFFF" transform="translate(642,217)"/>
<path d="M0 0 C2.01882674 -0.00961117 4.03659105 -0.04065578 6.05517578 -0.07226562 C28.8975909 -0.16158103 51.90816196 6.70064877 69.05126953 22.24023438 C69.80923828 22.91699219 70.56720703 23.59375 71.34814453 24.29101562 C92.82446177 44.54540447 100.10205333 73.01706271 101.01611328 101.56054688 C101.47554192 129.42610282 95.73877638 160.42902318 75.98095703 181.41601562 C71.87470784 185.29783419 67.55855927 188.83513707 63.05126953 192.24023438 C62.23142578 192.86027344 61.41158203 193.4803125 60.56689453 194.11914062 C38.14672908 209.68096354 7.0223628 212.6278042 -19.26123047 207.99023438 C-35.73144678 204.72112828 -50.2395517 198.2669816 -62.94873047 187.24023438 C-63.77373047 186.60730469 -64.59873047 185.974375 -65.44873047 185.32226562 C-83.62117779 170.18802434 -92.6306804 144.13097879 -94.94873047 121.24023438 C-95.08279297 119.94472656 -95.21685547 118.64921875 -95.35498047 117.31445312 C-97.78134963 89.38224579 -93.74005153 56.29932243 -75.68847656 33.65966797 C-55.96468671 10.40538379 -30.33290683 0.08685156 0 0 Z M-26.70263672 56.31445312 C-28.26901479 58.56391336 -29.6370043 60.83406183 -30.94873047 63.24023438 C-31.32771484 63.92859375 -31.70669922 64.61695313 -32.09716797 65.32617188 C-42.68004269 86.73063279 -40.89747646 117.06763103 -33.94873047 139.24023438 C-30.43345932 148.80679371 -24.61846695 156.84497794 -15.26123047 161.24023438 C-5.01265492 165.51171015 8.3422526 166.0627673 18.87939453 162.27929688 C28.75009538 157.55698316 35.05180917 149.8372016 38.87597656 139.73657227 C42.78725248 128.10105453 43.5933464 116.59345312 43.48876953 104.42773438 C43.48606049 103.68587891 43.48335144 102.94402344 43.4805603 102.1796875 C43.39225313 86.21478217 42.49096927 69.27663406 31.73876953 56.49023438 C30.85189453 55.74773437 29.96501953 55.00523437 29.05126953 54.24023438 C28.47634766 53.7375 27.90142578 53.23476563 27.30908203 52.71679688 C12.78421547 40.7585734 -14.15479387 41.47502205 -26.70263672 56.31445312 Z " fill="#FFFFFF" transform="translate(1875.94873046875,213.759765625)"/>
<path d="M0 0 C1.17046875 0.00064453 2.3409375 0.00128906 3.546875 0.00195312 C12.94586846 0.05045711 12.94586846 0.05045711 16.75 1.1875 C17.01602492 10.36086175 16.29098284 19.41973063 15.52319336 28.55078125 C15.31122552 31.07769337 15.1072806 33.60516441 14.90429688 36.1328125 C14.77130304 37.7526428 14.6378558 39.37243595 14.50390625 40.9921875 C14.4434462 41.74120331 14.38298615 42.49021912 14.32069397 43.26193237 C14.00556191 46.96495228 13.57599101 50.5620451 12.75 54.1875 C12.02272705 54.02741455 11.2954541 53.8673291 10.54614258 53.70239258 C-5.80685335 50.69108826 -24.53705776 52.87812552 -38.85546875 61.5078125 C-48.7407484 68.44202171 -54.74505075 78.34592175 -57.25 90.1875 C-58.19114959 96.45868827 -58.41779624 102.58198055 -58.45532227 108.91796875 C-58.46522186 109.96276901 -58.47512146 111.00756927 -58.48532104 112.08403015 C-58.51673881 115.51433091 -58.54161501 118.94464549 -58.56640625 122.375 C-58.58699283 124.76253607 -58.60798974 127.15006864 -58.62937927 129.53759766 C-58.68442396 135.80435334 -58.73391052 142.07114096 -58.78222656 148.33795166 C-58.84143074 155.86631238 -58.90756138 163.39461507 -58.97252655 170.92292786 C-59.07031441 182.3444163 -59.1593221 193.76594293 -59.25 205.1875 C-77.73 205.1875 -96.21 205.1875 -115.25 205.1875 C-115.27254429 178.99762484 -115.29097757 152.80775749 -115.30181217 126.6178751 C-115.30697582 114.45838131 -115.31401983 102.29889396 -115.32543945 90.1394043 C-115.33538419 79.54534032 -115.34185292 68.951281 -115.34408849 58.35721248 C-115.34539596 52.74400597 -115.34848406 47.1308128 -115.35573006 41.51761055 C-115.36248696 36.24083464 -115.36461764 30.96407765 -115.36310768 25.68729782 C-115.36338416 23.74458527 -115.36539123 21.80187212 -115.36920547 19.85916328 C-115.37413758 17.21891574 -115.37300009 14.57874084 -115.37025452 11.93849182 C-115.37316736 11.15932406 -115.3760802 10.38015629 -115.37908131 9.57737738 C-115.36412121 4.30162121 -115.36412121 4.30162121 -114.25 3.1875 C-111.14748799 3.09875865 -108.0673188 3.07231545 -104.96484375 3.08984375 C-104.03402481 3.0912587 -103.10320587 3.09267365 -102.1441803 3.09413147 C-99.15858809 3.09974828 -96.17306971 3.1123036 -93.1875 3.125 C-91.16862087 3.13001284 -89.14974057 3.13457612 -87.13085938 3.13867188 C-82.17054428 3.14972317 -77.21028468 3.16699905 -72.25 3.1875 C-71.10767781 7.7074198 -69.96842429 12.22809757 -68.83203125 16.74951172 C-68.44485774 18.28813664 -68.05684051 19.82654951 -67.66796875 21.36474609 C-67.10976756 23.57334316 -66.55458638 25.78268037 -66 27.9921875 C-65.82500977 28.68182587 -65.65001953 29.37146423 -65.46972656 30.08200073 C-64.25 34.95975659 -64.25 34.95975659 -64.25 37.1875 C-61.59718305 34.6265555 -59.30550003 32.03192466 -57.125 29.0625 C-42.50158411 10.1454003 -23.90186041 -0.25342374 0 0 Z " fill="#FFFFFF" transform="translate(613.25,213.8125)"/>
<path d="M0 0 C6.6 0 13.2 0 20 0 C20 76.23 20 152.46 20 231 C6.46889952 231 6.46889952 231 0.375 229.5625 C-0.79289062 229.29566406 -1.96078125 229.02882813 -3.1640625 228.75390625 C-6 228 -6 228 -8 227 C-8 226.34 -8 225.68 -8 225 C-9.06734375 224.83757812 -9.06734375 224.83757812 -10.15625 224.671875 C-17.40079724 222.9602512 -24.17739716 218.60464654 -29 213 C-29.67160156 212.28328125 -30.34320313 211.5665625 -31.03515625 210.828125 C-37.38761389 203.97150406 -37.38761389 203.97150406 -38 200 C-38.66 200 -39.32 200 -40 200 C-44.95107534 190.05871039 -48.64834585 180.23799481 -48 169 C-48.66 169 -49.32 169 -50 169 C-50 123.46 -50 77.92 -50 31 C-48.68 30.67 -47.36 30.34 -46 30 C-45.67 29.01 -45.34 28.02 -45 27 C-42.70387896 25.61047643 -40.45725859 24.38097715 -38.0625 23.1875 C-36.69155912 22.48400589 -35.32176875 21.77826528 -33.953125 21.0703125 C-32.94282227 20.54872559 -32.94282227 20.54872559 -31.91210938 20.01660156 C-28.525667 18.2161488 -25.28856094 16.18117766 -22.05078125 14.12890625 C-20.02386393 13.01313653 -18.26089784 12.4440138 -16 12 C-16 11.34 -16 10.68 -16 10 C-13.92111288 8.52313012 -11.86716626 7.18604262 -9.6875 5.875 C-9.09259766 5.50246094 -8.49769531 5.12992188 -7.88476562 4.74609375 C-3.38338484 2 -3.38338484 2 0 2 C0 1.34 0 0.68 0 0 Z " fill="#F1F1F1" transform="translate(136,186)"/>
<path d="M0 0 C18.48 0 36.96 0 56 0 C56 66.66 56 133.32 56 202 C37.52 202 19.04 202 0 202 C0 135.34 0 68.68 0 0 Z " fill="#FFFFFF" transform="translate(1703,217)"/>
<path d="M0 0 C5.85619303 5.52560148 7.24428668 11.86534425 7.765625 19.765625 C7.91993825 30.20748836 6.88687067 38.25391208 -0.546875 46 C-7.32824709 52.05279492 -15.34547168 54.07344711 -24.3125 54 C-25.01358887 53.99581055 -25.71467773 53.99162109 -26.43701172 53.98730469 C-36.22586539 53.77435578 -43.73755115 50.69813987 -50.625 43.625 C-56.49710458 36.3966088 -57.31805916 26.66672294 -56.4375 17.6875 C-55.26840978 9.38801267 -53.10246367 3.05577813 -46.4375 -2.3125 C-32.42168156 -11.14511011 -12.85789214 -10.42215301 0 0 Z " fill="#FFFFFF" transform="translate(1669.4375,370.3125)"/>
<path d="M0 0 C4.46069031 3.42130616 6.96135829 7.36309798 8.109375 12.796875 C9.46053509 32.44660323 9.46053509 32.44660323 3.109375 40.796875 C-1.87651629 46.36934174 -9.7345986 48.69053638 -17.03515625 49.15234375 C-26.9812533 49.47461457 -36.17093117 49.049961 -44.265625 42.671875 C-50.54781837 36.52956853 -52.25911492 30.57141201 -52.390625 21.859375 C-52.28542304 13.623018 -50.87446274 7.14459539 -45.328125 0.921875 C-32.53352544 -7.95536568 -13.1346099 -8.35838812 0 0 Z " fill="#FFFFFF" transform="translate(1752.890625,144.203125)"/>
<path d="M0 0 C3 1 3 1 4.38671875 3.21484375 C4.81597656 4.11332031 5.24523437 5.01179688 5.6875 5.9375 C6.12449219 6.83339844 6.56148437 7.72929687 7.01171875 8.65234375 C8 11 8 11 8 13 C8.99 13.33 9.98 13.66 11 14 C12.6484375 16.109375 12.6484375 16.109375 14.375 18.75 C18.12781029 24.28087135 22.24443856 28.48937492 27.43359375 32.703125 C28.97755056 33.98141343 30.45860518 35.33446857 31.9375 36.6875 C34.41827941 38.85818199 37.01233307 40.68839193 39.78125 42.46484375 C40.46195557 42.9028833 41.14266113 43.34092285 41.84399414 43.79223633 C43.22826536 44.67348841 44.6206699 45.54210584 46.02124023 46.3972168 C47.96484375 47.6328125 47.96484375 47.6328125 51 50 C51 51.32 51 52.64 51 54 C33.84 53.67 16.68 53.34 -1 53 C-1.020625 44.440625 -1.04125 35.88125 -1.0625 27.0625 C-1.071604 24.35683838 -1.08070801 21.65117676 -1.09008789 18.86352539 C-1.09300685 16.73323618 -1.09555545 14.60294642 -1.09765625 12.47265625 C-1.10277222 11.35499878 -1.10788818 10.23734131 -1.11315918 9.08581543 C-1.11328003 8.03019409 -1.11340088 6.97457275 -1.11352539 5.88696289 C-1.115746 4.96540909 -1.11796661 4.04385529 -1.12025452 3.09437561 C-1 1 -1 1 0 0 Z " fill="#DCDCDC" transform="translate(181,364)"/>
<path d="M0 0 C8.25 0 16.5 0 25 0 C26.24497833 2.48995665 26.12934372 4.18994911 26.1328125 6.97265625 C26.13474609 8.44508789 26.13474609 8.44508789 26.13671875 9.94726562 C26.13285156 10.97529297 26.12898438 12.00332031 26.125 13.0625 C26.13080078 14.6103418 26.13080078 14.6103418 26.13671875 16.18945312 C26.13542969 17.16978516 26.13414062 18.15011719 26.1328125 19.16015625 C26.13168457 20.06386963 26.13055664 20.96758301 26.12939453 21.89868164 C26 24 26 24 25 25 C21.7383399 25.3061105 18.46176264 25.2783694 15.1875 25.3125 C14.27162109 25.34150391 13.35574219 25.37050781 12.41210938 25.40039062 C5.63127273 25.46459374 5.63127273 25.46459374 2.42578125 23.10546875 C0.33181229 20.01327897 -0.12229055 18.34358241 -0.09765625 14.6484375 C-0.09515869 13.88192871 -0.09266113 13.11541992 -0.09008789 12.32568359 C-0.07643188 10.86509521 -0.07643188 10.86509521 -0.0625 9.375 C-0.041875 6.28125 -0.02125 3.1875 0 0 Z " fill="#EBEBEB" transform="translate(212,157)"/>
<path d="M0 0 C8.58 0 17.16 0 26 0 C26 6.27 26 12.54 26 19 C25.01 19.33 24.02 19.66 23 20 C22.33820153 21.98045559 22.33820153 21.98045559 22 24 C21 25 21 25 18.95874023 25.11352539 C18.08419189 25.10828857 17.20964355 25.10305176 16.30859375 25.09765625 C15.45837646 25.09515869 14.60815918 25.09266113 13.73217773 25.09008789 C12.64493408 25.08098389 11.55769043 25.07187988 10.4375 25.0625 C6.993125 25.041875 3.54875 25.02125 0 25 C0 16.75 0 8.5 0 0 Z " fill="#EEEEEE" transform="translate(241,157)"/>
<path d="M0 0 C3.17625 -0.165 6.3525 -0.33 9.625 -0.5 C10.6145166 -0.57283203 11.6040332 -0.64566406 12.62353516 -0.72070312 C16.34063525 -0.81387483 18.95828242 -0.80285898 21.97192383 1.51977539 C25.9198294 6.26953536 26.83726972 10.39590966 26.4375 16.4375 C26.41880859 17.15615234 26.40011719 17.87480469 26.38085938 18.61523438 C26.19970034 23.80029966 26.19970034 23.80029966 25 25 C23.14630389 25.08737645 21.28932459 25.10698153 19.43359375 25.09765625 C18.42095459 25.09515869 17.40831543 25.09266113 16.36499023 25.09008789 C15.06891846 25.08098389 13.77284668 25.07187988 12.4375 25.0625 C8.333125 25.041875 4.22875 25.02125 0 25 C0 16.75 0 8.5 0 0 Z " fill="#F2F2F2" transform="translate(241,129)"/>
<path d="M0 0 C0.80566406 0.00322266 1.61132812 0.00644531 2.44140625 0.00976562 C3.70404297 0.02233398 3.70404297 0.02233398 4.9921875 0.03515625 C5.84167969 0.03966797 6.69117188 0.04417969 7.56640625 0.04882812 C9.66669659 0.06062751 11.7669508 0.07856319 13.8671875 0.09765625 C15.89527569 5.1517808 16.17227128 9.49534928 16.1171875 14.84765625 C16.12492187 15.61464844 16.13265625 16.38164062 16.140625 17.171875 C16.12068728 22.84415647 16.12068728 22.84415647 13.8671875 25.09765625 C11.54467773 25.34057617 11.54467773 25.34057617 8.67578125 25.328125 C7.64904297 25.32619141 6.62230469 25.32425781 5.56445312 25.32226562 C4.48873047 25.31001953 3.41300781 25.29777344 2.3046875 25.28515625 C1.22509766 25.28451172 0.14550781 25.28386719 -0.96679688 25.28320312 C-8.99266652 25.23780223 -8.99266652 25.23780223 -10.1328125 24.09765625 C-10.31421138 21.35288304 -10.41105856 18.65732213 -10.4453125 15.91015625 C-10.47431641 15.15412109 -10.50332031 14.39808594 -10.53320312 13.61914062 C-10.59314009 8.30319245 -9.66384234 5.30999796 -6.1328125 1.09765625 C-3.8362755 -0.05061225 -2.54968083 -0.0179555 0 0 Z " fill="#EFEFEF" transform="translate(222.1328125,128.90234375)"/>
<path d="M0 0 C0.99 0.33 1.98 0.66 3 1 C3 4.96 3 8.92 3 13 C2.01 13.33 1.02 13.66 0 14 C0 9.38 0 4.76 0 0 Z " fill="#DADADA" transform="translate(153,396)"/>
<path d="M0 0 C0.99 0.33 1.98 0.66 3 1 C2 5 1 9 0 13 C-0.33 13 -0.66 13 -1 13 C-1.02686553 11.02090602 -1.04633375 9.04171029 -1.0625 7.0625 C-1.07410156 5.96035156 -1.08570313 4.85820312 -1.09765625 3.72265625 C-1 1 -1 1 0 0 Z " fill="#E5E5E5" transform="translate(181,364)"/>
<path d="M0 0 C0.66 0.33 1.32 0.66 2 1 C1.67 2.32 1.34 3.64 1 5 C-1.475 4.01 -1.475 4.01 -4 3 C-2.68 2.01 -1.36 1.02 0 0 Z " fill="#DBDBDB" transform="translate(452,224)"/>
</svg>
