<?xml version="1.0" encoding="UTF-8"?>
<svg version="1.1" xmlns="http://www.w3.org/2000/svg" width="2000" height="2000">
<path d="M0 0 C5.22837164 4.59418269 5.22837164 4.59418269 7.08203125 6.49609375 C7.08203125 7.15609375 7.08203125 7.81609375 7.08203125 8.49609375 C7.74203125 8.49609375 8.40203125 8.49609375 9.08203125 8.49609375 C11.84405867 11.46646376 14.29573404 14.69171575 16.80126953 17.87988281 C18.03071462 19.43133659 19.28826288 20.96039395 20.546875 22.48828125 C47.33117427 55.74651067 58.8602248 100.41175653 54.78173828 142.60253906 C53.9201218 148.98398899 52.55955585 155.23274809 51.08203125 161.49609375 C50.76854736 162.88344727 50.76854736 162.88344727 50.44873047 164.29882812 C41.19475795 205.03017084 26.3430186 244.68096625 11.08203125 283.49609375 C10.77845703 284.26975281 10.47488281 285.04341187 10.16210938 285.84051514 C0.22380691 311.15955454 -10.18949915 336.25882767 -20.94665527 361.24029541 C-21.87710523 363.40119148 -22.80637773 365.5625901 -23.73535156 367.72412109 C-36.39477379 397.16463274 -49.52201218 426.38462518 -62.91796875 455.49609375 C-63.20371765 456.11722046 -63.48946655 456.73834717 -63.78387451 457.3782959 C-80.31934371 493.30688437 -97.11938017 529.17274104 -114.91796875 564.49609375 C-117.7214599 562.02941596 -119.15812854 559.38918356 -120.81640625 556.0625 C-121.64893921 554.39852173 -121.64893921 554.39852173 -122.49829102 552.70092773 C-123.09691875 551.48701448 -123.69513334 550.27289741 -124.29296875 549.05859375 C-124.91911728 547.79692056 -125.54533919 546.53528378 -126.17163086 545.27368164 C-130.97414568 535.56323598 -135.56985389 525.76338919 -140.09570312 515.92089844 C-143.73790781 508.00449829 -147.48366465 500.14578758 -151.29296875 492.30859375 C-158.13988109 478.18229975 -164.62095259 463.89841792 -171.07128906 449.58789062 C-172.82228668 445.7047757 -174.58391264 441.82655683 -176.34765625 437.94921875 C-185.01517659 418.87635526 -193.44798362 399.7028912 -201.84396362 380.50917053 C-203.87666476 375.86490796 -205.92019889 371.22584855 -207.98046875 366.59375 C-237.72508668 299.7034996 -266.8480035 230.12222457 -282.91796875 158.49609375 C-283.22299316 157.22958984 -283.22299316 157.22958984 -283.53417969 155.9375 C-293.13725697 115.83363963 -282.68084414 71.32117443 -261.91796875 36.49609375 C-238.60776399 -0.35974095 -201.58662793 -29.14623366 -158.91796875 -39.50390625 C-100.44723232 -52.35607125 -45.44323195 -38.99479475 0 0 Z " fill="#004AAD" transform="translate(485.91796875,644.50390625)"/>
<path d="M0 0 C0.89203125 0.49886719 1.7840625 0.99773438 2.703125 1.51171875 C9.40496731 5.40153073 14.77936644 9.43358026 19.6875 15.5 C20.83798828 16.90765625 20.83798828 16.90765625 22.01171875 18.34375 C23.65064704 20.53328092 24.90213669 22.51072703 26 25 C28.35260882 25.34504789 28.35260882 25.34504789 31 25 C32.94885825 23.25780029 32.94885825 23.25780029 34.5 20.875 C35.40298828 19.6375 35.40298828 19.6375 36.32421875 18.375 C36.87722656 17.59125 37.43023438 16.8075 38 16 C48.83578882 1.35704214 67.51099115 -5.24495833 84.79003906 -8.53051758 C110.60126878 -12.30561605 138.7134819 -8.80459853 160 7 C176.11556504 20.10697741 182.63979716 41.09276101 184.79130363 61.09506035 C185.26019395 67.62175801 185.12890811 74.17886601 185.11352539 80.71899414 C185.11324296 82.40502928 185.11340234 84.09106454 185.1139679 85.77709961 C185.11425369 90.33221739 185.10839219 94.88730861 185.10139394 99.44242024 C185.09512412 104.21099667 185.09455373 108.97957377 185.09336853 113.74815369 C185.09026589 122.76830668 185.08206693 131.78844748 185.07201904 140.80859512 C185.06082471 151.08188361 185.05533909 161.3551727 185.05032361 171.62846577 C185.0398834 192.75231882 185.02155122 213.87615517 185 235 C163.22 235 141.44 235 119 235 C118.95101563 224.64625 118.90203125 214.2925 118.8515625 203.625 C118.81615429 197.04426274 118.78026017 190.46353399 118.7421875 183.8828125 C118.68191944 173.45021553 118.62356846 163.01763443 118.578125 152.58496094 C118.54500988 144.98466693 118.50507363 137.38444332 118.45720994 129.78422737 C118.43213726 125.76625042 118.41030122 121.748319 118.39665604 117.73028564 C118.38365855 113.93488636 118.36142164 110.13964481 118.33261681 106.34433365 C118.31947079 104.31494471 118.31565409 102.28550174 118.31230164 100.256073 C118.16817266 84.11167716 117.64981079 64.48899208 106 52 C95.65199289 44.23899467 85.52105855 44.06026437 73 45 C62.39469523 46.90941496 54.55793159 52.21511669 48.1875 60.8125 C38.15102403 76.22648735 36.87790916 94.58360349 36.79467773 112.50610352 C36.78507976 113.8473184 36.77506861 115.18853039 36.76467896 116.52973938 C36.73783154 120.14477489 36.7167139 123.7598232 36.69667697 127.37490201 C36.67469181 131.16255046 36.64736489 134.95016041 36.62062073 138.73777771 C36.57086219 145.89856543 36.52586146 153.05937471 36.48259836 160.22020429 C36.42380982 169.90483845 36.35761425 179.58942185 36.29184818 189.27401066 C36.18853717 204.51597282 36.09507299 219.75797907 36 235 C14.22 235 -7.56 235 -30 235 C-30.06058594 224.83960938 -30.12117188 214.67921875 -30.18359375 204.2109375 C-30.22410892 197.75780879 -30.26485539 191.3046829 -30.30664062 184.8515625 C-30.37285898 174.61850401 -30.43815778 164.38544582 -30.49731445 154.15234375 C-30.54041256 146.69785568 -30.58675206 139.24339576 -30.63687855 131.78895152 C-30.66327494 127.84705632 -30.68811973 123.90516596 -30.70907402 119.96323776 C-30.72890788 116.24176296 -30.75312383 112.52034074 -30.78049088 108.79891396 C-30.79407417 106.80491062 -30.8032 104.81087841 -30.81211853 102.81684875 C-30.83265528 75.6067601 -30.83265528 75.6067601 -43 52 C-52.83795933 44.34488526 -62.97844081 44.09909294 -75 45 C-85.22710242 46.68484269 -93.2639324 51.08513143 -99.7734375 59.21484375 C-113.42946382 80.04548288 -112.46461611 107.0581233 -112.50611091 130.88444805 C-112.51563919 134.55862786 -112.54185114 138.23269261 -112.56611633 141.90679932 C-112.60939478 148.82993144 -112.63817687 155.75304077 -112.66143972 162.67626595 C-112.69382237 172.05585413 -112.74922993 181.4353065 -112.80318546 190.81479073 C-112.88731709 205.54315279 -112.94123176 220.27146425 -113 235 C-135.11 235 -157.22 235 -180 235 C-180.02202653 204.5698343 -180.04049795 174.13967404 -180.05106533 143.70950273 C-180.05231611 140.12070688 -180.05361042 136.53191106 -180.05493164 132.94311523 C-180.05519395 132.22862061 -180.05545626 131.51412599 -180.05572652 130.77798002 C-180.06008331 119.19387082 -180.0679709 107.60976655 -180.0771528 96.02566028 C-180.0864891 84.14809542 -180.09205556 72.27053316 -180.09408849 60.39296478 C-180.09534006 53.71782379 -180.09848476 47.04269266 -180.10573006 40.36755562 C-180.11248609 34.0927171 -180.11461782 27.81789449 -180.11310768 21.54305267 C-180.1133842 19.23267722 -180.11539178 16.92230126 -180.11920547 14.61192894 C-180.12413621 11.47247226 -180.12300059 8.33307669 -180.12025452 5.19361877 C-180.12316736 4.26659497 -180.1260802 3.33957117 -180.12908131 2.38445574 C-180.11412121 -3.88587879 -180.11412121 -3.88587879 -179 -5 C-177.43452952 -5.09326716 -175.86487228 -5.11745582 -174.29663086 -5.11352539 C-173.29566879 -5.11344986 -172.29470673 -5.11337433 -171.26341248 -5.11329651 C-170.1748848 -5.10813522 -169.08635712 -5.10297394 -167.96484375 -5.09765625 C-166.3022628 -5.09553383 -166.3022628 -5.09553383 -164.60609436 -5.09336853 C-161.04986931 -5.08775033 -157.49370617 -5.07519475 -153.9375 -5.0625 C-151.53320403 -5.05748734 -149.12890708 -5.05292403 -146.72460938 -5.04882812 C-140.81638496 -5.03777499 -134.9081969 -5.02101917 -129 -5 C-127.31888456 -0.59385302 -125.69029056 3.76753645 -124.39453125 8.3046875 C-124.13349609 9.21734375 -123.87246094 10.13 -123.60351562 11.0703125 C-123.34248047 11.99585938 -123.08144531 12.92140625 -122.8125 13.875 C-122.53986328 14.82375 -122.26722656 15.7725 -121.98632812 16.75 C-120 23.73948543 -120 23.73948543 -120 26 C-116.18274693 24.72758231 -115.58737347 23.24695579 -113.375 19.9375 C-105.06463825 8.23638955 -93.93688675 0.50298003 -80.5 -4.3125 C-79.82453125 -4.55500488 -79.1490625 -4.79750977 -78.453125 -5.04736328 C-54.80924443 -13.02830102 -22.1028565 -12.53217517 0 0 Z " fill="#0049AD" transform="translate(1201,798)"/>
<path d="M0 0 C21.78 0 43.56 0 66 0 C66.08021762 18.81103158 66.08021762 18.81103158 66.09765625 27.08398438 C66.10942564 32.64025892 66.12304138 38.1964652 66.15087891 43.75268555 C66.28289339 70.83880846 66.30426577 98.06967649 63 125 C66.26830461 121.83712457 69.30512125 118.53821879 72.3125 115.125 C86.15112466 99.758883 103.94423681 91.33578073 124.68774414 89.71118164 C128.42198882 89.59992984 132.13938127 89.5833594 135.875 89.625 C137.18984375 89.63442627 138.5046875 89.64385254 139.859375 89.65356445 C162.96832094 90.01249672 183.22644835 96.00729209 200.359375 112.13671875 C220.69057753 134.18223865 222.18742973 163.8557252 222.11352539 192.3203125 C222.11324236 193.87930296 222.11340351 195.43829355 222.1139679 196.99728394 C222.11425136 201.17390126 222.10842852 205.35048906 222.10139394 209.52709961 C222.09508437 213.91259608 222.09455065 218.29809344 222.09336853 222.68359375 C222.09027741 230.96332049 222.08209434 239.2430338 222.07201904 247.52275467 C222.06078847 256.95946185 222.05533006 266.39616971 222.05032361 275.83288193 C222.03990954 295.22193041 222.0215921 314.61096052 222 334 C199.89 334 177.78 334 155 334 C154.96261719 323.11773438 154.92523437 312.23546875 154.88671875 301.0234375 C154.85643009 294.11457077 154.82539674 287.20572057 154.79101562 280.296875 C154.73662533 269.33953377 154.68520828 258.38223838 154.65356445 247.42480469 C154.63049956 239.4428909 154.5970077 231.46109845 154.55129844 223.47928107 C154.52748006 219.25790177 154.50867707 215.03664181 154.50238609 210.81519699 C154.49628322 206.83096801 154.47609901 202.84704389 154.44572449 198.86292839 C154.43702672 197.4110788 154.43320424 195.95918923 154.43499184 194.50731468 C154.44731175 179.86659328 152.88135614 164.55787269 143.21875 152.83984375 C134.85300637 144.76552971 125.15402598 143.44955177 113.9934082 143.59521484 C101.22492097 144.03467536 89.79723239 147.97014185 80.9140625 157.47265625 C68.52250764 173.83456644 66.89009426 196.27586298 66.79467773 216.04711914 C66.78477814 217.32615112 66.77487854 218.60518311 66.76467896 219.92297363 C66.73784297 223.40371523 66.71671927 226.88447009 66.69667697 230.36525655 C66.67468461 234.01276975 66.64736127 237.66024307 66.62062073 241.307724 C66.57087179 248.2028912 66.52586757 255.09808074 66.48259836 261.99329132 C66.42379909 271.31917263 66.35760879 280.64500135 66.29184818 289.97083569 C66.18855222 304.64718826 66.09507807 319.32358655 66 334 C44.22 334 22.44 334 0 334 C0 223.78 0 113.56 0 0 Z " fill="#0049AC" transform="translate(1658,699)"/>
<path d="M0 0 C14.70586844 13.57028014 21.23100415 33.96808801 22.16661644 53.53178596 C22.29738706 58.0085851 22.27102267 62.48312449 22.23901367 66.96118164 C22.23816467 68.65824875 22.23864784 70.35531695 22.24034119 72.05238342 C22.24119194 76.60091832 22.22371774 81.14920945 22.20261931 85.69768834 C22.18369668 90.47287927 22.18208992 95.24807753 22.17854309 100.02330017 C22.16926795 109.03969242 22.14471639 118.05597381 22.11449462 127.07231754 C22.08080843 137.34819586 22.06442907 147.62407983 22.04940832 157.89999974 C22.01816209 179.01413769 21.96320762 200.12812394 21.8984375 221.2421875 C6.3884375 221.2421875 -9.1215625 221.2421875 -25.1015625 221.2421875 C-30.9765625 205.8046875 -30.9765625 205.8046875 -32.81982422 200.92797852 C-33.30640857 199.65880302 -33.79351463 198.38982736 -34.28125 197.12109375 C-34.53011963 196.45686401 -34.77898926 195.79263428 -35.03540039 195.10827637 C-36.24134324 191.49237356 -36.24134324 191.49237356 -39.1015625 189.2421875 C-39.49021484 190.10263672 -39.49021484 190.10263672 -39.88671875 190.98046875 C-44.40840069 199.39864831 -52.64273224 205.5648908 -60.1015625 211.2421875 C-61.21337891 212.09490234 -61.21337891 212.09490234 -62.34765625 212.96484375 C-76.67136763 223.24112109 -94.91048453 225.52498703 -112.1015625 226.2421875 C-113.61556641 226.32146484 -113.61556641 226.32146484 -115.16015625 226.40234375 C-135.45889395 226.98520388 -155.78048779 221.98306168 -171.1015625 208.2421875 C-185.14926834 194.89565803 -191.79907385 176.72378097 -192.4375 157.60546875 C-192.71381597 135.99816681 -190.92105838 116.80553319 -175.4074707 100.40283203 C-143.16259404 67.8277661 -86.19320384 72.01780876 -44.1015625 71.2421875 C-44.23817109 68.36945012 -44.38098827 65.49724377 -44.52734375 62.625 C-44.56508911 61.81780518 -44.60283447 61.01061035 -44.64172363 60.17895508 C-45.16035055 50.226378 -46.77742378 41.49755496 -54.1015625 34.2421875 C-56.39674127 32.48578309 -58.42337343 31.48893069 -61.1015625 30.2421875 C-61.69582031 29.95601562 -62.29007813 29.66984375 -62.90234375 29.375 C-85.33704947 19.62078012 -115.85782341 30.72887738 -137.16259766 39.046875 C-139.80170109 40.11937789 -142.41684391 41.23654018 -145.01953125 42.39453125 C-147.1015625 43.2421875 -147.1015625 43.2421875 -149.1015625 43.2421875 C-149.94920166 41.50146973 -149.94920166 41.50146973 -150.81396484 39.72558594 C-152.91222391 35.41672666 -155.01075806 31.1080014 -157.109375 26.79931641 C-158.01732762 24.93509513 -158.9252058 23.07083759 -159.83300781 21.20654297 C-161.13847564 18.52562052 -162.44421179 15.84482891 -163.75 13.1640625 C-164.15527924 12.33163025 -164.56055847 11.499198 -164.9781189 10.64154053 C-165.35836212 9.86103333 -165.73860535 9.08052612 -166.13037109 8.27636719 C-166.46346283 7.59241882 -166.79655457 6.90847046 -167.13973999 6.20379639 C-167.80511655 4.84678035 -168.50251273 3.50517114 -169.22476196 2.17755127 C-170.1015625 0.2421875 -170.1015625 0.2421875 -170.1015625 -2.7578125 C-120.05998871 -26.92904365 -46.23603863 -38.67326651 0 0 Z M-116.8828125 126.08984375 C-124.44445561 135.41216356 -125.12579336 145.66139542 -124.1015625 157.2421875 C-122.7273868 163.61410933 -120.17930741 168.11527147 -114.9609375 172.0625 C-104.43429866 178.74116582 -91.21289757 178.53925118 -79.3515625 176.0546875 C-67.46589084 172.92839568 -57.33235783 166.77060092 -50.2265625 156.4921875 C-44.67612557 146.18557487 -43.53638483 135.96397796 -43.8515625 124.4296875 C-43.86960937 123.15287109 -43.88765625 121.87605469 -43.90625 120.56054688 C-43.95279601 117.4536006 -44.01815904 114.348325 -44.1015625 111.2421875 C-83.2926644 109.2241588 -83.2926644 109.2241588 -116.8828125 126.08984375 Z " fill="#0049AD" transform="translate(1599.1015625,811.7578125)"/>
<path d="M0 0 C21.78 0 43.56 0 66 0 C66.03738281 10.7146875 66.07476563 21.429375 66.11328125 32.46875 C66.1435753 39.27735643 66.17461265 46.0859462 66.20898438 52.89453125 C66.26334227 63.68927457 66.3147605 74.48397169 66.34643555 85.27880859 C66.36952473 93.14281507 66.40304294 101.00669888 66.44870156 108.87060785 C66.47248768 113.02833484 66.49131154 117.18594145 66.49761391 121.34373474 C66.50373174 125.27051688 66.52396753 129.19699161 66.55427551 133.12365913 C66.56294994 134.55209263 66.56680082 135.98056648 66.56500816 137.40902519 C66.55074784 154.04032288 68.40492202 171.11179064 80 184 C91.37414121 191.60240526 103.80885717 192.15795574 116.8828125 189.74609375 C127.28570389 187.25617864 136.25211719 182.7444284 142.5234375 173.8359375 C143.82585182 171.6020996 144.93648938 169.35632836 146 167 C146.35707031 166.25234375 146.71414063 165.5046875 147.08203125 164.734375 C153.16052692 150.98377056 154.1356133 135.6187158 154.20532227 120.79101562 C154.21522186 119.48286896 154.22512146 118.17472229 154.23532104 116.82693481 C154.26219773 113.26142564 154.28329982 109.69590347 154.30332303 106.13035011 C154.32528979 102.39608049 154.35262585 98.66185015 154.37937927 94.9276123 C154.42916237 87.86595641 154.47415415 80.80427855 154.51740164 73.74257994 C154.57616277 64.19327933 154.64237178 54.64403051 154.70815182 45.09477615 C154.81150133 30.06321907 154.90493999 15.03161709 155 0 C177.11 0 199.22 0 222 0 C222 79.2 222 158.4 222 240 C204.84 240 187.68 240 170 240 C168.68 235.42125 167.36 230.8425 166 226.125 C165.37351562 223.9596167 165.37351562 223.9596167 164.734375 221.75048828 C164.40953125 220.61853027 164.0846875 219.48657227 163.75 218.3203125 C163.41484375 217.15773926 163.0796875 215.99516602 162.734375 214.79736328 C162 212 162 212 162 210 C158.26546181 211.49050305 156.56370372 213.5559176 154.1875 216.75 C142.19911256 232.11633086 122.6359225 241.11006713 103.515625 243.62109375 C78.51263035 246.62035429 50.30965763 245.40635556 29.375 229.6875 C27.90072191 228.47750375 26.44197545 227.24831631 25 226 C24.32066406 225.41605469 23.64132812 224.83210937 22.94140625 224.23046875 C7.25438707 209.70545099 0.71994544 187.45618604 -0.26622581 166.64023972 C-0.39759002 162.17947391 -0.37274194 157.72132196 -0.34057617 153.25927734 C-0.33972694 151.57191483 -0.3402108 149.88455121 -0.34190369 148.19718933 C-0.34275351 143.67970349 -0.32529483 139.16246369 -0.30418181 134.64503431 C-0.28524325 129.9005459 -0.2836512 125.15604992 -0.28010559 120.41152954 C-0.27083502 111.45537731 -0.24628986 102.49933685 -0.21605712 93.54323351 C-0.18235643 83.33504549 -0.16598797 73.12685172 -0.15097082 62.91862178 C-0.11973499 41.9456719 -0.06478647 20.97287493 0 0 Z " fill="#0049AD" transform="translate(762,793)"/>
<path d="M0 0 C1.14609741 -0.0071553 2.29219482 -0.01431061 3.47302246 -0.02168274 C5.88679226 -0.02943814 8.30063256 -0.02449376 10.71435547 -0.00756836 C14.39555799 0.01166289 18.0729864 -0.02777207 21.75390625 -0.07226562 C24.10677307 -0.072556 26.45964333 -0.06941567 28.8125 -0.0625 C29.90542358 -0.07778244 30.99834717 -0.09306488 32.12438965 -0.10881042 C38.27120743 -0.01562696 42.24003051 0.77593233 47.09313965 4.63224792 C53.13740595 11.52279493 54.63896098 16.84494039 54.53443909 25.97155762 C54.54153347 27.08755828 54.54862786 28.20355895 54.55593723 29.35337782 C54.57350166 33.08294355 54.55541878 36.81146506 54.53735352 40.54101562 C54.54249292 43.21886579 54.5495859 45.89664637 54.55903625 48.57447815 C54.57738776 55.08667446 54.56891738 61.59857014 54.55094803 68.11075699 C54.53690596 73.40466499 54.53303267 78.69849154 54.5363903 83.99241638 C54.53686775 84.7466963 54.53734519 85.50097621 54.5378371 86.2781131 C54.53886346 87.81055599 54.53991882 89.34299887 54.54100286 90.87544173 C54.54956489 104.41750947 54.53291117 117.95943235 54.50317383 131.50146484 C54.47433762 144.63336268 54.46725351 157.76505184 54.48266602 170.89697266 C54.49943788 185.20663948 54.50345236 199.51620729 54.48595566 213.82587671 C54.48411132 215.3525915 54.4822766 216.8793063 54.48045158 218.40602112 C54.47953949 219.15713762 54.4786274 219.90825413 54.47768768 220.68213174 C54.4720884 225.96790933 54.47538378 231.25363849 54.48199654 236.53941345 C54.48973865 242.9835799 54.48294572 249.42754114 54.4578215 255.87166631 C54.44534651 259.15781618 54.44131178 262.44358252 54.45036316 265.72975349 C54.45905352 269.29579762 54.4431068 272.86091335 54.4209137 276.42687988 C54.42915446 277.46034908 54.43739523 278.49381827 54.44588572 279.55860472 C54.36722465 286.40790615 53.27821667 292.06434277 48.49444205 297.22110415 C43.72698143 301.44929725 39.39125198 302.94496865 33.10961914 302.97387695 C31.96815933 302.98340897 30.82669952 302.99294098 29.65065002 303.00276184 C28.42659958 303.00185043 27.20254913 303.00093903 25.94140625 303 C24.04230751 303.00642769 24.04230751 303.00642769 22.10484314 303.01298523 C19.42921029 303.01872452 16.75396372 303.02016883 14.07836914 303.01489258 C10.66095557 303.00909949 7.24408426 303.02603262 3.82676029 303.04923725 C0.55247994 303.06756828 -2.72177136 303.06378827 -5.99609375 303.0625 C-7.21811996 303.07170975 -8.44014618 303.08091949 -9.69920349 303.09040833 C-17.17257278 303.04973948 -21.84068947 302.41010252 -27.71875 297.51171875 C-34.89559444 289.01282402 -34.67137006 280.91083588 -34.6237793 270.29321289 C-34.63088364 268.62864373 -34.63974991 266.96408131 -34.65023804 265.29953003 C-34.67377313 260.79793275 -34.67312617 256.29662607 -34.66832328 251.79498219 C-34.66772889 247.08286484 -34.69043337 242.37086283 -34.71089172 237.65879822 C-34.74625886 228.74250896 -34.76231283 219.82630116 -34.7706669 210.90994972 C-34.78365123 197.80073578 -34.82186092 184.69158908 -34.86476612 171.58244228 C-34.86790481 170.62250884 -34.87104349 169.66257539 -34.87427729 168.67355305 C-34.8805565 166.76053981 -34.88690004 164.84752679 -34.89330989 162.93451399 C-34.9114129 157.31993883 -34.92249109 151.70540397 -34.92760694 146.09080231 C-34.93142629 142.60980163 -34.93903351 139.1288157 -34.9474144 135.64782333 C-34.95038559 134.02761878 -34.95160807 132.40741 -34.95100212 130.78720284 C-34.95033988 128.58527773 -34.9556505 126.38344655 -34.96244812 124.18153381 C-34.9637054 122.94658204 -34.96496267 121.71163027 -34.96625805 120.43925571 C-34.78143939 117.78703704 -34.78143939 117.78703704 -36.09375 116.69921875 C-40.4053762 116.20990362 -42.36028888 117.22175752 -45.74609375 119.82421875 C-50.84253565 123.571852 -56.09629221 126.69285234 -61.65625 129.69921875 C-62.6035498 130.21395752 -63.55084961 130.72869629 -64.52685547 131.2590332 C-91.32510793 145.58099527 -91.32510793 145.58099527 -105.09375 143.69921875 C-111.42405233 141.23905517 -115.21864534 137.06373451 -118.0859375 131.02587891 C-120.08708345 124.42035208 -119.78937561 117.57094668 -119.69067383 110.72167969 C-119.65622755 108.07249254 -119.67008846 105.42662642 -119.68945312 102.77734375 C-119.68255632 101.07160057 -119.67288543 99.36586588 -119.66015625 97.66015625 C-119.66511612 96.87973969 -119.67007599 96.09932312 -119.67518616 95.29525757 C-119.53810686 88.821192 -117.73215775 83.58821169 -113.32006836 78.75708008 C-108.05872749 75.04083115 -102.67092257 72.64751184 -96.65625 70.38671875 C-67.55581676 58.91929886 -43.43773293 41.79014401 -26.3203125 15.1796875 C-25.94036133 14.59364746 -25.56041016 14.00760742 -25.16894531 13.40380859 C-24.16860601 11.81789374 -23.23366086 10.19124588 -22.3046875 8.5625 C-16.29007311 0.77325557 -9.40676462 -0.06011197 0 0 Z " fill="#FEFEFE" transform="translate(358.09375,659.30078125)"/>
<path d="M0 0 C1.29615234 0.00064453 2.59230469 0.00128906 3.92773438 0.00195312 C9.17587746 0.02636309 14.04781324 0.09429592 19.1875 1.1875 C19.30037301 8.81077375 18.98282498 16.31470897 18.34765625 23.91015625 C18.26124374 24.97745468 18.17483124 26.04475311 18.08580017 27.14439392 C17.90386352 29.37728449 17.71972095 31.60999635 17.53344727 33.8425293 C17.24821374 37.27147356 16.97230287 40.7010838 16.69726562 44.13085938 C16.51878156 46.30733704 16.33976452 48.48377107 16.16015625 50.66015625 C16.0366555 52.20063377 16.0366555 52.20063377 15.91065979 53.77223206 C15.83065231 54.71759323 15.75064484 55.66295441 15.66821289 56.63696289 C15.59937393 57.46982315 15.53053497 58.30268341 15.45960999 59.16078186 C15.1875 61.1875 15.1875 61.1875 14.1875 63.1875 C12.97578125 63.09210937 11.7640625 62.99671875 10.515625 62.8984375 C-12.90305995 61.2610642 -34.4541911 62.92983045 -53.5625 78 C-64.17297769 87.63909593 -69.12109838 102.28595317 -70.0087471 116.28178978 C-70.09592073 119.67622913 -70.12515984 123.06611593 -70.13134766 126.46166992 C-70.14139328 127.74099396 -70.1514389 129.02031799 -70.16178894 130.33840942 C-70.18884026 133.81077541 -70.20416352 137.28310141 -70.21721697 140.75554442 C-70.23295771 144.39772939 -70.25971238 148.03983397 -70.2852478 151.68196106 C-70.33184344 158.56288667 -70.36867986 165.44382773 -70.40192068 172.3248294 C-70.44746563 181.63440386 -70.50826764 190.94387825 -70.56816864 200.25336933 C-70.66199994 214.89802913 -70.73560326 229.5427188 -70.8125 244.1875 C-92.5925 244.1875 -114.3725 244.1875 -136.8125 244.1875 C-136.8125 164.9875 -136.8125 85.7875 -136.8125 4.1875 C-120.3125 4.1875 -103.8125 4.1875 -86.8125 4.1875 C-81.79076087 23.01902174 -81.79076087 23.01902174 -80.0625 29.8125 C-79.84207031 30.65683594 -79.62164063 31.50117187 -79.39453125 32.37109375 C-78.37669278 36.38554981 -77.50543059 40.00794415 -77.8125 44.1875 C-76.4925 44.1875 -75.1725 44.1875 -73.8125 44.1875 C-73.55339844 43.46820312 -73.29429687 42.74890625 -73.02734375 42.0078125 C-64.93348307 23.21756359 -46.429248 11.11369335 -28.359375 3.37890625 C-18.90185422 0.20209586 -9.93345761 -0.09527294 0 0 Z " fill="#0049AD" transform="translate(730.8125,788.8125)"/>
</svg>
