<?xml version="1.0" standalone="no"?>
<!DOCTYPE svg PUBLIC "-//W3C//DTD SVG 20010904//EN"
 "http://www.w3.org/TR/2001/REC-SVG-20010904/DTD/svg10.dtd">
<svg version="1.0" xmlns="http://www.w3.org/2000/svg"
 width="2000.000000pt" height="2000.000000pt" viewBox="0 0 2000.000000 2000.000000"
 preserveAspectRatio="xMidYMid meet">

<g transform="translate(0.000000,2000.000000) scale(0.100000,-0.100000)"
fill="#000000" stroke="none">
<path d="M14045 16230 c3 -5 8 -10 11 -10 2 0 4 5 4 10 0 6 -5 10 -11 10 -5 0
-7 -4 -4 -10z"/>
<path d="M5600 16034 c0 -8 5 -12 10 -9 6 4 8 11 5 16 -9 14 -15 11 -15 -7z"/>
<path d="M14330 16030 c0 -5 5 -10 10 -10 6 0 10 5 10 10 0 6 -4 10 -10 10 -5
0 -10 -4 -10 -10z"/>
<path d="M14375 15980 c3 -5 10 -10 16 -10 5 0 9 5 9 10 0 6 -7 10 -16 10 -8
0 -12 -4 -9 -10z"/>
<path d="M5460 15939 c0 -5 5 -7 10 -4 6 3 10 8 10 11 0 2 -4 4 -10 4 -5 0
-10 -5 -10 -11z"/>
<path d="M14427 15929 c7 -26 56 -23 61 4 3 13 -4 17 -31 17 -31 0 -34 -3 -30
-21z"/>
<path d="M14500 15885 c0 -9 -7 -18 -15 -21 -32 -13 -5 -84 32 -84 23 0 23 0
23 -135 l0 -135 -25 0 c-20 0 -25 -5 -25 -25 0 -20 -5 -25 -25 -25 -23 0 -25
-3 -25 -50 l0 -50 -45 0 -45 0 0 -145 0 -145 -25 0 c-18 0 -25 -5 -25 -20 0
-15 -7 -20 -25 -20 -20 0 -25 -5 -25 -25 0 -20 -5 -25 -25 -25 -23 0 -25 -3
-25 -50 0 -47 -2 -50 -25 -50 -23 0 -25 -3 -25 -50 0 -47 -2 -50 -25 -50 -18
0 -25 -5 -25 -20 0 -13 -7 -20 -20 -20 -17 0 -20 -7 -20 -50 0 -47 -2 -50 -25
-50 -24 0 -25 -2 -25 -75 l0 -75 -50 0 -50 0 0 -45 0 -45 -48 0 c-67 0 -92
-27 -92 -98 l0 -52 -50 0 c-47 0 -50 -2 -50 -25 0 -20 -5 -25 -25 -25 -18 0
-25 -5 -25 -20 0 -17 -7 -20 -50 -20 -47 0 -50 -2 -50 -25 0 -18 -5 -25 -20
-25 -15 0 -20 -7 -20 -25 0 -20 -5 -25 -25 -25 -20 0 -25 -5 -25 -25 0 -21 -5
-25 -27 -25 -17 0 -38 11 -52 25 -19 21 -32 25 -83 25 -59 0 -59 0 -56 -27 2
-23 8 -29 36 -31 20 -2 32 -9 32 -18 0 -10 14 -14 53 -16 43 -1 45 -2 15 -5
-33 -4 -38 -8 -38 -29 0 -19 -5 -24 -25 -24 -22 0 -24 3 -15 19 14 26 0 33
-49 25 -52 -8 -53 -27 -2 -42 24 -8 41 -20 44 -32 3 -14 14 -20 31 -20 19 0
26 -5 26 -20 0 -14 7 -20 21 -20 29 0 59 -18 59 -36 0 -8 13 -17 31 -21 19 -3
34 -14 36 -25 3 -11 14 -18 28 -18 13 0 32 -11 43 -24 10 -14 30 -28 45 -31
14 -4 27 -15 30 -26 3 -11 14 -19 27 -19 11 0 31 -11 44 -25 13 -14 30 -25 39
-25 9 0 21 -9 27 -19 5 -11 20 -23 32 -27 13 -4 29 -15 36 -25 6 -9 26 -21 43
-24 18 -4 33 -15 36 -25 3 -11 15 -20 27 -22 11 -2 25 -13 31 -25 5 -13 22
-24 42 -28 20 -3 33 -12 33 -21 0 -8 12 -19 27 -25 15 -5 33 -19 40 -29 8 -11
23 -20 34 -20 11 0 30 -11 43 -25 13 -14 30 -25 38 -25 8 0 24 -11 36 -25 12
-14 28 -25 35 -25 8 0 22 -10 33 -21 10 -12 29 -25 42 -30 12 -5 22 -15 22
-23 0 -7 12 -16 28 -19 26 -5 50 -22 108 -74 14 -13 31 -23 38 -23 8 0 19 -7
27 -16 7 -8 30 -24 51 -35 21 -11 38 -23 38 -28 0 -5 13 -12 29 -16 16 -3 39
-17 51 -31 13 -13 29 -24 37 -24 7 0 18 -9 25 -20 7 -11 19 -20 27 -20 7 0 29
-13 48 -30 18 -16 39 -30 46 -30 7 0 18 -9 25 -20 7 -11 21 -20 31 -20 10 0
29 -11 42 -25 13 -13 29 -25 36 -25 7 0 24 -11 39 -25 15 -14 30 -25 33 -25 3
0 19 -11 35 -25 16 -14 35 -25 42 -25 8 0 19 -9 26 -20 7 -11 20 -20 28 -20 8
0 30 -14 49 -30 18 -17 39 -30 46 -30 6 0 20 -9 30 -20 10 -11 23 -20 30 -20
6 0 20 -9 32 -19 11 -10 34 -26 51 -35 18 -9 32 -21 32 -26 0 -5 11 -12 24
-16 14 -3 33 -15 43 -26 10 -11 27 -24 38 -29 11 -5 40 -25 65 -44 25 -19 59
-42 76 -50 17 -8 34 -21 37 -30 4 -8 15 -15 25 -15 10 0 27 -9 39 -19 11 -10
34 -26 50 -35 17 -8 33 -22 36 -31 4 -8 12 -15 19 -15 7 0 38 -18 68 -40 30
-22 72 -49 93 -60 20 -11 37 -25 37 -30 0 -6 7 -10 15 -10 9 0 27 -11 41 -25
14 -14 29 -25 34 -25 4 0 19 -9 32 -20 40 -35 92 -69 121 -81 15 -6 27 -15 27
-20 0 -4 15 -15 34 -24 19 -9 42 -25 52 -36 9 -10 23 -19 30 -19 8 0 19 -9 26
-20 7 -11 21 -20 30 -20 10 0 31 -14 48 -30 17 -17 37 -30 44 -30 8 0 16 -7
20 -15 3 -8 16 -20 28 -25 22 -10 70 -42 113 -75 45 -34 111 -75 122 -75 6 0
18 -8 25 -17 7 -10 25 -25 39 -33 15 -8 46 -28 69 -45 24 -16 58 -39 76 -50
18 -11 56 -36 86 -56 29 -19 66 -44 82 -55 16 -10 39 -26 50 -34 12 -8 37 -24
55 -35 18 -11 46 -30 61 -42 15 -13 32 -23 37 -23 6 0 18 -9 28 -20 10 -11 22
-20 28 -20 5 0 22 -10 37 -22 16 -13 53 -38 84 -57 30 -18 61 -40 68 -48 7 -8
21 -19 33 -24 11 -5 40 -25 65 -44 25 -19 60 -42 78 -51 17 -9 32 -20 32 -25
0 -5 11 -14 25 -19 14 -5 38 -18 53 -28 74 -52 172 -115 242 -157 18 -11 40
-27 49 -35 9 -8 27 -21 41 -28 14 -7 43 -26 65 -43 69 -52 149 -106 205 -139
35 -21 96 -62 116 -79 6 -5 24 -16 40 -25 16 -9 47 -30 69 -47 22 -16 51 -37
65 -46 14 -10 46 -34 72 -55 35 -29 49 -35 55 -26 10 17 4 2254 -7 2334 -4 34
-15 75 -24 92 -9 17 -16 47 -16 66 0 19 -11 56 -25 82 -14 26 -25 54 -25 63 0
9 -8 30 -19 47 -10 17 -22 41 -26 55 -4 13 -18 38 -31 55 -13 17 -24 36 -24
41 0 6 -7 16 -16 23 -8 8 -21 27 -29 44 -7 17 -32 51 -54 76 -68 75 -76 84
-93 110 -15 23 -193 207 -228 235 -8 7 -26 16 -40 20 -14 4 -47 26 -75 49 -50
41 -65 52 -119 84 -16 9 -40 27 -53 39 -14 12 -34 25 -44 28 -11 4 -19 11 -19
16 0 5 -19 19 -42 29 -56 26 -128 67 -147 84 -9 7 -24 16 -33 19 -10 4 -18 11
-18 16 0 5 -10 13 -22 17 -13 4 -36 17 -51 30 -16 13 -35 24 -42 24 -8 0 -19
9 -25 20 -6 11 -17 20 -24 20 -13 0 -129 87 -172 129 -12 12 -27 21 -34 21
-11 0 -26 11 -109 80 -13 11 -28 20 -32 20 -5 0 -34 17 -65 38 -31 20 -71 46
-88 57 -78 48 -116 76 -116 85 0 6 -9 10 -20 10 -11 0 -23 7 -27 15 -3 9 -23
25 -44 36 -22 11 -39 24 -39 29 0 5 -12 13 -27 16 -16 4 -30 10 -33 15 -9 14
-112 79 -125 79 -7 0 -18 7 -26 16 -7 8 -26 22 -43 31 -17 9 -37 24 -44 34 -7
11 -20 19 -29 19 -8 0 -28 11 -45 25 -16 14 -36 25 -43 25 -8 0 -19 9 -25 20
-6 11 -18 20 -27 20 -14 0 -61 34 -108 78 -11 11 -30 22 -42 26 -13 4 -23 11
-23 16 0 5 -18 19 -40 30 -22 11 -40 24 -40 29 0 5 -16 15 -35 21 -19 6 -35
17 -35 25 0 7 -16 16 -35 19 -19 4 -39 16 -45 26 -6 11 -19 20 -29 20 -10 0
-26 10 -37 21 -10 12 -34 28 -51 36 -18 7 -33 20 -33 28 0 8 -9 15 -19 15 -11
0 -26 8 -33 19 -7 10 -28 26 -45 35 -18 9 -33 21 -33 26 0 5 -9 12 -20 15 -12
4 -28 15 -38 24 -9 10 -34 24 -54 30 -21 7 -38 19 -38 27 0 8 -10 14 -23 14
-13 0 -33 11 -45 25 -12 14 -28 25 -36 25 -8 0 -27 11 -42 25 -15 14 -35 25
-45 25 -10 0 -23 9 -29 19 -5 11 -23 22 -39 26 -17 4 -33 15 -36 26 -4 10 -15
19 -26 19 -11 0 -24 11 -30 24 -8 16 -23 26 -45 31 -19 3 -38 14 -44 24 -5 10
-21 22 -35 25 -14 4 -25 13 -25 20 0 8 -15 19 -33 25 -18 6 -40 20 -50 31 -9
11 -26 20 -38 20 -12 0 -23 8 -26 19 -3 13 -17 21 -43 25 -27 4 -41 12 -45 26
-4 12 -15 20 -30 20 -16 0 -25 7 -29 25 -5 20 -13 25 -36 25 -27 0 -45 13 -45
35 0 6 -12 11 -27 13 -20 2 -28 9 -28 23 0 20 -4 23 -52 33 -16 4 -28 13 -28
20 0 8 -7 17 -16 20 -28 11 -54 6 -54 -9 0 -17 -16 -20 -25 -5 -3 6 1 13 9 16
9 3 16 15 16 25 0 16 -8 19 -50 19 -29 0 -50 -5 -50 -11 0 -5 -5 -7 -11 -3 -8
5 -6 10 7 18 11 6 20 19 22 29 2 13 -4 17 -28 17 -20 0 -30 -5 -30 -15z m190
-135 c0 -5 -5 -10 -11 -10 -5 0 -7 5 -4 10 3 6 8 10 11 10 2 0 4 -4 4 -10z
m75 -50 c-27 -12 -35 -12 -35 0 0 6 12 10 28 9 24 0 25 -1 7 -9z m-57 -47
c-16 -2 -40 -2 -55 0 -16 2 -3 4 27 4 30 0 43 -2 28 -4z m122 -3 c0 -5 -4 -10
-9 -10 -6 0 -13 5 -16 10 -3 6 1 10 9 10 9 0 16 -4 16 -10z m-1447 -1791 c-17
-17 -37 -1 -22 17 8 10 15 12 23 4 7 -7 7 -13 -1 -21z m67 -35 c0 -2 -7 -4
-15 -4 -8 0 -15 4 -15 10 0 5 7 7 15 4 8 -4 15 -8 15 -10z"/>
<path d="M5304 15849 c-11 -18 11 -32 25 -16 9 12 8 16 -3 20 -9 4 -18 1 -22
-4z"/>
<path d="M5220 15790 c0 -12 8 -12 35 0 18 8 17 9 -7 9 -16 1 -28 -3 -28 -9z"/>
<path d="M5157 15753 c-11 -10 13 -32 29 -26 20 8 17 33 -4 33 -10 0 -22 -3
-25 -7z"/>
<path d="M5098 15706 c-17 -6 -28 -17 -28 -28 0 -13 -8 -18 -30 -18 -23 0 -30
-5 -30 -19 0 -13 -11 -20 -42 -27 -27 -6 -43 -15 -43 -23 0 -8 -14 -18 -31
-23 -19 -5 -34 -16 -37 -27 -3 -13 -17 -22 -40 -26 -23 -5 -37 -14 -40 -26 -3
-11 -14 -19 -27 -19 -13 0 -24 -8 -27 -19 -3 -11 -20 -23 -43 -30 -23 -7 -40
-19 -43 -31 -3 -14 -14 -20 -32 -20 -34 0 -29 -20 8 -33 24 -8 31 -5 48 17 13
17 30 26 49 26 20 0 27 5 26 17 0 12 7 19 22 21 12 2 22 7 22 12 0 4 8 6 19 3
12 -3 20 2 24 16 3 12 12 21 21 21 9 0 19 12 22 26 4 17 11 23 21 20 8 -3 17
-6 19 -6 2 0 4 -15 4 -32 0 -18 5 -40 10 -48 6 -10 4 -20 -8 -34 -19 -21 -22
-20 46 -1 20 6 22 3 22 -34 0 -40 1 -41 35 -41 35 0 35 0 35 44 0 25 5 46 12
48 8 3 5 19 -11 51 -13 26 -25 47 -27 47 -2 0 -10 -16 -19 -36 -10 -24 -20
-35 -32 -32 -14 2 -18 15 -19 60 -2 51 1 58 20 64 21 6 45 26 94 77 15 15 35
27 45 27 20 0 35 27 21 39 -5 4 -21 3 -36 -3z"/>
<path d="M4520 15299 c0 -15 5 -20 22 -17 34 5 37 38 4 38 -20 0 -26 -5 -26
-21z"/>
<path d="M4473 15278 c-18 -6 -35 -19 -38 -29 -4 -11 -14 -19 -24 -19 -10 0
-31 -11 -47 -25 -16 -14 -37 -25 -47 -25 -11 0 -21 -9 -24 -21 -4 -12 -17 -22
-36 -26 -17 -4 -32 -14 -34 -25 -3 -10 -14 -19 -24 -19 -11 -1 -23 -3 -29 -4
-5 -1 -14 -3 -19 -4 -5 0 -11 -9 -14 -20 -2 -10 -17 -21 -33 -25 -16 -4 -37
-16 -47 -27 -10 -10 -24 -19 -32 -19 -8 0 -20 -9 -27 -20 -7 -11 -18 -20 -25
-20 -6 0 -27 -13 -45 -30 -18 -16 -40 -30 -50 -30 -9 0 -19 -9 -23 -19 -3 -12
-19 -22 -38 -26 -18 -4 -40 -16 -50 -26 -10 -11 -24 -19 -31 -19 -7 0 -21 -9
-31 -20 -10 -11 -33 -25 -51 -32 -19 -7 -34 -17 -34 -24 0 -7 -13 -17 -30 -23
-16 -5 -30 -14 -30 -18 0 -10 -106 -83 -120 -83 -5 0 -14 -9 -20 -20 -6 -11
-17 -20 -24 -20 -7 0 -25 -11 -40 -25 -15 -14 -33 -25 -41 -25 -7 0 -26 -10
-42 -22 -15 -13 -37 -29 -48 -36 -11 -7 -33 -21 -50 -31 -16 -11 -37 -26 -45
-35 -9 -8 -28 -19 -43 -25 -15 -6 -27 -15 -27 -20 0 -5 -17 -16 -39 -24 -21
-9 -41 -23 -44 -31 -4 -9 -13 -16 -20 -16 -14 0 -71 -39 -112 -77 -11 -10 -27
-22 -36 -28 -55 -35 -86 -55 -98 -67 -17 -15 -58 -38 -118 -68 -24 -12 -43
-25 -43 -30 0 -5 -10 -12 -22 -16 -13 -4 -38 -20 -56 -35 -18 -16 -38 -29 -45
-29 -7 0 -18 -9 -25 -20 -7 -11 -19 -20 -27 -20 -8 0 -18 -6 -22 -12 -4 -7
-35 -31 -68 -52 -33 -22 -65 -45 -70 -51 -6 -7 -30 -23 -54 -36 -60 -33 -68
-38 -131 -85 -30 -22 -66 -47 -80 -54 -14 -7 -27 -16 -30 -21 -8 -11 -108 -79
-118 -79 -5 0 -17 -9 -27 -20 -10 -11 -24 -20 -31 -20 -7 0 -25 -10 -41 -22
-15 -13 -35 -27 -44 -33 -9 -5 -43 -28 -75 -50 -72 -50 -89 -59 -140 -85 -23
-11 -47 -27 -54 -35 -7 -8 -18 -15 -26 -15 -7 0 -18 -9 -24 -20 -6 -12 -40
-49 -74 -84 -35 -35 -67 -72 -70 -82 -3 -11 -35 -50 -71 -87 -36 -37 -72 -82
-80 -100 -23 -49 -49 -91 -62 -102 -16 -13 -83 -146 -83 -164 0 -8 -6 -22 -14
-30 -8 -9 -21 -44 -30 -77 -9 -34 -23 -74 -31 -90 -8 -16 -15 -48 -15 -72 0
-23 -9 -60 -20 -82 -20 -39 -20 -59 -20 -1173 0 -623 3 -1136 6 -1140 7 -7
100 38 109 53 4 6 34 28 68 50 34 21 69 45 77 52 8 8 33 25 55 39 47 30 66 43
219 145 16 10 36 24 45 29 9 6 26 19 37 30 12 11 36 29 54 40 69 41 211 135
230 152 24 22 104 73 115 73 6 1 26 14 45 30 19 17 40 30 47 30 7 0 13 4 13 8
0 5 35 32 77 60 43 29 103 70 133 92 30 23 66 48 80 57 14 9 49 33 78 52 29
20 65 43 80 51 15 8 36 23 47 33 19 18 120 86 173 117 14 8 33 23 43 32 10 10
30 20 44 24 14 3 25 10 25 14 0 4 17 19 37 32 20 12 51 32 69 43 17 11 51 34
74 50 23 17 54 37 69 45 15 9 40 26 56 38 15 12 32 22 37 22 6 0 35 19 66 43
32 24 64 46 72 50 8 4 33 21 55 38 22 16 55 39 73 51 17 11 32 23 32 27 0 5
18 16 40 26 22 10 40 22 40 26 0 5 16 15 35 23 19 8 35 19 35 23 0 5 16 15 35
22 19 7 40 21 45 32 6 10 19 19 30 19 10 0 23 6 27 14 4 7 22 21 38 30 17 9
50 32 75 51 25 19 59 42 75 51 17 9 34 23 38 30 4 8 16 14 25 14 9 1 33 14 52
30 19 17 40 30 47 30 7 0 13 5 13 11 0 5 16 17 35 25 19 8 35 18 35 23 0 5 18
17 40 27 22 10 40 21 40 25 0 4 15 16 33 27 17 12 50 35 72 51 22 17 52 36 68
42 15 6 27 15 27 19 0 9 102 80 115 80 7 0 57 40 95 74 8 8 28 18 43 21 15 4
32 16 38 26 5 11 16 19 23 19 7 0 25 11 39 24 15 14 37 28 49 32 13 4 29 15
36 25 7 11 19 19 26 19 7 0 25 11 39 24 15 14 36 27 47 31 11 3 20 10 20 15 0
5 15 17 33 26 17 9 35 22 40 30 4 7 21 15 37 19 17 4 35 15 40 25 6 10 19 22
30 25 11 4 32 17 45 31 13 13 33 24 45 24 11 0 20 7 20 16 0 8 16 22 35 30 19
8 35 18 35 23 0 5 17 16 39 24 21 9 41 23 44 31 4 9 14 16 23 16 9 0 27 11 40
25 13 14 32 25 42 25 11 0 27 11 36 25 9 14 25 25 36 25 11 0 20 7 20 16 0 8
14 20 30 26 17 5 35 18 40 28 5 10 23 21 39 25 16 3 32 13 35 20 3 8 21 21 41
29 19 8 38 22 41 31 3 8 17 15 31 15 16 0 27 7 30 19 3 10 21 26 41 35 75 35
102 51 108 69 3 9 11 17 18 17 7 0 27 14 44 30 18 17 40 30 51 30 10 0 21 9
24 20 3 11 14 20 25 20 10 0 31 11 46 25 15 14 38 25 50 25 17 0 26 7 30 25 4
16 13 25 26 25 10 0 25 9 33 20 8 11 28 23 45 26 22 4 32 12 32 24 0 19 19 30
50 30 12 0 20 8 22 23 2 12 9 23 16 23 6 1 23 2 36 3 17 1 26 8 28 24 2 14 11
23 26 25 12 2 22 9 22 15 0 7 -10 17 -22 22 -13 6 -24 20 -26 33 -3 17 -8 22
-20 17 -29 -11 -125 -26 -182 -27 -65 -2 -100 8 -100 28 0 10 -13 14 -50 14
-47 0 -50 2 -50 25 0 14 -9 34 -20 45 -17 17 -24 18 -45 8 -36 -16 -75 3 -75
37 0 23 -3 25 -50 25 -47 0 -50 2 -50 25 0 23 -4 25 -45 25 -41 0 -45 2 -45
25 0 23 -3 25 -50 25 -47 0 -50 -2 -50 -25 0 -20 -5 -25 -25 -25 -21 0 -25 5
-25 29 0 21 -6 30 -22 35 -37 9 -66 7 -71 -6 -3 -7 -6 -2 -6 11 -1 21 -4 23
-38 17 -46 -8 -56 -8 -110 0 -37 5 -43 10 -43 30 0 18 -5 24 -23 24 -31 0 -67
39 -67 73 0 22 -5 27 -25 27 -20 0 -25 5 -25 25 0 20 -5 25 -25 25 -20 0 -25
5 -25 25 0 20 -5 25 -25 25 -18 0 -25 5 -25 20 0 15 -7 20 -25 20 -23 0 -25 3
-25 50 l0 50 -45 0 -45 0 0 50 0 50 -50 0 -50 0 0 44 c0 41 -2 45 -27 49 -16
2 7 5 50 6 76 1 77 1 77 -24 0 -20 5 -25 25 -25 23 0 25 -3 25 -50 l0 -50 45
0 45 0 0 50 c0 47 -2 50 -25 50 -23 0 -25 4 -25 45 l0 45 -45 0 c-41 0 -45 2
-45 25 0 20 5 25 25 25 18 0 25 -5 25 -20 0 -13 7 -20 20 -20 17 0 20 7 20 48
0 54 -28 92 -68 92 -20 0 -22 -5 -22 -50 l0 -50 -50 0 c-47 0 -50 -2 -50 -25
0 -20 -5 -25 -25 -25 -20 0 -25 5 -25 25 0 20 -5 25 -25 25 -23 0 -25 3 -25
50 0 47 -2 50 -25 50 -23 0 -25 4 -25 45 0 38 -3 45 -20 45 -17 0 -20 7 -20
49 l0 50 -52 3 c-44 2 -54 7 -64 27 -11 22 -31 40 -44 41 -4 0 -12 -16 -19
-36 -12 -33 -14 -34 -26 -17 -12 16 -10 21 17 46 24 23 28 30 18 42 -7 8 -13
15 -14 14 0 -1 -16 -6 -33 -11z"/>
<path d="M4880 15170 c0 -47 -2 -50 -25 -50 -23 0 -25 -4 -25 -45 l0 -45 75 0
c67 0 75 2 75 19 0 14 -8 21 -27 24 l-28 4 28 2 c27 1 27 2 27 71 l0 70 -50 0
-50 0 0 -50z"/>
<path d="M12170 14600 c0 -5 5 -10 11 -10 5 0 7 5 4 10 -3 6 -8 10 -11 10 -2
0 -4 -4 -4 -10z"/>
<path d="M12258 14543 c7 -3 16 -2 19 1 4 3 -2 6 -13 5 -11 0 -14 -3 -6 -6z"/>
<path d="M12310 14500 c0 -5 7 -10 16 -10 8 0 12 5 9 10 -3 6 -10 10 -16 10
-5 0 -9 -4 -9 -10z"/>
<path d="M12695 14260 c-3 -5 1 -10 10 -10 9 0 13 5 10 10 -3 6 -8 10 -10 10
-2 0 -7 -4 -10 -10z"/>
<path d="M12840 14170 c0 -15 7 -20 25 -20 27 0 32 9 13 28 -18 18 -38 14 -38
-8z"/>
<path d="M12890 14126 c0 -8 16 -16 41 -20 47 -8 52 -6 43 18 -8 21 -84 23
-84 2z"/>
<path d="M6990 14120 c0 -5 5 -10 10 -10 6 0 10 5 10 10 0 6 -4 10 -10 10 -5
0 -10 -4 -10 -10z"/>
<path d="M13000 14098 c-32 -12 -25 -38 10 -38 17 0 30 5 30 11 0 7 8 18 18
25 15 12 14 13 -10 12 -15 -1 -36 -6 -48 -10z"/>
<path d="M13120 14080 c0 -27 3 -30 30 -30 36 0 38 9 7 38 -31 29 -37 28 -37
-8z"/>
<path d="M13040 14030 c0 -17 7 -20 40 -20 36 0 40 -2 40 -25 0 -21 5 -25 31
-25 26 0 30 3 27 23 -2 15 -10 22 -26 22 -13 0 -27 7 -31 14 -5 7 -15 11 -22
9 -8 -3 -20 1 -27 9 -19 19 -32 16 -32 -7z"/>
<path d="M6835 14020 c-3 -5 1 -10 9 -10 9 0 16 5 16 10 0 6 -4 10 -9 10 -6 0
-13 -4 -16 -10z"/>
<path d="M9044 13998 c-21 -18 -48 -44 -59 -58 -11 -14 -28 -32 -37 -42 -9 -9
-21 -33 -27 -54 -5 -20 -18 -45 -28 -56 -16 -18 -18 -48 -21 -331 -2 -245 0
-312 10 -318 7 -5 219 -9 470 -9 356 0 457 3 461 13 8 21 -5 861 -13 871 -5 4
-168 10 -363 13 l-354 5 -39 -34z"/>
<path d="M10124 14017 c-2 -7 -5 -207 -6 -445 -3 -377 -1 -433 12 -436 14 -4
888 -1 918 2 19 3 18 595 -2 611 -7 6 -16 34 -19 62 -4 29 -13 59 -21 68 -9 9
-32 35 -53 59 -20 23 -42 42 -49 42 -6 0 -18 9 -25 19 -13 18 -36 19 -382 24
-279 4 -369 3 -373 -6z"/>
<path d="M6745 13970 c-4 -6 3 -10 14 -10 25 0 27 6 6 13 -8 4 -17 2 -20 -3z"/>
<path d="M6705 13930 c-3 -5 -1 -10 4 -10 6 0 11 5 11 10 0 6 -2 10 -4 10 -3
0 -8 -4 -11 -10z"/>
<path d="M8877 12823 c-4 -3 -7 -160 -7 -348 0 -307 2 -344 17 -356 9 -8 25
-33 35 -56 10 -24 23 -43 27 -43 4 0 13 -11 19 -25 6 -14 18 -25 26 -25 7 0
20 -10 28 -22 l15 -23 384 -5 c250 -3 387 -2 391 5 9 12 11 866 2 889 -5 14
-56 16 -468 16 -255 0 -466 -3 -469 -7z"/>
<path d="M10127 12823 c-4 -3 -7 -205 -7 -448 0 -343 3 -445 13 -451 6 -5 183
-7 394 -4 l381 5 31 35 c61 70 78 96 105 152 l26 57 -2 328 -3 328 -466 3
c-256 1 -469 -1 -472 -5z"/>
<path d="M5904 11570 c-295 -4 -344 -7 -360 -21 -11 -9 -34 -21 -52 -27 -19
-6 -47 -23 -64 -37 -16 -14 -35 -25 -41 -26 -7 0 -32 -16 -57 -34 -25 -19 -61
-44 -80 -55 -19 -10 -66 -42 -105 -70 -38 -27 -89 -59 -112 -71 -23 -11 -47
-27 -54 -35 -6 -8 -18 -14 -25 -14 -8 0 -22 -9 -31 -20 -10 -11 -23 -20 -29
-20 -6 0 -30 -13 -52 -30 -23 -16 -44 -30 -48 -30 -3 0 -20 -11 -38 -25 -18
-14 -37 -25 -43 -25 -5 0 -18 -9 -28 -20 -10 -11 -26 -20 -35 -20 -9 0 -25 -9
-35 -20 -10 -11 -23 -20 -30 -20 -30 0 -145 -67 -369 -216 -42 -28 -101 -61
-182 -103 -39 -21 -84 -47 -99 -59 -15 -12 -34 -22 -41 -22 -7 0 -19 -6 -27
-14 -8 -8 -29 -22 -48 -30 -19 -9 -59 -32 -89 -51 -30 -19 -68 -40 -85 -48
-16 -8 -36 -21 -44 -30 -7 -10 -18 -17 -23 -17 -6 0 -31 -14 -57 -30 l-47 -31
1 -2952 c0 -2143 4 -2957 12 -2971 7 -14 8 -28 0 -49 -7 -23 -6 -41 6 -76 8
-25 18 -75 21 -111 2 -36 16 -109 30 -164 14 -54 26 -110 26 -125 0 -15 7 -36
15 -49 9 -12 21 -49 27 -82 5 -33 14 -60 18 -60 4 0 15 -28 25 -61 9 -34 25
-75 36 -93 10 -17 19 -40 19 -52 0 -11 9 -29 19 -38 10 -10 22 -32 25 -50 4
-19 15 -44 26 -56 11 -13 20 -30 20 -40 0 -9 11 -31 25 -50 14 -19 25 -41 25
-50 0 -9 11 -31 25 -50 14 -19 25 -39 25 -45 0 -6 11 -22 24 -35 14 -12 28
-35 31 -51 4 -16 11 -29 16 -29 5 0 15 -12 21 -27 7 -16 22 -38 33 -50 11 -12
28 -32 37 -45 26 -34 87 -112 98 -123 5 -5 28 -28 50 -50 22 -22 40 -43 40
-47 0 -5 4 -8 9 -8 6 0 38 -28 73 -63 35 -34 86 -80 113 -101 28 -22 61 -49
75 -62 14 -13 35 -32 47 -43 11 -10 29 -22 40 -25 10 -3 31 -17 47 -31 16 -14
35 -25 42 -25 7 0 17 -7 21 -15 10 -17 112 -85 127 -85 5 0 17 -6 25 -14 30
-27 340 -176 365 -176 8 0 30 -8 48 -19 18 -10 55 -24 81 -30 27 -7 59 -18 71
-26 12 -8 45 -18 72 -21 27 -4 58 -12 70 -19 12 -8 53 -18 91 -23 39 -6 84
-17 102 -26 18 -10 41 -14 51 -11 11 4 35 2 52 -4 18 -6 105 -16 193 -21 88
-6 174 -13 191 -16 27 -5 32 -2 44 26 11 26 11 490 2 2593 -12 2586 -21 3506
-33 3197 -14 -394 -32 -699 -44 -739 l-12 -45 -12 62 c-9 45 -16 62 -28 62
-13 0 -15 -9 -10 -53 7 -52 6 -54 -33 -92 -28 -27 -40 -48 -40 -67 0 -27 -2
-28 -50 -28 -47 0 -50 2 -50 25 0 20 -5 25 -23 25 -13 0 -34 11 -47 25 -13 14
-34 25 -47 25 -21 0 -23 -5 -24 -52 -1 -34 -4 -42 -6 -23 -6 38 -40 75 -70 75
-21 0 -23 4 -23 48 0 65 -27 92 -92 92 -40 0 -47 -3 -51 -22 -2 -13 -5 -2 -6
25 -1 43 -3 47 -26 47 -23 0 -25 3 -25 50 0 42 -3 50 -19 50 -25 0 -41 21 -48
64 -3 20 -10 36 -14 36 -5 0 -9 11 -9 26 0 21 -8 29 -50 46 -42 17 -50 25 -50
46 0 14 -9 35 -20 47 -16 17 -19 27 -12 46 13 35 4 49 -29 49 -26 0 -29 3 -29
35 0 31 -3 35 -25 35 -20 0 -25 5 -25 25 0 20 -5 25 -25 25 -23 0 -25 3 -25
48 0 41 -5 53 -31 78 -52 48 -89 105 -89 136 0 18 -5 28 -15 28 -9 0 -15 9
-15 25 0 18 -5 25 -20 25 -14 0 -20 7 -20 23 0 13 -11 34 -25 47 -20 19 -25
33 -25 72 l0 48 -75 0 c-73 0 -75 1 -75 25 0 23 -4 25 -45 25 l-45 0 0 98 c-1
69 -5 103 -15 116 -8 11 -15 32 -15 48 0 15 -4 28 -10 28 -5 0 -10 11 -10 25
0 20 -5 25 -25 25 -24 0 -25 2 -25 73 0 65 3 76 25 97 23 22 25 30 25 122 0
59 4 98 10 98 6 0 10 20 10 45 0 25 -4 45 -10 45 -5 0 -10 11 -10 25 0 20 5
25 25 25 l25 0 0 240 0 240 -25 0 c-23 0 -25 3 -25 50 0 47 -2 50 -25 50 -21
0 -30 10 -52 55 -21 42 -32 55 -49 55 -12 0 -25 7 -28 16 -8 22 -9 21 19 28
16 4 25 13 25 26 0 11 7 20 15 20 8 0 22 11 31 25 9 14 25 25 36 25 10 0 29
11 42 25 13 14 28 25 33 25 5 0 25 11 43 25 52 38 154 86 186 86 71 2 256 -22
277 -35 12 -8 54 -17 92 -21 39 -4 94 -16 123 -26 29 -10 74 -21 100 -24 49
-7 153 -43 212 -74 19 -10 46 -22 58 -26 28 -8 104 -58 122 -80 7 -8 18 -15
26 -15 7 0 17 -6 21 -13 4 -7 44 -38 88 -69 44 -31 94 -67 110 -82 17 -14 45
-39 64 -55 36 -30 60 -87 62 -151 1 -34 2 -34 11 10 11 49 24 2196 13 2237 -4
16 -12 22 -28 21 -12 -1 -176 -5 -363 -8z"/>
<path d="M17092 4980 c0 -14 2 -19 5 -12 2 6 2 18 0 25 -3 6 -5 1 -5 -13z"/>
<path d="M16745 4270 c-3 -5 -1 -10 4 -10 6 0 11 5 11 10 0 6 -2 10 -4 10 -3
0 -8 -4 -11 -10z"/>
<path d="M16690 4201 c-14 -27 -13 -41 5 -41 10 0 15 10 15 30 0 35 -5 38 -20
11z"/>
<path d="M12638 4013 c7 -3 16 -2 19 1 4 3 -2 6 -13 5 -11 0 -14 -3 -6 -6z"/>
<path d="M8450 3930 c0 -5 5 -10 11 -10 5 0 7 5 4 10 -3 6 -8 10 -11 10 -2 0
-4 -4 -4 -10z"/>
<path d="M8500 3841 c0 -12 5 -21 10 -21 6 0 10 6 10 14 0 8 -4 18 -10 21 -5
3 -10 -3 -10 -14z"/>
<path d="M7490 3845 c-1 -5 -1 -471 0 -1035 1 -909 3 -1027 17 -1042 14 -16
86 -17 1044 -16 l1029 0 0 24 c0 14 -7 27 -17 31 -10 4 -37 19 -60 35 -23 15
-46 28 -51 28 -5 0 -17 9 -27 20 -10 11 -24 20 -31 20 -7 0 -26 11 -42 25 -17
14 -34 25 -40 25 -5 0 -16 7 -23 17 -8 9 -27 22 -44 30 -33 15 -92 54 -115 77
-8 8 -38 30 -66 49 -29 19 -58 39 -65 46 -59 49 -152 121 -157 121 -4 0 -30
22 -58 48 -29 26 -67 58 -84 72 -76 58 -125 104 -319 299 -113 114 -238 246
-279 296 -41 49 -79 95 -86 100 -6 6 -29 35 -51 65 -48 66 -74 98 -97 119 -10
8 -18 21 -18 27 0 6 -7 18 -16 25 -9 8 -27 30 -40 49 -13 19 -34 49 -46 66
-60 82 -98 142 -98 151 0 6 -7 16 -16 24 -8 7 -24 29 -35 48 -10 20 -23 43
-28 51 -5 8 -15 30 -21 48 -7 17 -18 32 -26 32 -7 0 -18 8 -23 18 -6 9 -11 13
-11 7z"/>
<path d="M16446 3835 c-3 -9 0 -15 9 -15 8 0 15 7 15 15 0 8 -4 15 -9 15 -5 0
-11 -7 -15 -15z"/>
<path d="M8550 3779 c0 -5 5 -7 10 -4 6 3 10 8 10 11 0 2 -4 4 -10 4 -5 0 -10
-5 -10 -11z"/>
<path d="M16355 3690 c-3 -5 -1 -10 4 -10 6 0 11 5 11 10 0 6 -2 10 -4 10 -3
0 -8 -4 -11 -10z"/>
<path d="M8640 3646 c0 -9 7 -16 16 -16 9 0 14 5 12 12 -6 18 -28 21 -28 4z"/>
<path d="M16286 3645 c-4 -11 1 -15 19 -15 16 0 25 6 25 15 0 8 -9 15 -19 15
-10 0 -21 -7 -25 -15z"/>
<path d="M16102 3605 c-12 -14 -22 -34 -22 -45 0 -16 7 -20 38 -20 20 0 54 -3
75 -6 33 -6 37 -4 37 15 0 12 -7 24 -15 27 -8 4 -15 17 -15 30 0 13 -4 24 -10
24 -5 0 -10 -9 -10 -20 0 -11 -3 -20 -8 -20 -4 0 -13 9 -20 20 -16 26 -24 25
-50 -5z"/>
<path d="M16233 3604 c-6 -16 12 -34 35 -34 6 0 12 11 12 25 0 18 -5 25 -20
25 -11 0 -23 -7 -27 -16z"/>
<path d="M16005 3510 c-10 -11 -29 -20 -42 -20 -22 0 -23 -4 -23 -60 l0 -60
-50 0 c-27 0 -50 -4 -50 -9 0 -6 -12 -22 -26 -38 -21 -23 -27 -25 -35 -13 -5
8 -7 26 -4 40 4 14 9 40 12 58 l5 32 -45 0 -46 0 -4 -52 -3 -53 -2 53 -2 52
-45 0 c-41 0 -45 2 -45 25 0 24 -2 25 -73 25 -65 0 -76 -3 -97 -25 -19 -20
-33 -25 -72 -25 -45 0 -48 -2 -48 -25 l0 -25 -120 0 c-120 0 -120 0 -120 -24
0 -25 -2 -26 -112 -42 -23 -4 -38 -12 -38 -20 0 -9 -11 -14 -27 -14 -16 0 -50
-12 -78 -25 -27 -14 -60 -25 -72 -25 -12 0 -42 -9 -68 -20 -26 -11 -67 -20
-91 -20 l-44 0 0 -50 0 -50 -145 0 -145 0 0 -50 0 -50 -119 0 -120 0 -4 -47
-3 -48 -2 48 -2 47 -70 0 -70 0 0 -45 0 -45 -95 0 c-95 0 -95 0 -95 -25 0 -23
-3 -25 -50 -25 -47 0 -50 -2 -50 -25 l0 -25 -190 0 -190 0 0 -25 c0 -20 -5
-25 -25 -25 -20 0 -25 -5 -25 -25 l0 -25 -170 0 c-163 0 -170 -1 -170 -20 0
-18 -7 -20 -53 -20 -41 0 -58 5 -72 20 -25 28 -62 26 -68 -2 l-4 -23 -2 23
c-1 21 -5 22 -71 22 -63 0 -70 -2 -70 -20 0 -15 -7 -20 -25 -20 -18 0 -25 5
-25 20 0 19 -7 20 -190 20 -183 0 -190 -1 -190 -20 0 -19 -7 -20 -145 -20
-143 0 -146 -1 -169 -25 -14 -14 -34 -25 -50 -25 -21 0 -26 -5 -26 -25 0 -20
-5 -25 -25 -25 -23 0 -25 -3 -25 -50 0 -47 -2 -50 -25 -50 -20 0 -25 -5 -25
-25 l0 -25 -190 0 -190 0 0 25 c0 20 -5 25 -25 25 -20 0 -25 5 -25 25 0 20 5
25 25 25 23 0 25 3 25 50 l0 50 -125 0 -125 0 0 25 c0 24 -2 25 -70 25 l-70 0
0 48 c0 38 -5 53 -24 71 -18 17 -25 36 -30 89 -3 37 -9 93 -12 124 -5 49 -3
63 17 95 12 21 25 56 28 77 5 31 13 43 37 55 l30 15 -50 17 c-71 24 -86 14
-87 -59 -1 -31 -4 -45 -6 -29 -3 21 -10 27 -29 27 -19 0 -24 5 -24 25 0 18 5
25 20 25 15 0 20 7 20 25 0 23 -3 25 -48 25 -26 0 -56 6 -67 14 -24 15 -58 25
-140 37 -115 18 -129 22 -143 36 -8 8 -26 13 -41 11 -20 -2 -27 -9 -29 -30 -3
-24 0 -28 22 -28 19 0 26 -5 26 -20 0 -17 8 -20 78 -23 72 -3 70 -3 -25 -5
-103 -2 -103 -2 -103 -27 l0 -25 -145 0 c-138 0 -145 -1 -145 -20 0 -18 -7
-20 -70 -20 -68 0 -70 -1 -70 -25 0 -20 -5 -25 -25 -25 -20 0 -25 5 -25 25 0
20 -5 25 -25 25 -24 0 -25 -2 -25 -75 l0 -75 75 0 c67 0 75 -2 75 -19 0 -12 8
-21 23 -24 12 -2 -10 -5 -48 -6 -39 0 -75 3 -80 8 -6 5 -28 14 -49 21 -24 8
-59 33 -92 69 l-54 56 0 67 c0 61 -2 68 -20 68 -15 0 -20 7 -20 25 0 25 0 25
-95 25 -90 0 -95 -1 -95 -21 0 -26 -51 -83 -61 -67 -4 7 -13 -1 -23 -20 -10
-20 -12 -33 -6 -37 20 -12 51 -88 40 -99 -7 -7 -10 -2 -10 13 0 17 -5 22 -22
19 -29 -4 -35 -26 -9 -36 19 -7 21 -10 21 -32 0 -6 11 -15 25 -20 14 -5 25
-16 25 -24 0 -8 4 -17 9 -20 16 -10 41 5 41 25 0 25 22 24 45 -1 18 -19 17
-20 -13 -26 -22 -5 -32 -12 -32 -25 0 -27 50 -26 57 1 4 15 9 18 18 10 7 -6
17 -10 21 -8 16 4 84 -44 84 -58 0 -9 -12 -14 -35 -14 -31 0 -35 3 -35 25 0
21 -5 25 -31 25 -26 0 -30 -3 -27 -22 2 -15 11 -24 26 -26 14 -2 22 -10 22
-23 0 -12 7 -19 19 -19 10 0 34 -14 52 -30 34 -32 73 -37 75 -10 1 8 2 18 3
23 2 12 64 -23 79 -44 7 -11 21 -19 30 -19 27 0 62 -29 62 -51 0 -11 -7 -19
-16 -19 -23 0 -14 -44 10 -48 11 -3 25 3 32 13 14 19 55 17 62 -2 2 -9 -7 -13
-27 -13 -24 0 -31 -4 -31 -20 0 -24 62 -39 85 -20 17 14 69 5 60 -10 -4 -7
-13 -6 -26 0 -24 13 -39 5 -39 -21 0 -14 7 -19 29 -19 16 0 31 5 33 12 3 8 12
8 34 1 l29 -11 -27 -11 c-37 -14 -36 -40 2 -48 17 -3 35 -13 40 -23 5 -10 23
-20 40 -23 16 -4 38 -16 47 -27 10 -11 25 -20 35 -20 10 0 25 -11 34 -25 12
-18 25 -25 49 -25 20 0 42 -9 59 -25 15 -14 39 -25 54 -25 16 0 32 -8 40 -20
7 -12 28 -22 54 -26 22 -4 50 -16 61 -27 10 -10 37 -22 58 -24 25 -4 44 -13
50 -24 6 -12 21 -19 39 -19 41 0 80 -17 80 -35 0 -11 12 -15 49 -15 58 0 81
-7 81 -26 0 -7 15 -15 35 -19 19 -3 51 -7 70 -10 20 -4 35 -12 35 -20 0 -32
132 -33 167 -2 15 13 42 22 78 25 50 4 55 7 55 28 0 23 -3 24 -68 24 -60 0
-71 3 -92 25 -14 15 -36 26 -54 26 -30 2 -31 2 -3 6 19 3 27 10 27 24 0 16 7
19 50 19 43 0 50 -3 50 -20 0 -15 7 -20 25 -20 33 0 65 33 65 67 l0 27 28 -27
c26 -25 34 -27 123 -27 83 0 98 -3 114 -20 15 -17 31 -20 97 -20 77 0 78 0 78
-25 0 -23 4 -25 44 -25 41 0 45 2 49 28 l4 27 2 -27 c1 -26 4 -28 46 -28 41 0
45 -2 45 -25 l0 -25 -145 0 -145 0 0 -31 c0 -20 -8 -37 -22 -49 l-23 -19 25
-9 c15 -6 34 -6 49 0 19 7 29 4 48 -14 l25 -23 -77 -6 c-71 -6 -94 -16 -95
-41 0 -5 36 -8 79 -8 44 0 83 -4 86 -10 3 -5 12 -10 18 -10 8 0 8 3 -1 9 -10
6 -8 10 8 14 15 4 21 11 17 21 -10 27 9 18 22 -10 14 -31 45 -29 49 4 4 27 34
29 94 5 41 -16 42 -17 18 -24 -14 -4 -41 -7 -61 -8 -32 -1 -49 -14 -49 -37 0
-2 93 -5 208 -6 172 -3 206 -5 204 -17 -2 -8 3 -18 10 -22 7 -5 133 -9 280 -9
252 0 268 1 277 19 10 17 29 19 220 26 189 7 210 9 214 25 4 16 21 19 125 25
113 7 121 9 124 29 3 19 10 21 86 24 72 2 83 5 80 20 -2 10 -18 20 -41 25 -31
7 -36 12 -26 23 15 18 80 18 105 -1 12 -9 44 -14 92 -15 64 0 73 2 70 18 -3
15 7 17 77 20 98 3 125 8 125 26 0 14 42 26 95 26 24 0 37 7 49 25 14 21 24
25 69 25 45 0 54 3 62 23 8 17 20 23 55 25 30 2 48 10 58 23 7 10 23 19 35 19
42 0 67 12 67 31 0 14 7 19 29 19 54 0 89 12 94 31 4 14 14 19 36 19 21 0 38
8 53 25 12 14 32 25 45 25 13 0 34 11 47 25 14 14 34 25 50 25 14 0 26 5 26
11 0 20 33 38 68 39 20 0 32 5 32 13 0 14 40 37 65 37 8 0 15 9 15 20 0 11 5
21 10 21 13 2 20 3 53 12 15 4 27 14 27 22 0 9 10 15 25 15 18 0 28 7 35 24 5
15 20 27 39 31 17 4 36 15 41 26 6 11 21 19 35 19 18 0 25 5 25 20 0 14 9 21
35 26 20 3 40 16 50 30 8 13 24 24 35 24 11 0 20 7 20 15 0 9 11 20 24 24 13
5 26 19 29 30 3 13 13 21 27 21 13 0 24 8 27 18 2 10 17 23 32 30 15 6 38 30
51 51 16 25 35 42 52 46 17 4 28 14 30 28 2 16 11 23 31 25 19 2 27 9 27 22 0
13 9 22 25 26 16 4 25 13 25 25 0 12 10 23 25 29 14 5 25 16 25 24 0 8 10 16
23 18 14 2 23 11 25 26 2 14 10 22 22 22 12 0 20 8 22 23 2 16 11 23 31 25 23
3 27 8 27 33 0 19 5 29 15 29 8 0 19 9 25 20 6 11 17 20 24 20 17 0 26 22 26
61 l0 29 -78 0 c-66 0 -82 -3 -97 -20z m-6403 -527 c-6 -35 -20 -53 -40 -53
-24 0 -52 31 -52 57 0 21 4 23 49 23 47 0 48 -1 43 -27z m208 -48 c0 -23 -3
-25 -50 -25 -47 0 -50 2 -50 25 0 23 3 25 50 25 47 0 50 -2 50 -25z m-270 -71
c0 -18 -26 -18 -33 0 -3 8 -3 16 0 19 9 10 33 -5 33 -19z m3733 -151 c-7 -2
-21 -2 -30 0 -10 3 -4 5 12 5 17 0 24 -2 18 -5z m-2508 -523 c17 -7 14 -9 -13
-9 -20 -1 -31 3 -27 9 7 12 13 12 40 0z m1338 -7 c-20 -4 -23 -11 -25 -51 l-2
-47 -3 47 -4 47 -47 4 c-29 2 -18 4 28 4 41 0 65 -2 53 -4z m-995 -80 c-2 -13
-15 -19 -42 -21 -48 -4 -67 3 -60 23 4 11 20 15 56 15 42 0 49 -3 46 -17z
m922 -38 c0 -24 -2 -25 -75 -25 -73 0 -75 1 -75 25 0 24 2 25 75 25 73 0 75
-1 75 -25z m1704 -26 c-7 -11 -44 -12 -44 -1 0 4 5 13 12 20 13 13 42 -4 32
-19z m-1394 -195 c0 -2 -17 -4 -37 -3 -33 1 -35 2 -13 8 23 7 50 4 50 -5z"/>
<path d="M9557 2804 c-4 -4 -7 -16 -7 -26 0 -13 8 -18 31 -18 26 0 30 3 27 23
-3 22 -36 36 -51 21z"/>
<path d="M12460 2765 l0 -45 50 0 50 0 0 45 0 45 -50 0 -50 0 0 -45z"/>
<path d="M9640 2733 c0 -19 5 -23 30 -23 25 0 30 4 30 25 0 22 -4 25 -30 23
-24 -2 -30 -7 -30 -25z"/>
<path d="M11270 2220 c19 -13 30 -13 30 0 0 6 -10 10 -22 10 -19 0 -20 -2 -8
-10z"/>
<path d="M11350 2061 c0 -22 20 -36 40 -29 6 2 0 14 -14 27 l-26 24 0 -22z"/>
<path d="M11105 2032 c-1 -2 -1 -12 2 -22 4 -16 17 -19 85 -22 86 -3 111 3 91
23 -11 11 -169 30 -178 21z"/>
<path d="M11331 1972 c-19 -4 -36 -13 -39 -19 -3 -10 23 -13 107 -13 94 0 110
2 105 15 -4 8 -16 15 -29 15 -12 0 -42 2 -66 4 -24 2 -59 1 -78 -2z"/>
<path d="M11722 1863 c-15 -6 -6 -23 14 -23 8 0 14 7 14 15 0 15 -6 17 -28 8z"/>
</g>
</svg>
